<svg xmlns="http://www.w3.org/2000/svg" xmlns:xlink="http://www.w3.org/1999/xlink" width="763.437" height="594.7098" viewBox="0 0 763.437 594.7098"><defs><style>.cls-1,.cls-6,.cls-7,.cls-8,.cls-9{fill:none;}.cls-2{fill:#263a95;}.cls-3{fill:#939393;}.cls-4{clip-path:url(#clip-path);}.cls-5{fill:#c5cbe7;}.cls-6,.cls-7,.cls-8,.cls-9{stroke:#c5cbe7;stroke-miterlimit:10;}.cls-6{stroke-width:1.0892px;}.cls-7{stroke-width:1.1152px;}.cls-8{stroke-width:1.1072px;}.cls-9{stroke-width:1.1164px;}</style><clipPath id="clip-path"><circle class="cls-1" cx="384.4062" cy="202.0546" r="202.0546"/></clipPath></defs><g id="nombre"><path class="cls-2" d="M0,530.5174l29.8354-67.1543H45.1846l30.1235,67.1543H59L34.3442,471.23H40.58L15.9248,530.5174Zm15.0615-14.39,3.9331-11.8008H53.7231l4.0289,11.8008Z"/><path class="cls-2" d="M114.7363,531.6688a41.16,41.16,0,0,1-14.6777-2.542,33.4326,33.4326,0,0,1-19.2349-18.2754,36.7521,36.7521,0,0,1,0-27.8213,32.9365,32.9365,0,0,1,7.7227-11.0322,34.8638,34.8638,0,0,1,11.7041-7.2432,44.5656,44.5656,0,0,1,30.8428.4317,31.8474,31.8474,0,0,1,12.04,8.6337l-9.8813,9.21a24.75,24.75,0,0,0-8.0581-5.8037,23.6375,23.6375,0,0,0-9.4976-1.8711,23.9244,23.9244,0,0,0-8.8262,1.583,20.4542,20.4542,0,0,0-6.955,4.461,19.7944,19.7944,0,0,0-4.5088,6.8115,24.4652,24.4652,0,0,0,0,17.3154,19.6732,19.6732,0,0,0,4.5088,6.8594,21.148,21.148,0,0,0,6.9072,4.5088,22.9087,22.9087,0,0,0,8.7778,1.6308,25.8018,25.8018,0,0,0,17.46-6.6191l8.8261,11.2246a39.8419,39.8419,0,0,1-12.7592,6.38A49.8735,49.8735,0,0,1,114.7363,531.6688Zm12.9512-10.5528v-25.23h14.1982v27.2451Z"/><path class="cls-2" d="M171.7207,518.0457H208.272v12.4717H156.2754V463.3631h50.749v12.4717H171.7207ZM170.57,490.3211h32.33v12.1836H170.57Z"/><path class="cls-2" d="M253.2637,531.6688a40.4291,40.4291,0,0,1-14.6778-2.5908,35.4516,35.4516,0,0,1-11.7041-7.2911,32.9163,32.9163,0,0,1-7.7226-11.0322,36.3839,36.3839,0,0,1,0-27.6767,33.08,33.08,0,0,1,7.7226-10.9844,35.5923,35.5923,0,0,1,11.6558-7.291,40.0732,40.0732,0,0,1,14.63-2.59,40.7654,40.7654,0,0,1,14.63,2.542,34.996,34.996,0,0,1,11.6557,7.2432,32.9578,32.9578,0,0,1,7.7227,11.0322,36.628,36.628,0,0,1,0,27.7725,32.8041,32.8041,0,0,1-7.7227,11.081,34.9639,34.9639,0,0,1-11.6557,7.2432A40.512,40.512,0,0,1,253.2637,531.6688Zm-.0957-13.1436a21.3293,21.3293,0,0,0,8.2978-1.582,20.1478,20.1478,0,0,0,6.6675-4.51,20.7907,20.7907,0,0,0,4.4609-6.81,24.6006,24.6006,0,0,0,0-17.3643,20.8054,20.8054,0,0,0-4.4609-6.8115,20.1753,20.1753,0,0,0-6.6675-4.5088,21.3114,21.3114,0,0,0-8.2978-1.583,21.6609,21.6609,0,0,0-8.3467,1.583,19.52,19.52,0,0,0-6.667,4.5088,21.1967,21.1967,0,0,0-4.4131,6.8115,24.6006,24.6006,0,0,0,0,17.3643,21.1814,21.1814,0,0,0,4.4131,6.81,19.4946,19.4946,0,0,0,6.667,4.51A21.6791,21.6791,0,0,0,253.168,518.5252Z"/><path class="cls-2" d="M301.6138,530.5174V463.3631h12.8554l28.5884,47.3916h-6.8115l28.0127-47.3916H377.21v67.1543H362.7236l-.1914-44.8008h2.878L342.77,523.3221h-6.9072l-22.9282-37.6055H316.1v44.8008Z"/><path class="cls-2" d="M393.1343,530.5174V463.3631H405.99l28.5879,47.3916h-6.81l28.0117-47.3916H468.73v67.1543H454.2437l-.1915-44.8008h2.879l-22.6407,37.6055h-6.9082l-22.9277-37.6055h3.166v44.8008Z"/><path class="cls-2" d="M484.6558,530.5174V463.3631h15.6367v67.1543Z"/><path class="cls-2" d="M516.1206,530.5174V463.3631h12.8545l39.6211,48.3516h-6.2354V463.3631H577.71v67.1543H564.855l-39.6211-48.3506h6.2353v48.3506Z"/><path class="cls-2" d="M593.6353,530.5174V463.3631H609.272v67.1543Z"/><path class="cls-2" d="M625.1,530.5174V463.3631h12.8545l39.6211,48.3516H671.34V463.3631H686.689v67.1543H673.8345l-39.6211-48.3506h6.2353v48.3506Z"/><path class="cls-2" d="M735.0405,531.6688a41.1677,41.1677,0,0,1-14.6787-2.542,33.4336,33.4336,0,0,1-19.2344-18.2754,36.7521,36.7521,0,0,1,0-27.8213,32.9294,32.9294,0,0,1,7.7227-11.0322,34.87,34.87,0,0,1,11.7041-7.2432,44.5656,44.5656,0,0,1,30.8428.4317,31.857,31.857,0,0,1,12.04,8.6337l-9.8818,9.21a24.7514,24.7514,0,0,0-8.0586-5.8037A23.6347,23.6347,0,0,0,736,475.3553a23.9225,23.9225,0,0,0-8.8262,1.583,20.46,20.46,0,0,0-6.955,4.461,19.8087,19.8087,0,0,0-4.5088,6.8115,24.4652,24.4652,0,0,0,0,17.3154,19.6872,19.6872,0,0,0,4.5088,6.8594,21.1543,21.1543,0,0,0,6.9072,4.5088,22.9094,22.9094,0,0,0,8.7783,1.6308,25.8041,25.8041,0,0,0,17.46-6.6191l8.8252,11.2246a39.84,39.84,0,0,1-12.7588,6.38A49.8753,49.8753,0,0,1,735.0405,531.6688Zm12.95-10.5528v-25.23H762.189v27.2451Z"/><path class="cls-3" d="M135.873,584.8787a16.0855,16.0855,0,0,1-6.7031-1.3671,13.7139,13.7139,0,0,1-5.0473-3.8379,13.14,13.14,0,0,1-2.7076-5.7305l4.1534-.999.5786.1054a10.0817,10.0817,0,0,0,1.9975,3.8116,10.3937,10.3937,0,0,0,3.4439,2.707,9.539,9.539,0,0,0,4.2846.999,11.0827,11.0827,0,0,0,4.3374-.7881,7.05,7.05,0,0,0,2.9444-2.208,5.2479,5.2479,0,0,0,1.0776-3.26,4.9558,4.9558,0,0,0-1.393-3.7852,9.057,9.057,0,0,0-3.8643-1.998l-7.0977-1.9454a13.051,13.051,0,0,1-6.6245-3.8378,9.3655,9.3655,0,0,1-.7358-11.2247,10.3969,10.3969,0,0,1,4.2319-3.5224,14.4745,14.4745,0,0,1,6.2827-1.2881,14.79,14.79,0,0,1,6.23,1.2881,12.0268,12.0268,0,0,1,7.0191,9.0693l-4.0484.8936-.5781-.1055a8.3869,8.3869,0,0,0-3.0234-4.9941A8.8627,8.8627,0,0,0,134.98,551.02a8.3356,8.3356,0,0,0-5.2578,1.5518,4.9633,4.9633,0,0,0-1.9976,4.127,4.5484,4.5484,0,0,0,1.4195,3.4169,9.403,9.403,0,0,0,4.1005,2.1036l7.045,1.9443a13.0689,13.0689,0,0,1,6.414,3.6807,8.9634,8.9634,0,0,1,2.2608,6.2041,9.919,9.919,0,0,1-1.6294,5.6777,10.8961,10.8961,0,0,1-4.5742,3.7852A16.2125,16.2125,0,0,1,135.873,584.8787Z"/><path class="cls-3" d="M166.5762,584.8787a12.9555,12.9555,0,0,1-6.7823-1.7617,12.2857,12.2857,0,0,1-4.6-4.8623,15.1848,15.1848,0,0,1-1.6562-7.2558,15.4179,15.4179,0,0,1,1.63-7.2286,11.945,11.945,0,0,1,4.5478-4.8632,12.8577,12.8577,0,0,1,6.7032-1.7354,12.0784,12.0784,0,0,1,6.5454,1.7617,11.9189,11.9189,0,0,1,4.39,4.9678,16.7278,16.7278,0,0,1,1.5772,7.4658v.6309l-.7886.7363H156.0088v-4.1533h20.5039l-2.103.8408a9.1624,9.1624,0,0,0-1.2618-4.31,7.6572,7.6572,0,0,0-6.7294-3.7334,8.32,8.32,0,0,0-4.2588,1.1308,7.96,7.96,0,0,0-3.0493,3.1807,9.8257,9.8257,0,0,0-1.1041,4.7314v1.0518a9.8647,9.8647,0,0,0,1.1041,4.7051,8.4745,8.4745,0,0,0,3.0493,3.2861,8.1859,8.1859,0,0,0,4.4165,1.209,7.45,7.45,0,0,0,4.206-1.1826,7.986,7.986,0,0,0,2.7862-3.2334h.6308l3.68,1.63a11.509,11.509,0,0,1-4.4424,5.1259A12.6324,12.6324,0,0,1,166.5762,584.8787Z"/><path class="cls-3" d="M184.5562,584.1951v-26.34h4.311v7.4131l-1.2617-.7891a8.9435,8.9435,0,0,1,3.5224-4.8359,9.9085,9.9085,0,0,1,5.7832-1.7881h2.6812v4.2061h-3.3648a6.8243,6.8243,0,0,0-3.7592,1.0254,7.0929,7.0929,0,0,0-2.5235,2.8388,9.2339,9.2339,0,0,0-.92,4.2324v14.0371Z"/><path class="cls-3" d="M211.21,584.1951l-10.6723-25.9189v-.4209h4.6265l9.1479,22.6592.1577,3.6806Zm1.1568,0,.1055-3.6806,9.1479-22.6592h4.6265v.4209l-10.6729,25.9189Z"/><path class="cls-3" d="M232.5552,552.9657a3.0523,3.0523,0,0,1-3.1021-3.1016,3.0866,3.0866,0,0,1,.8936-2.2344,2.96,2.96,0,0,1,2.2085-.92,3.1408,3.1408,0,0,1,3.1543,3.1543,2.957,2.957,0,0,1-.92,2.208A3.0862,3.0862,0,0,1,232.5552,552.9657Zm-2.2608,31.2294v-26.34h4.4688v26.34Z"/><path class="cls-3" d="M253.7417,584.8787a13.4425,13.4425,0,0,1-6.94-1.7617,12.3567,12.3567,0,0,1-4.6792-4.8623,16.4271,16.4271,0,0,1,0-14.4844,12.1385,12.1385,0,0,1,4.6792-4.8632,13.593,13.593,0,0,1,6.94-1.7354,12.9961,12.9961,0,0,1,5.3892,1.0781,11.7636,11.7636,0,0,1,4.1005,3.0489,12.7809,12.7809,0,0,1,2.55,4.81l-3.8906,1.1045h-.5781a8.6015,8.6015,0,0,0-2.918-4.2324,7.4464,7.4464,0,0,0-4.6528-1.5508,8.7261,8.7261,0,0,0-4.6528,1.209,8.2862,8.2862,0,0,0-3.0757,3.3652,10.8113,10.8113,0,0,0-1.104,4.9942,10.969,10.969,0,0,0,1.104,5.02,8.2433,8.2433,0,0,0,3.0757,3.3916,8.718,8.718,0,0,0,4.6528,1.209,8.129,8.129,0,0,0,3.3647-.6836,7.5445,7.5445,0,0,0,2.6553-1.9971,9.6128,9.6128,0,0,0,1.7612-3.1025h.5782l3.9433,1.1044a13.8924,13.8924,0,0,1-2.7339,4.8633,11.6573,11.6573,0,0,1-4.18,3.0489A13.5579,13.5579,0,0,1,253.7417,584.8787Z"/><path class="cls-3" d="M273.6675,552.9657a3.0523,3.0523,0,0,1-3.1021-3.1016,3.0866,3.0866,0,0,1,.8936-2.2344,2.96,2.96,0,0,1,2.2085-.92,3.1408,3.1408,0,0,1,3.1543,3.1543,2.957,2.957,0,0,1-.92,2.208A3.0862,3.0862,0,0,1,273.6675,552.9657Zm-2.2608,31.2294v-26.34h4.4688v26.34Z"/><path class="cls-3" d="M294.644,584.8787a12.9554,12.9554,0,0,1-6.7822-1.7617,12.4278,12.4278,0,0,1-4.6264-4.8886,16.37,16.37,0,0,1,0-14.4581,12.2434,12.2434,0,0,1,4.6264-4.8632,14.2228,14.2228,0,0,1,13.6167,0,12.258,12.258,0,0,1,4.6265,4.8632,16.3706,16.3706,0,0,1,0,14.4581,12.4427,12.4427,0,0,1-4.6265,4.8886A13.0609,13.0609,0,0,1,294.644,584.8787Zm.0523-4.2587a8.0266,8.0266,0,0,0,7.4658-4.5215,11.0519,11.0519,0,0,0,1.104-5.1,10.8971,10.8971,0,0,0-1.104-5.0733,8.0628,8.0628,0,0,0-7.4658-4.4951,8.5316,8.5316,0,0,0-4.5215,1.1826,8.203,8.203,0,0,0-3.0493,3.3125,10.8959,10.8959,0,0,0-1.104,5.0733,11.0936,11.0936,0,0,0,1.104,5.0732,8.1273,8.1273,0,0,0,3.0493,3.3652A8.5316,8.5316,0,0,0,294.6963,580.62Z"/><path class="cls-3" d="M322.14,584.8787a11.8436,11.8436,0,0,1-6.9921-1.998,9.5564,9.5564,0,0,1-3.7857-5.5732l4.1011-.9981.5781.1045a5.3807,5.3807,0,0,0,2.34,3.1289,7.469,7.469,0,0,0,4.1269,1.13,7.2137,7.2137,0,0,0,4.022-1.0781,3.24,3.24,0,0,0,1.6562-2.8125,2.9183,2.9183,0,0,0-.9726-2.2871,6.3844,6.3844,0,0,0-2.918-1.2881l-4.89-1.1035a10.4144,10.4144,0,0,1-5.4414-2.7344,6.4042,6.4042,0,0,1-1.7613-4.5215,6.7092,6.7092,0,0,1,1.2359-3.9951,8.13,8.13,0,0,1,3.4433-2.708,12.2831,12.2831,0,0,1,4.9947-.9727,11.4209,11.4209,0,0,1,6.8344,1.9981,9.4567,9.4567,0,0,1,3.68,5.6777l-4.1006.8418-.5781-.1055a4.9077,4.9077,0,0,0-2.1821-3.1015,6.7831,6.7831,0,0,0-3.7588-1.1045,6.59,6.59,0,0,0-3.6016.92,2.7507,2.7507,0,0,0-1.4458,2.3926,2.596,2.596,0,0,0,.92,2.0244,6.3945,6.3945,0,0,0,2.918,1.2353l4.9419,1.1563a10.8336,10.8336,0,0,1,5.4678,2.6816,6.51,6.51,0,0,1,1.7876,4.7315,7.2182,7.2182,0,0,1-1.3931,4.4424,9.0569,9.0569,0,0,1-3.7856,2.8916A13.6989,13.6989,0,0,1,322.14,584.8787Z"/><path class="cls-3" d="M360.8862,584.8787a11.6933,11.6933,0,0,1-6.3613-1.788,12.6858,12.6858,0,0,1-4.4951-4.9151,16.2624,16.2624,0,0,1,0-14.3008,12.7,12.7,0,0,1,4.4951-4.915,11.6934,11.6934,0,0,1,6.3613-1.7881,11.3945,11.3945,0,0,1,5.021,1.1045,11.5777,11.5777,0,0,1,3.8907,3.0225,12.1686,12.1686,0,0,1,2.3393,4.4433v10.5674a12.4752,12.4752,0,0,1-2.3393,4.416,11.3449,11.3449,0,0,1-8.9117,4.1533Zm.3155-4.2587a8.2479,8.2479,0,0,0,4.5214-1.2354,8.7305,8.7305,0,0,0,3.0757-3.3906,11.6,11.6,0,0,0,0-9.9893,8.5432,8.5432,0,0,0-3.0757-3.3652,8.3915,8.3915,0,0,0-4.5214-1.209,7.8737,7.8737,0,0,0-4.2847,1.209,8.22,8.22,0,0,0-2.9966,3.3652,12.1087,12.1087,0,0,0,0,9.9893,8.3975,8.3975,0,0,0,2.9966,3.3906A7.7419,7.7419,0,0,0,361.2017,580.62Zm8.8852,3.5751V574.784l.7886-3.7851-.999-3.7325V546.3416l4.3637-.5254.1577.42v37.9589Z"/><path class="cls-3" d="M393.3237,584.8787a12.9577,12.9577,0,0,1-6.7822-1.7617,12.2831,12.2831,0,0,1-4.6-4.8623,15.1848,15.1848,0,0,1-1.6563-7.2558,15.4179,15.4179,0,0,1,1.63-7.2286,11.9459,11.9459,0,0,1,4.5479-4.8632,12.8576,12.8576,0,0,1,6.7031-1.7354,12.0787,12.0787,0,0,1,6.5459,1.7617,11.9057,11.9057,0,0,1,4.3887,4.9678,16.7089,16.7089,0,0,1,1.5781,7.4658v.6309l-.7891.7363H382.7563v-4.1533h20.5049l-2.1035.8408a9.1635,9.1635,0,0,0-1.2617-4.31,7.6575,7.6575,0,0,0-6.73-3.7334,8.3191,8.3191,0,0,0-4.2588,1.1308,7.9617,7.9617,0,0,0-3.05,3.1807,9.8324,9.8324,0,0,0-1.1035,4.7314v1.0518a9.8714,9.8714,0,0,0,1.1035,4.7051,8.4757,8.4757,0,0,0,3.05,3.2861,8.1844,8.1844,0,0,0,4.416,1.209,7.4539,7.4539,0,0,0,4.2071-1.1826,7.979,7.979,0,0,0,2.7851-3.2334h.6309l3.6816,1.63a11.514,11.514,0,0,1-4.4433,5.1259A12.633,12.633,0,0,1,393.3237,584.8787Z"/><path class="cls-3" d="M423.6587,584.1951V547.3934h4.4687v36.8017Z"/><path class="cls-3" d="M435.856,584.1951v-26.34h4.31v7.4131l-1.2617-.7891a9.9387,9.9387,0,0,1,2.3135-3.89,11.0743,11.0743,0,0,1,3.707-2.5244,11.642,11.642,0,0,1,4.5469-.8936,10.4867,10.4867,0,0,1,5.0742,1.21,8.5049,8.5049,0,0,1,3.4961,3.5742,12.54,12.54,0,0,1,1.2617,5.9414v16.2978h-4.4688V569.0008a10.029,10.029,0,0,0-.8417-4.4951,4.9453,4.9453,0,0,0-2.2872-2.3389,7.6052,7.6052,0,0,0-3.2851-.6836,8.2548,8.2548,0,0,0-3.8643.9727,7.72,7.72,0,0,0-3.05,2.918,9.1643,9.1643,0,0,0-1.1826,4.8369v13.9843Z"/><path class="cls-3" d="M474.4976,594.71q-5.1534,0-8.044-2.1025a6.6635,6.6635,0,0,1-2.8916-5.6788,7.2818,7.2818,0,0,1,1.1309-4.0214,7.1955,7.1955,0,0,1,3.3379-2.708l2.2607,2.2607a4.034,4.034,0,0,0-1.7871,1.5254,3.956,3.956,0,0,0-.6309,2.1553,4.0347,4.0347,0,0,0,1.6036,3.2861,7.0956,7.0956,0,0,0,4.5478,1.2881h3.68a9.418,9.418,0,0,0,4.7842-1.0254,3.3026,3.3026,0,0,0,1.7353-3.0234,2.6741,2.6741,0,0,0-1.1308-2.2608,5.5577,5.5577,0,0,0-3.3379-.8408h-7.0977a9.2415,9.2415,0,0,1-3.8115-.7627,6.6888,6.6888,0,0,1-2.708-2.1025,5.0915,5.0915,0,0,1-.999-3.128,5.4,5.4,0,0,1,1.0517-3.207,6.8634,6.8634,0,0,1,3.26-2.3135l2.4707,2.208a3.23,3.23,0,0,0-2.0235,1.0254,2.7519,2.7519,0,0,0-.6044,1.7608,2.1673,2.1673,0,0,0,.998,1.8925,4.78,4.78,0,0,0,2.7344.6836h6.8867a9.4186,9.4186,0,0,1,6.2568,1.9453,6.3423,6.3423,0,0,1,2.3135,5.1,6.9114,6.9114,0,0,1-2.9443,5.8886,13.0725,13.0725,0,0,1-7.8867,2.1553Zm1.7353-18.7686a12.0086,12.0086,0,0,1-5.4941-1.2089,9.3762,9.3762,0,0,1-3.7061-13.0918,8.8978,8.8978,0,0,1,3.7061-3.2852,12.2309,12.2309,0,0,1,5.4941-1.1836,12.029,12.029,0,0,1,5.4942,1.1836,9.1753,9.1753,0,0,1,3.68,3.2852,9.5375,9.5375,0,0,1,0,9.7529,9.3086,9.3086,0,0,1-3.68,3.3389A11.8109,11.8109,0,0,1,476.2329,575.9412Zm0-3.8906a6.5992,6.5992,0,0,0,4.5215-1.5244,5.065,5.065,0,0,0,1.7344-3.9961,5.01,5.01,0,0,0-1.7344-3.9433,7.5064,7.5064,0,0,0-9.0693,0,5.0423,5.0423,0,0,0-1.709,3.9433,5.0979,5.0979,0,0,0,1.709,3.9961A6.5753,6.5753,0,0,0,476.2329,572.0506Zm7.2022-10.8828-2.9434-1.84a7.7143,7.7143,0,0,1,.8672-3.6807,6.7394,6.7394,0,0,1,2.2871-2.55,5.7662,5.7662,0,0,1,3.207-.92c.28,0,.586.0088.92.0263a2.5364,2.5364,0,0,1,.7627.1309v4.0488l-.2636.5782a4.4148,4.4148,0,0,0-1.2617-.1583,3.1177,3.1177,0,0,0-2.6807,1.21A5.171,5.171,0,0,0,483.4351,561.1678Z"/><path class="cls-3" d="M504.0972,584.8787a12.958,12.958,0,0,1-6.7823-1.7617,12.2922,12.2922,0,0,1-4.6005-4.8623,15.1892,15.1892,0,0,1-1.6553-7.2558,15.4179,15.4179,0,0,1,1.63-7.2286,11.9426,11.9426,0,0,1,4.5468-4.8632,12.858,12.858,0,0,1,6.7032-1.7354,12.079,12.079,0,0,1,6.5459,1.7617,11.9077,11.9077,0,0,1,4.39,4.9678,16.721,16.721,0,0,1,1.5772,7.4658v.6309l-.7881.7363H493.53v-4.1533h20.5039l-2.1025.8408a9.1639,9.1639,0,0,0-1.2627-4.31,7.6575,7.6575,0,0,0-6.7295-3.7334,8.3181,8.3181,0,0,0-4.2578,1.1308,7.9559,7.9559,0,0,0-3.05,3.1807,9.8324,9.8324,0,0,0-1.1035,4.7314v1.0518a9.8714,9.8714,0,0,0,1.1035,4.7051,8.4692,8.4692,0,0,0,3.05,3.2861,8.1842,8.1842,0,0,0,4.416,1.209,7.4526,7.4526,0,0,0,4.206-1.1826,7.9822,7.9822,0,0,0,2.7862-3.2334h.6308l3.6807,1.63a11.5176,11.5176,0,0,1-4.4424,5.1259A12.6351,12.6351,0,0,1,504.0972,584.8787Z"/><path class="cls-3" d="M522.0767,584.1951v-26.34h4.3105v7.4131l-1.2617-.7891a9.9387,9.9387,0,0,1,2.3135-3.89,11.0743,11.0743,0,0,1,3.707-2.5244,11.642,11.642,0,0,1,4.5469-.8936,10.4867,10.4867,0,0,1,5.0742,1.21,8.5049,8.5049,0,0,1,3.4961,3.5742,12.54,12.54,0,0,1,1.2617,5.9414v16.2978h-4.4687V569.0008a10.0289,10.0289,0,0,0-.8418-4.4951,4.9453,4.9453,0,0,0-2.2872-2.3389,7.6048,7.6048,0,0,0-3.2851-.6836,8.2548,8.2548,0,0,0-3.8643.9727,7.72,7.72,0,0,0-3.05,2.918,9.1643,9.1643,0,0,0-1.1826,4.8369v13.9843Z"/><path class="cls-3" d="M554.6724,552.9657a3.054,3.054,0,0,1-3.1026-3.1016,3.0855,3.0855,0,0,1,.8946-2.2344,2.9583,2.9583,0,0,1,2.208-.92,3.141,3.141,0,0,1,3.1543,3.1543,2.9585,2.9585,0,0,1-.92,2.208A3.086,3.086,0,0,1,554.6724,552.9657Zm-2.2608,31.2294v-26.34H556.88v26.34Z"/><path class="cls-3" d="M575.5962,584.8787a12.9577,12.9577,0,0,1-6.7822-1.7617,12.2925,12.2925,0,0,1-4.6006-4.8623,15.19,15.19,0,0,1-1.6553-7.2558,15.4179,15.4179,0,0,1,1.63-7.2286,11.9429,11.9429,0,0,1,4.5469-4.8632,12.8576,12.8576,0,0,1,6.7031-1.7354,12.0787,12.0787,0,0,1,6.5459,1.7617,11.907,11.907,0,0,1,4.39,4.9678,16.721,16.721,0,0,1,1.5772,7.4658v.6309l-.7881.7363H565.0288v-4.1533h20.5039l-2.1025.8408a9.1639,9.1639,0,0,0-1.2627-4.31,7.6575,7.6575,0,0,0-6.73-3.7334,8.3181,8.3181,0,0,0-4.2578,1.1308,7.955,7.955,0,0,0-3.05,3.1807,9.8312,9.8312,0,0,0-1.1035,4.7314v1.0518a9.87,9.87,0,0,0,1.1035,4.7051,8.4683,8.4683,0,0,0,3.05,3.2861,8.1842,8.1842,0,0,0,4.416,1.209,7.4523,7.4523,0,0,0,4.206-1.1826,7.9807,7.9807,0,0,0,2.7862-3.2334h.6308l3.6807,1.63a11.5176,11.5176,0,0,1-4.4424,5.1259A12.6351,12.6351,0,0,1,575.5962,584.8787Z"/><path class="cls-3" d="M593.5757,584.1951v-26.34h4.3105v7.4131l-1.2617-.7891a8.9436,8.9436,0,0,1,3.5225-4.8359,9.9105,9.9105,0,0,1,5.7832-1.7881h2.6816v4.2061h-3.3652a6.8241,6.8241,0,0,0-3.7588,1.0254,7.0963,7.0963,0,0,0-2.5234,2.8388,9.2391,9.2391,0,0,0-.92,4.2324v14.0371Z"/><path class="cls-3" d="M612.5542,553.7547l3.8379-7.623h5.8359v.42l-5.2578,7.2031Zm.1055,30.44v-26.34h4.4687v26.34Z"/><path class="cls-3" d="M632.6372,584.8787a10.8394,10.8394,0,0,1-4.8633-1.0517,8.2012,8.2012,0,0,1-3.3379-2.918,7.6887,7.6887,0,0,1-1.21-4.2842,7.0758,7.0758,0,0,1,2.498-5.6259,11.8123,11.8123,0,0,1,6.9131-2.5235l10.1465-.7363v3.9961l-9.2529.7363a8.2882,8.2882,0,0,0-4.2842,1.2354,3.3522,3.3522,0,0,0-1.3936,2.8652,3.5383,3.5383,0,0,0,1.4717,2.8916A5.9416,5.9416,0,0,0,633.11,580.62a8.5859,8.5859,0,0,0,4.3115-1.1036,8.4169,8.4169,0,0,0,3.0752-2.9443,7.676,7.676,0,0,0,1.1308-4.1006v-4.2588a6.8535,6.8535,0,0,0-1.8662-4.9424,6.5726,6.5726,0,0,0-4.9687-1.9453,7.1923,7.1923,0,0,0-4.1533,1.1836,5.8924,5.8924,0,0,0-2.3653,3.2852h-.5791l-3.8906-1.2617a10.2179,10.2179,0,0,1,4.0488-5.4678,12.24,12.24,0,0,1,6.9922-1.9453q5.3628,0,8.28,3.207t2.918,9.043v14.8261h-4.2061v-7.6757l1.5772.8408a9.464,9.464,0,0,1-2.2344,3.8642,11.53,11.53,0,0,1-8.543,3.6543Z"/></g><g id="mapa"><g class="cls-4"><path class="cls-2" d="M566.1119,147.75c-2.6524-2.6946-3.9915-4.0562-6.6894-6.8039-.2,3.1835-.3363,4.8046-.6783,8.1024-5.2557-2.3543-7.9166-3.5477-13.2944-5.9545-.4226-1.9082-.6408-2.8593-1.09-4.7549-2.0209-.3025-3.0377-.4506-5.0836-.74-.6056-3.4715-.9309-5.1945-1.6254-8.6128-7.1517-1.76-10.7966-2.6117-18.2067-4.2453-2.191,1.6627-3.3119,2.52-5.6009,4.2834-4.0012-.0434-6.0259-.0468-10.12-.0179-2.0035-.4141-3.0091-.6192-5.0274-1.0254-.6,2.8489-.9155,4.2886-1.5759,7.1966-2.3018,1.6817-3.47,2.54-5.8392,4.2906-1.0952,2.8612-1.6587,4.3081-2.815,7.2323-3.131,1.3728-4.7145,2.0763-7.9144,3.5142-2.1959,5.0513-3.3363,7.6216-5.6871,12.84,1.6676,6.0493,2.48,9.0843,4.0483,15.1657-.5822,3.572-.8851,5.3688-1.5131,8.9828-1.9784,1.5305-2.9736,2.3021-4.9746,3.8573,1.5258,3.8425,2.278,5.7633,3.756,9.6,4.7307,3.592,7.0711,5.3682,11.6859,8.8373,3.4573,4.7074,5.155,7.0232,8.471,11.5643,3.3159-.3348,4.9644-.5026,8.2414-.8378,1.719-.3674,2.5758-.55,4.2839-.9151,3.9435-1.0589,5.9008-1.5833,9.7838-2.6189,3.19.2192,4.7739.3251,7.9185.5292,1.3042-.4209,1.9546-.63,3.2511-1.0472,4.9374,3.5475,7.3526,5.2616,12.053,8.549-1.9394,5.4709-2.96,8.214-5.0815,13.706,4.3663,6.0008,6.4267,8.8682,10.2445,14.29-.95,5.0933-1.4747,7.6193-2.6164,12.6235-2.1439,2.4625-3.2227,3.7009-5.3911,6.19-.0046,3.8886-.0448,5.8029-.2027,9.5672.7552,2.0642,1.112,3.0761,1.782,5.0571-.3143,2.7724-.4926,4.1417-.8918,6.8454-.5229,2.7393-.8045,4.0932-1.4077,6.7684a107.8471,107.8471,0,0,1-1.6406,15.2288c9.7941-5.172,14.572-7.8472,23.8234-13.2945,25.5005-48.3042,31.8548-98.6054,19.4952-151.861-.7108.4171-1.07.6295-1.7956,1.062C573.4349,149.6293,571.0187,148.9976,566.1119,147.75ZM383.0279,6.6723c-.7567-.995-1.1313-1.4892-1.8724-2.47-2.7868,1.5687-4.1945,2.3791-7.0357,4.0458,1.05.6187,1.579.9323,2.6453,1.5676C379.2879,8.521,380.5408,7.8916,383.0279,6.6723ZM487.8564,83.2685c2.492-.1783,3.7236-.2527,6.1565-.3708.6508-2.4183.9548-3.6058,1.5175-5.9356-1.6667-.7008-2.5021-1.0487-4.1768-1.7391-1.83,1.2824-2.7708,1.949-4.7,3.33C487.1414,80.4311,487.382,81.3742,487.8564,83.2685ZM468.5039,46.792c-2.4442-1.231-3.6679-1.8392-6.1173-3.039,1.2954,2.0257,1.9459,3.0415,3.251,5.0782,1.1506.1052,1.7233.1612,2.8631.28.5473,1.5158.82,2.2763,1.3632,3.8026,3.0774-.2727,4.5873-.3774,7.5464-.521.5782-1.3924.8556-2.077,1.3863-3.4219-2.92-.9962-4.3906-1.4778-7.3532-2.4064C470.2772,46.6448,469.6892,46.69,468.5039,46.792ZM501.42,81.817c-1.1469.9789-1.7331,1.4812-2.93,2.51,1.1018,1.4841,1.6529,2.2262,2.755,3.71-1.1628.4749-1.7506.719-2.9392,1.22,4.8737.3625,7.2669.5875,11.9588,1.1276-3.0348-4.5688-4.5592-6.8532-7.6091-11.4136-1.2426-1.5061-1.8635-2.2594-3.104-3.7661,1.339.2771,2.005.4192,3.3307.71-.5233-1.1621-.7861-1.7419-1.3136-2.8993-1.6247-.2238-2.4437-.3288-4.0946-.5252-.7158-1.4694-1.0749-2.2025-1.7951-3.6655-.6057,1.3481-.9212,2.0349-1.5765,3.4327,1.588,2.1608,2.3831,3.242,3.9742,5.4048C499.4124,79.3247,500.0812,80.1556,501.42,81.817Zm42.578-4.1766c-.4884-.429-.7327-.6435-1.2213-1.0729-1.7444-1.24-2.6282-1.8493-4.4184-3.0481-1.103-1.2245-1.6552-1.837-2.76-3.0623-3.9182-3.0345-5.9023-4.5327-9.9143-7.4818-1.199-.3392-1.8175-.49-3.0914-.7532a63.0077,63.0077,0,0,0-9.3017,4.7786c-2.1865-.7995-3.2914-1.1871-5.5236-1.9377,1.2624,3.273,1.8746,4.93,3.0593,8.2829,2.7455,1.573,4.114,2.3646,6.8408,3.956.3161-.7424.4685-1.1078.7616-1.8271,2.855,2.8953,4.2854,4.3394,7.1476,7.2166.6946,2.5153,1.0227,3.7906,1.6407,6.3754-1.3178-.5129-1.9794-.767-3.3081-1.2707-.5779-2.3687-.8815-3.54-1.5178-5.8551-1.7325-.6159-2.6045-.9185-4.36-1.5127,1.3352,3.06,1.99,4.6011,3.2708,7.7062-2.2317.0955-3.3684.1639-5.6822.34-.1026,1.6667-.1647,2.51-.31,4.2184-2.9479.2559-4.452.4136-7.5174.7849-3.2371-.3041-4.8765-.4363-8.1952-.6618,2.61,2.36,3.9164,3.5379,6.5281,5.889.7375,2.3854,1.1,3.5834,1.813,5.9892-.667.457-1.003.688-1.68,1.1552-.6663,1.14-1.0058,1.7166-1.6969,2.8818-2.3171-1.4608-3.4775-2.192-5.8-3.6547-3.4483-.4336-5.188-.6367-8.6971-1.0155,1.4943,3.6349,2.2351,5.4586,3.7007,9.116-1.4713,2.4192-2.2287,3.651-3.7837,6.1556.6631,1.2608.9941,1.8915,1.6546,3.153,7.6589.9165,11.4313,1.4188,18.8449,2.5055,1.9261-1.0348,2.8763-1.5393,4.75-2.5213.26-2.5652.3755-3.8345.5766-6.3452,2.011.6568,3.0128.9869,5.0087,1.6505.1329-2.6861.1822-4.0136.2452-6.6361,1.7724.6545,2.6557.9831,4.4163,1.6429,2.3907-.5265,3.5668-.771,5.8779-1.2206,1.804,2.4728,2.7025,3.7069,4.49,6.1688,3.2205,2.4393,4.8259,3.6515,8.0224,6.0569.6909,1.926,1.03,2.8919,1.6945,4.8291.9749.0327,1.46.0509,2.4264.09-.3073-1.6535-.4675-2.476-.8009-4.1122,1.0882.328,1.6306.4928,2.7119.8237-1.4046-1.475-2.109-2.2153-3.5211-3.701-1.2262-.4341-1.8412-.65-3.0752-1.0819-2.2868-2.3122-3.4344-3.475-5.7351-5.8113-.6121-1.5369-.9219-2.3036-1.5483-3.8334,1.3937.6176,2.0885.9269,3.4743,1.5465,2.6173,2.42,3.9231,3.623,6.5255,6.0134,1.7524.7094,2.6251,1.0652,4.3625,1.7785.9018,2.6971,1.3367,4.0548,2.173,6.7873,2.9292,3.7872,4.3794,5.6695,7.24,9.4047,1.5974.72,2.3931,1.08,3.9784,1.7968-.3064-2.6418-.4819-3.9477-.8775-6.5281-.874-1.5806-1.3155-2.3709-2.2069-3.9516,1.5515.708,2.3243,1.0619,3.8637,1.7691,3.0277,3.7479,4.5245,5.6076,7.4716,9.2919,2.1735.858,3.2532,1.2869,5.3979,2.1441a241.482,241.482,0,0,0-27.5571-55.51c-.4812-.28-.7228-.4191-1.2081-.6956-1.0658-1.39-1.6031-2.0817-2.6861-3.4606.651.3964.9746.5962,1.6182.9989C546.18,80.46,545.4611,79.5127,543.9975,77.64ZM388.3891,8.1354c-3.9037,1.31-5.902,2.0119-9.89,3.4993,3.5527.7223,5.3635,1.1186,8.98,1.9783,1.3257-.8865,1.9823-1.3238,3.2827-2.1862,2.167-.19,3.245-.2719,5.3893-.4116,1.3109-1.8007,1.9533-2.6894,3.2109-4.442,1.9008.4444,2.8512.6764,4.7515,1.1593,4.3687-.4972,6.5191-.688,10.7459-.9513-.0429-1.6383-.0665-2.4523-.1179-4.0695-4.1488.8434-6.2759,1.3338-10.6275,2.444-1.6822-.7827-2.5207-1.1665-4.1923-1.918-3.2793-.3927-4.9254-.5584-8.2287-.8255-2.9137.3009-4.385.4771-7.3433.8806,2.8055.553,4.2135.8532,7.028,1.4979C390.2,6.1132,389.6019,6.7823,388.3891,8.1354Zm72.1168,25.3412c1.4144,1.0636,2.1231,1.5977,3.5433,2.67-1.4026-2.5-2.1016-3.744-3.4933-6.221,2.81.7309,4.2026,1.1178,6.96,1.9333.57-2.2426.8262-3.334,1.2764-5.454-.7459-1.5024-1.1192-2.2506-1.866-3.7411,1.7972.22,2.6822.3466,4.4244.6327-3.3452-3.0728-5.0047-4.6-8.2921-7.6256-3.032-.6075-4.5839-.8651-7.7556-1.2892-5.16-2.0592-7.7746-3.013-13.0607-4.755-2.6123.8579-3.962,1.3335-6.7438,2.3719-2.5182-1.4093-3.7742-2.1009-6.2788-3.4549-2.7937.527-4.2194.8252-7.1255,1.4883-.494-.4693-.74-.7034-1.2322-1.17-2.4794.1272-3.7328.2116-6.2655.4217-3.9148.26-5.9027.439-9.9352.8924,4.2039,1.9647,6.3218,2.9934,10.5829,5.1283.6407,1.1191.963,1.6806,1.611,2.8076-.9341,1.8068-1.4133,2.722-2.3947,4.5747,3.1227.4292,4.6772.6662,7.7707,1.183-.187,2.2346-.2871,3.362-.5,5.6361-.907,1.6092-1.37,2.4231-2.3149,4.0685-2.0212.3538-3.04.5411-5.0932.9362,1.0291,3.7258,1.5491,5.6066,2.5973,9.4009,1.3446.3825,2.0166.5767,3.36.9705.0964,1.9825.1427,2.979.2316,4.9824,3.4494.5923,5.1683.9074,8.5928,1.5731,3.9527-5.1107,5.8234-7.5675,9.3174-12.2445,1.54,1.5665,2.3133,2.3533,3.8679,3.9328.5881-2.0923.8707-3.1263,1.4122-5.1688,2.04.5609,3.0568.8491,5.0847,1.44,1.7007-1.5218,2.5282-2.2609,4.1353-3.6923,2.9858,1.3386,4.4769,2.0227,7.4534,3.417C460.4532,36.8338,460.48,35.7046,460.5059,33.4766Zm-136.5379.1226c1.3351-.523,2.0032-.7815,3.34-1.2918,4.58-1.0213,6.8907-1.4877,11.5489-2.3268-.1132-2.9644-.1586-4.43-.2264-7.3249-2.7378,1.1238-4.1069,1.7009-6.8446,2.8825-.6632-1.5712-.9847-2.3467-1.6064-3.8764-.9906,1.1331-1.4882,1.7015-2.4876,2.8415-1.4425-.2031-2.157-.2968-3.5722-.4678-4.9963,2.36-7.4937,3.5881-12.4782,6.1256,2.6123-.045,3.94-.0417,6.6345.015C320.4847,31.4776,321.6238,32.1632,323.968,33.5992ZM364.6546,7.234c-2.1931.4614-3.2883.7051-5.4757,1.2174,1.6495.6624,2.4841,1.0045,4.1724,1.71C363.8762,8.9856,364.137,8.4,364.6546,7.234Zm-4.3284,13.4491c2.1031-.6029,3.1547-.8947,5.2574-1.4582-.0144-.8174-.0212-1.2249-.0342-2.0378-2.4069.5206-3.6093.7948-6.0115,1.3688C359.85,19.4031,360.0074,19.8285,360.3262,20.6831Zm62.3306,234.2551c-3.3809-1.8065-5.0845-2.7209-8.5147-4.5682-5.2915-.58-7.9546-.883-13.3113-1.5105-2.3855-2.46-3.5861-3.6977-6-6.1841-3.413-1.1187-5.1271-1.6831-8.5689-2.82-1.4392-6.6057-2.1677-9.9333-3.6228-16.6273-7.4832-4.043-11.2151-6.084-18.6273-10.162-2.7731-4.2972-4.1564-6.4513-6.906-10.763-8.3584-.3505-12.5054-.5252-20.72-.869-3.134-2.3075-4.6939-3.4543-7.7952-5.73-4.837,2.08-7.2414,3.1157-12.0151,5.1682-1.2757,3.3008-1.9069,4.9491-3.1536,8.2184-2.2309-1.935-3.3417-2.9-5.552-4.8226-1.7832,1.1242-2.6718,1.6834-4.4424,2.7952-2.8286-1.2476-4.2366-1.8682-7.0386-3.1008,1.0207-6.9107,1.5687-10.3824,2.7261-17.2655-1.5382-1.0816-2.3043-1.6191-3.83-2.6875-2.2937,1.037-3.4367,1.5535-5.714,2.5817-.6723-2.2858-1.0034-3.4235-1.6549-5.6881,1.553-4.3876,2.3451-6.5816,3.9531-10.9656-2.4952-1.4154-3.7338-2.1142-6.1913-3.4927-1.3678,3.1587-2.0451,4.738-3.3833,7.8947-3.2767,1.0874-4.9072,1.6288-8.1506,2.7046-2.24-1.5082-3.3518-2.253-5.5552-3.7225-.1863-6.273-.2356-9.3806-.2463-15.53,4.1271-5.4256,6.2181-8.1579,10.4267-13.6406,3.375-.6006,5.0717-.8976,8.4823-1.4835.7278-1.6132,1.0932-2.42,1.8261-4.0317,4.9149.2022,7.3979.3223,12.4106.5981,2.2043,1.53,3.3173,2.3054,5.5633,3.876-1.5287,3.2956-2.29,4.9457-3.8028,8.2482,1.062,2.9474,1.6037,4.4327,2.7065,7.4251,1.2557-2.662,1.8868-3.9926,3.1536-6.6513.685-5.443,1.0442-8.15,1.7915-13.5276,9.1317-5.7968,13.7263-8.7056,22.9-14.4457.0725-5.3641.1219-8.0245.2469-13.2976,2.3363-.0448,3.5085-.0628,5.86-.09,2.388-2.57,3.579-3.8506,5.9521-6.4014,3.4123-.9192,5.1215-1.3708,8.5444-2.2557.2907-2.127.4365-3.187.7285-5.3,4.4529-1.6667,6.68-2.4849,11.13-4.0828.251,2.0925.3784,3.143.6368,5.252,5.6335-2.1563,8.4485-3.2084,14.0654-5.2429-3.4183-1.35-5.1137-2.0118-8.4746-3.3064,1.076-2.7438,1.61-4.1088,2.6691-6.8236,2.0333.0695,3.0525.1088,5.0957.1966,1.6536-2.6092,2.4736-3.9053,4.0976-6.4776,1.9266-.2071,2.8888-.3062,4.8059-.4954.52,1.9565.7818,2.9388,1.3091,4.9111-2.1363-.0221-3.2067-.0281-5.3517-.03-.4061,3.6239-.6126,5.4488-1.03,9.1224,3.8327.6258,5.7521.9542,9.5787,1.6387,2.7055,1.72,4.0631,2.5888,6.7858,4.3417-.5535-6.346-.8311-9.4861-1.3839-15.6921.5772-5.3509.8546-7.9978,1.3832-13.2281-3.03-2.7257-4.5326-4.0731-7.5074-6.73-1.9205-3.8368-2.866-5.736-4.7214-9.4906-3.5572-.2287-5.3486-.3228-8.892-.47-1.6934-2.5309-2.5258-3.7834-4.1594-6.26-4.6322,1.19-6.9512,1.8228-11.59,3.1554-2.7184,3.9349-4.1007,5.927-6.9019,9.95-.1753,2.8616-.261,4.3019-.4281,7.2008-2.6121,1.9588-3.9252,2.9479-6.5629,4.9418-2.0075,4.0447-3.0221,6.0827-5.0666,10.1845-2.4907-2.0383-3.7167-3.04-6.1268-5.0039,2.1539-2.79,3.2245-4.1781,5.35-6.939-5.9528-.3574-8.89-.4821-14.6778-.62-1.5664-3.9515-2.3145-5.8908-3.7328-9.6892,2.84-1.2777,4.26-1.9077,7.0992-3.1474,2.01-3.1957,3.0063-4.7848,4.98-7.9419,2.8285-.0136,4.2536-.0044,7.1243.0462,3.3226-2.6448,4.9711-3.9519,8.2374-6.5269.2437,2.4243.3714,3.6461.6378,6.1079,4.3769-1.0528,6.57-1.5492,10.9631-2.4757-.2929-1.5217-.437-2.279-.72-3.7863,1.7033-1.06,2.5519-1.5843,4.2423-2.6219.7892-3.3688,1.1788-5.0386,1.9463-8.347,2.9776-.6164,4.4675-.9067,7.4483-1.4491.3881,2.8886.5878,4.346.9974,7.2852-3.4377,2.0647-5.1729,3.1249-8.6706,5.2917,3.2278.0483,4.8505.0918,8.1123.2183,3.6826,2.715,5.5777,4.1111,9.4064,6.9683,1.5043-3.5045,2.2395-5.2378,3.6717-8.6622,1.1336,1.1713,1.7038,1.7609,2.8505,2.9473,2.0757-3.1259,3.0889-4.6665,5.0607-7.6974-2.4418.2683-3.67.4149-6.14.7331.9484-2.8258,1.4118-4.2253,2.3151-6.9952-1.7724-2.304-2.6472-3.4439-4.3717-5.6965-7.9049-1.0022-11.9014-1.36-19.6367-1.7811-3.5966,2.5659-5.4193,3.8841-9.1065,6.5781,1.2317,1.1912,1.8559,1.7944,3.12,3.0148-1.4827,2.6151-2.2341,3.934-3.7548,6.5918-1.3278-1.7882-1.98-2.672-3.26-4.4166-.1727-3.516-.25-5.2547-.3856-8.6909-2.4444,1.5177-3.6739,2.2894-6.1457,3.8556-.9344,3.2893-1.4056,4.9486-2.3542,8.2947-6.2095-.1148-9.2641-.0873-15.26.1388-1.455-.3754-2.1763-.5561-3.6058-.9031-3.76,1.7663-5.6421,2.6727-9.4072,4.5249-3.7714-1.0932-5.6044-1.5841-9.1572-2.4445-2.5807,1.5112-3.8726,2.2759-6.4581,3.821-4.0729.2688-6.0676.4551-9.9676.9343-1.9164,1.4059-2.8764,2.1122-4.7992,3.53-3.7556,1.23-5.6112,1.8774-9.2741,3.2362-2.0851-.8087-3.0855-1.17-4.997-1.8033q-15.8664,9.0169-30.9974,19.2524c-1.7856,2.3614-2.6752,3.5453-4.4456,5.918-1.4268.7366-2.1344,1.1105-3.5379,1.8693-2.3208,1.8476-3.48,2.7715-5.7932,4.6181.8723.0679,1.3242.1177,2.2589.2478-3.1668,2.1753-4.74,3.27-7.8655,5.4675-4.0149,3.4287-6.0211,5.134-10.0226,8.5167-.7319,1.4026-1.0866,2.1134-1.7733,3.5537,1.3934-.3842,2.1044-.5629,3.5543-.8942-3.3787,3.0412-5.0663,4.5507-8.4321,7.5414,3.7921-2.5049,5.7054-3.7577,9.5617-6.2576,8.01-6.175,12.05-9.3079,20.1421-15.5871-3.6444,4.0018-5.4683,5.9948-9.1077,9.9562,4.7913-3.3726,7.2-5.0641,12.0329-8.442,3.43-1.4374,5.1683-2.136,8.6877-3.4907.31,2.436.5056,3.6933.971,6.2821-2.3281,5.09-3.4627,7.6607-5.6619,12.8456,1.103.85,1.6669,1.288,2.8188,2.1877-2.476,1.5622-3.7117,2.3428-6.177,3.9011-1.0417,3.5522-1.54,5.3454-2.491,8.9632-2.1254,1.6767-3.1865,2.5123-5.304,4.1759-3.7333,8.3666-5.516,12.5844-8.8541,21.0545,1.622,1.948,2.4593,2.9491,4.1824,5.0025-1.3454,2.7157-2.0091,4.0726-3.3156,6.7831,1.17,1.9995,1.7722,3.0169,3.0088,5.0848-.2411,3.0792-.3441,4.629-.5148,7.7475,2.331,2.4941,3.5267,3.7737,5.9721,6.3924.4629,2.2853.7049,3.4366,1.2093,5.7559,1.3034-1.258,1.9582-1.89,3.2733-3.1591-1.53-3.3375-2.2686-4.98-3.69-8.21-1.2884-5.4491-1.87-8.1188-2.8933-13.3368,3.7343,3.7562,5.6857,5.7234,9.7308,9.8123.0773,1.06.118,1.5921.2031,2.6583,1.5827,2.01,2.3885,3.0311,4.0263,5.1015-.3855,3.706-.56,5.5675-.87,9.306,2.005,3.3166,3.0341,5.0033,5.1389,8.4285,5.2658,1.6783,7.9374,2.5482,13.3484,4.3388,2.81-1.5394,4.2245-2.316,7.0682-3.88,1.0028,3.5986,1.52,5.4129,2.5841,9.0689,3.9236.1723,5.8993.2611,9.8765.443,2.5264,2.4932,3.8016,3.7541,6.3722,6.3005-.0021,2.1056,0,3.16.0123,5.26,4.0326,3.4482,6.071,5.1885,10.1793,8.69,1.2278-1.427,1.8447-2.1441,3.084-3.5849,2.7121-.4208,4.0738-.6333,6.8078-1.0624-.2711,5.5151-.3883,8.2577-.5858,13.708-1.9383,2.52-2.8992,3.77-4.8016,6.2486.1149,3.8586.182,5.78.335,9.6061-2.3621.4539-3.538.6774-5.8791,1.1168.2142,7.0465.357,10.5408.711,17.4608,1.92,1.503,2.8815,2.2556,4.8064,3.7616q8.1653,14.0417,16.3988,28.0418c2.4334.4,3.6536.5963,6.1.9806,3.3463,3.1744,5.0165,4.7577,8.3439,7.9083,1.76,17.406,3.6619,34.794,5.9909,52.1343,3.8685,6.7373,5.7679,10.0635,9.4636,16.6.7616,5.3871,1.1468,8.0425,1.9234,13.27,4.6848,6.1391,6.9613,9.147,11.3439,14.99,1.94.6135,2.9088.9106,4.8449,1.4841,1.492,1.5119,2.2307,2.26,3.6928,3.7386,3.581,1.0694,5.3669,1.5678,8.9265,2.4846-1.8392-2.2913-2.7766-3.4562-4.684-5.8211-.2779-.9831-.4179-1.4767-.7-2.4668-1.845-2.4705-2.7842-3.7236-4.6928-6.261-.4226-3.9073-.6362-5.8854-1.067-9.8881-.6084-1.8816-.9158-2.8278-1.5363-4.7305-1.3228-3.6224-1.9969-5.4533-3.3664-9.15,2.6583-1.7557,4.0109-2.6556,6.76-4.495,2.7854-.5824,4.189-.8885,7.0168-1.53.5218-3.8779.79-5.8368,1.3413-9.792,1.5469-.2835,2.3238-.4292,3.88-.7281,3.6027-6.1506,5.4606-9.2924,9.2575-15.676,1.2895-5.3169,1.9467-8.0052,3.2788-13.4348,3.5966-1.95,5.4019-2.94,9.0222-4.947,2.352-3.5244,3.5387-5.3,5.9274-8.8706,1.1017-4.6759,1.6553-7.0311,2.7634-11.772-.8521-4.9855-1.2932-7.5024-2.2009-12.5791,3.96-5.6566,5.9548-8.5082,9.9505-14.2359C422.9384,262.592,422.8505,260.0515,422.6568,254.9382ZM313.3771,87.6128c4.5741-1.2995,6.8716-1.9322,11.4835-3.1581,1.7722,2.8649,2.6816,4.32,4.5427,7.2731,2.2163.9,3.3342,1.3588,5.5885,2.295-1.6769,2.0827-2.5181,3.127-4.2046,5.22-3.4515,2.8878-5.183,4.3393-8.6519,7.25.6676-3.6958,1.0063-5.534,1.6923-9.1888-3.8278,3.2154-5.7485,4.8313-9.5955,8.0694-1.8156-1.2913-2.714-1.9279-4.4907-3.1815,5.8153-3.8316,8.7225-5.74,14.5172-9.5146-2.8846.8356-4.324,1.26-7.196,2.12-.2933-.5117-.4393-.7669-.73-1.2759-3.3777.0219-5.0547.0464-8.3834.1228C310.1258,91.228,311.2119,90.0212,313.3771,87.6128Zm21.709-72.5221c-3.0715,1.5793-4.6107,2.389-7.6937,4.0436,2.0653-.069,3.1087-.0887,5.2159-.0987C333.6056,17.4514,334.1013,16.6623,335.0861,15.0907Zm13.9712-.07c-5.1537,1.2469-7.7176,1.9361-12.8119,3.4339,4.2779.3558,6.4664.5982,10.9348,1.2063C347.9362,17.7954,348.3118,16.8672,349.0573,15.0209Zm13.541-1.1261c-2.4639.0914-3.6894.153-6.1268.3076.5165,1.0664.7787,1.6034,1.3107,2.6851C359.7184,15.6731,360.6818,15.0742,362.5983,13.8948Zm-12.27,11.1071c2.3737-2.532,3.5474-3.7854,5.8649-6.2621-1.59.111-2.3823.1728-3.9615.3089-1.6542,1.4133-2.4867,2.1263-4.1617,3.5633C348.961,23.557,349.4127,24.035,350.3278,25.0019Z"/></g></g><g id="bolitas"><g class="cls-4"><circle class="cls-5" cx="594.8441" cy="20.4477" r="5.7022"/><circle class="cls-5" cx="577.4654" cy="20.4477" r="5.3868"/><circle class="cls-5" cx="560.0867" cy="20.4477" r="5.0714"/><circle class="cls-5" cx="542.708" cy="20.4477" r="4.7559"/><circle class="cls-5" cx="525.3293" cy="20.4477" r="4.4405"/><circle class="cls-5" cx="507.9507" cy="20.4477" r="4.1251"/><circle class="cls-5" cx="490.572" cy="20.4477" r="3.8097"/><circle class="cls-5" cx="473.1933" cy="20.4477" r="3.4943"/><circle class="cls-5" cx="455.8146" cy="20.4477" r="3.1788"/><circle class="cls-5" cx="438.4359" cy="20.4477" r="2.8634"/><circle class="cls-5" cx="421.0572" cy="20.4477" r="2.548"/><circle class="cls-5" cx="403.6785" cy="20.4477" r="2.2326"/><circle class="cls-5" cx="386.2999" cy="20.4477" r="1.9172"/><circle class="cls-5" cx="368.9212" cy="20.4477" r="1.6017"/><circle class="cls-5" cx="351.5425" cy="20.4477" r="1.2863"/><circle class="cls-5" cx="594.8441" cy="37.5905" r="5.7022"/><circle class="cls-5" cx="577.4654" cy="37.5905" r="5.3868"/><circle class="cls-5" cx="560.0867" cy="37.5905" r="5.0714"/><circle class="cls-5" cx="542.708" cy="37.5905" r="4.7559"/><circle class="cls-5" cx="525.3293" cy="37.5905" r="4.4405"/><circle class="cls-5" cx="507.9507" cy="37.5905" r="4.1251"/><circle class="cls-5" cx="490.572" cy="37.5905" r="3.8097"/><circle class="cls-5" cx="473.1933" cy="37.5905" r="3.4943"/><circle class="cls-5" cx="455.8146" cy="37.5905" r="3.1788"/><circle class="cls-5" cx="438.4359" cy="37.5905" r="2.8634"/><circle class="cls-5" cx="421.0572" cy="37.5905" r="2.548"/><circle class="cls-5" cx="403.6785" cy="37.5905" r="2.2326"/><circle class="cls-5" cx="386.2999" cy="37.5905" r="1.9172"/><circle class="cls-5" cx="368.9212" cy="37.5905" r="1.6017"/><circle class="cls-5" cx="351.5425" cy="37.5905" r="1.2863"/><circle class="cls-5" cx="594.8441" cy="3.2538" r="5.7022"/><circle class="cls-5" cx="577.4654" cy="3.2538" r="5.3868"/><circle class="cls-5" cx="560.0867" cy="3.2538" r="5.0714"/><circle class="cls-5" cx="542.708" cy="3.2538" r="4.7559"/><circle class="cls-5" cx="525.3293" cy="3.2538" r="4.4405"/><circle class="cls-5" cx="507.9507" cy="3.2538" r="4.1251"/><circle class="cls-5" cx="490.572" cy="3.2538" r="3.8097"/><circle class="cls-5" cx="473.1933" cy="3.2538" r="3.4943"/><circle class="cls-5" cx="455.8146" cy="3.2538" r="3.1788"/><circle class="cls-5" cx="438.4359" cy="3.2538" r="2.8634"/><circle class="cls-5" cx="421.0572" cy="3.2538" r="2.548"/><circle class="cls-5" cx="403.6785" cy="3.2538" r="2.2326"/><circle class="cls-5" cx="386.2999" cy="3.2538" r="1.9172"/><circle class="cls-5" cx="368.9212" cy="3.2538" r="1.6017"/><circle class="cls-5" cx="351.5425" cy="3.2538" r="1.2863"/><circle class="cls-5" cx="594.8441" cy="54.7334" r="5.7022"/><circle class="cls-5" cx="577.4654" cy="54.7334" r="5.3868"/><circle class="cls-5" cx="560.0867" cy="54.7334" r="5.0714"/><circle class="cls-5" cx="542.708" cy="54.7334" r="4.7559"/><circle class="cls-5" cx="525.3293" cy="54.7334" r="4.4405"/><circle class="cls-5" cx="507.9507" cy="54.7334" r="4.1251"/><circle class="cls-5" cx="490.572" cy="54.7334" r="3.8097"/><circle class="cls-5" cx="473.1933" cy="54.7334" r="3.4943"/><circle class="cls-5" cx="455.8146" cy="54.7334" r="3.1788"/><circle class="cls-5" cx="438.4359" cy="54.7334" r="2.8634"/><circle class="cls-5" cx="421.0572" cy="54.7334" r="2.548"/><circle class="cls-5" cx="403.6785" cy="54.7334" r="2.2326"/><circle class="cls-5" cx="386.2999" cy="54.7334" r="1.9172"/><circle class="cls-5" cx="368.9212" cy="54.7334" r="1.6017"/><circle class="cls-5" cx="351.5425" cy="54.7334" r="1.2863"/><circle class="cls-5" cx="594.8441" cy="71.8762" r="5.7022"/><circle class="cls-5" cx="577.4654" cy="71.8762" r="5.3868"/><circle class="cls-5" cx="560.0867" cy="71.8762" r="5.0714"/><circle class="cls-5" cx="542.708" cy="71.8762" r="4.7559"/><circle class="cls-5" cx="525.3293" cy="71.8762" r="4.4405"/><circle class="cls-5" cx="507.9507" cy="71.8762" r="4.1251"/><circle class="cls-5" cx="490.572" cy="71.8762" r="3.8097"/><circle class="cls-5" cx="473.1933" cy="71.8762" r="3.4943"/><circle class="cls-5" cx="455.8146" cy="71.8762" r="3.1788"/><circle class="cls-5" cx="438.4359" cy="71.8762" r="2.8634"/><circle class="cls-5" cx="421.0572" cy="71.8762" r="2.548"/><circle class="cls-5" cx="403.6785" cy="71.8762" r="2.2326"/><circle class="cls-5" cx="386.2999" cy="71.8762" r="1.9172"/><circle class="cls-5" cx="368.9212" cy="71.8762" r="1.6017"/><circle class="cls-5" cx="351.5425" cy="71.8762" r="1.2863"/><circle class="cls-5" cx="594.8441" cy="89.0191" r="5.7022"/><circle class="cls-5" cx="577.4654" cy="89.0191" r="5.3868"/><circle class="cls-5" cx="560.0867" cy="89.0191" r="5.0714"/><circle class="cls-5" cx="542.708" cy="89.0191" r="4.7559"/><circle class="cls-5" cx="525.3293" cy="89.0191" r="4.4405"/><circle class="cls-5" cx="507.9507" cy="89.0191" r="4.1251"/><circle class="cls-5" cx="490.572" cy="89.0191" r="3.8097"/><circle class="cls-5" cx="473.1933" cy="89.0191" r="3.4943"/><circle class="cls-5" cx="455.8146" cy="89.0191" r="3.1788"/><circle class="cls-5" cx="438.4359" cy="89.0191" r="2.8634"/><circle class="cls-5" cx="421.0572" cy="89.0191" r="2.548"/><circle class="cls-5" cx="403.6785" cy="89.0191" r="2.2326"/><circle class="cls-5" cx="386.2999" cy="89.0191" r="1.9172"/><circle class="cls-5" cx="368.9212" cy="89.0191" r="1.6017"/><circle class="cls-5" cx="351.5425" cy="89.0191" r="1.2863"/><circle class="cls-5" cx="594.8441" cy="106.162" r="5.7022"/><circle class="cls-5" cx="577.4654" cy="106.162" r="5.3868"/><circle class="cls-5" cx="560.0867" cy="106.162" r="5.0714"/><circle class="cls-5" cx="542.708" cy="106.162" r="4.7559"/><circle class="cls-5" cx="525.3293" cy="106.162" r="4.4405"/><circle class="cls-5" cx="507.9507" cy="106.162" r="4.1251"/><circle class="cls-5" cx="490.572" cy="106.162" r="3.8097"/><circle class="cls-5" cx="473.1933" cy="106.162" r="3.4943"/><circle class="cls-5" cx="455.8146" cy="106.162" r="3.1788"/><circle class="cls-5" cx="438.4359" cy="106.162" r="2.8634"/><circle class="cls-5" cx="421.0572" cy="106.162" r="2.548"/><circle class="cls-5" cx="403.6785" cy="106.162" r="2.2326"/><circle class="cls-5" cx="386.2999" cy="106.162" r="1.9172"/><circle class="cls-5" cx="368.9212" cy="106.162" r="1.6017"/><circle class="cls-5" cx="351.5425" cy="106.162" r="1.2863"/><circle class="cls-5" cx="594.8441" cy="123.3048" r="5.7022"/><circle class="cls-5" cx="577.4654" cy="123.3048" r="5.3868"/><circle class="cls-5" cx="560.0867" cy="123.3048" r="5.0714"/><circle class="cls-5" cx="542.708" cy="123.3048" r="4.7559"/><circle class="cls-5" cx="525.3293" cy="123.3048" r="4.4405"/><circle class="cls-5" cx="507.9507" cy="123.3048" r="4.1251"/><circle class="cls-5" cx="490.572" cy="123.3048" r="3.8097"/><circle class="cls-5" cx="473.1933" cy="123.3048" r="3.4943"/><circle class="cls-5" cx="455.8146" cy="123.3048" r="3.1788"/><circle class="cls-5" cx="438.4359" cy="123.3048" r="2.8634"/><circle class="cls-5" cx="421.0572" cy="123.3048" r="2.548"/><circle class="cls-5" cx="403.6785" cy="123.3048" r="2.2326"/><circle class="cls-5" cx="386.2999" cy="123.3048" r="1.9172"/><circle class="cls-5" cx="368.9212" cy="123.3048" r="1.6017"/><circle class="cls-5" cx="351.5425" cy="123.3048" r="1.2863"/><circle class="cls-5" cx="594.8441" cy="140.4477" r="5.7022"/><circle class="cls-5" cx="577.4654" cy="140.4477" r="5.3868"/><circle class="cls-5" cx="560.0867" cy="140.4477" r="5.0714"/><circle class="cls-5" cx="542.708" cy="140.4477" r="4.7559"/><circle class="cls-5" cx="525.3293" cy="140.4477" r="4.4405"/><circle class="cls-5" cx="507.9507" cy="140.4477" r="4.1251"/><circle class="cls-5" cx="490.572" cy="140.4477" r="3.8097"/><circle class="cls-5" cx="473.1933" cy="140.4477" r="3.4943"/><circle class="cls-5" cx="455.8146" cy="140.4477" r="3.1788"/><circle class="cls-5" cx="438.4359" cy="140.4477" r="2.8634"/><circle class="cls-5" cx="421.0572" cy="140.4477" r="2.548"/><circle class="cls-5" cx="403.6785" cy="140.4477" r="2.2326"/><circle class="cls-5" cx="386.2999" cy="140.4477" r="1.9172"/><circle class="cls-5" cx="368.9212" cy="140.4477" r="1.6017"/><circle class="cls-5" cx="351.5425" cy="140.4477" r="1.2863"/><circle class="cls-5" cx="594.8441" cy="157.5905" r="5.7022"/><circle class="cls-5" cx="577.4654" cy="157.5905" r="5.3868"/><circle class="cls-5" cx="560.0867" cy="157.5905" r="5.0714"/><circle class="cls-5" cx="542.708" cy="157.5905" r="4.7559"/><circle class="cls-5" cx="525.3293" cy="157.5905" r="4.4405"/><circle class="cls-5" cx="507.9507" cy="157.5905" r="4.1251"/><circle class="cls-5" cx="490.572" cy="157.5905" r="3.8097"/><circle class="cls-5" cx="473.1933" cy="157.5905" r="3.4943"/><circle class="cls-5" cx="455.8146" cy="157.5905" r="3.1788"/><circle class="cls-5" cx="438.4359" cy="157.5905" r="2.8634"/><circle class="cls-5" cx="421.0572" cy="157.5905" r="2.548"/><circle class="cls-5" cx="403.6785" cy="157.5905" r="2.2326"/><circle class="cls-5" cx="386.2999" cy="157.5905" r="1.9172"/><circle class="cls-5" cx="368.9212" cy="157.5905" r="1.6017"/><circle class="cls-5" cx="351.5425" cy="157.5905" r="1.2863"/><circle class="cls-5" cx="594.8441" cy="174.7334" r="5.7022"/><circle class="cls-5" cx="577.4654" cy="174.7334" r="5.3868"/><circle class="cls-5" cx="560.0867" cy="174.7334" r="5.0714"/><circle class="cls-5" cx="542.708" cy="174.7334" r="4.7559"/><circle class="cls-5" cx="525.3293" cy="174.7334" r="4.4405"/><circle class="cls-5" cx="507.9507" cy="174.7334" r="4.1251"/><circle class="cls-5" cx="490.572" cy="174.7334" r="3.8097"/><circle class="cls-5" cx="473.1933" cy="174.7334" r="3.4943"/><circle class="cls-5" cx="455.8146" cy="174.7334" r="3.1788"/><circle class="cls-5" cx="438.4359" cy="174.7334" r="2.8634"/><circle class="cls-5" cx="421.0572" cy="174.7334" r="2.548"/><circle class="cls-5" cx="403.6785" cy="174.7334" r="2.2326"/><circle class="cls-5" cx="386.2999" cy="174.7334" r="1.9172"/><circle class="cls-5" cx="368.9212" cy="174.7334" r="1.6017"/><circle class="cls-5" cx="351.5425" cy="174.7334" r="1.2863"/><circle class="cls-5" cx="594.8441" cy="191.8762" r="5.7022"/><circle class="cls-5" cx="577.4654" cy="191.8762" r="5.3868"/><circle class="cls-5" cx="560.0867" cy="191.8762" r="5.0714"/><circle class="cls-5" cx="542.708" cy="191.8762" r="4.7559"/><circle class="cls-5" cx="525.3293" cy="191.8762" r="4.4405"/><circle class="cls-5" cx="507.9507" cy="191.8762" r="4.1251"/><circle class="cls-5" cx="490.572" cy="191.8762" r="3.8097"/><circle class="cls-5" cx="473.1933" cy="191.8762" r="3.4943"/><circle class="cls-5" cx="455.8146" cy="191.8762" r="3.1788"/><circle class="cls-5" cx="438.4359" cy="191.8762" r="2.8634"/><circle class="cls-5" cx="421.0572" cy="191.8762" r="2.548"/><circle class="cls-5" cx="403.6785" cy="191.8762" r="2.2326"/><circle class="cls-5" cx="386.2999" cy="191.8762" r="1.9172"/><circle class="cls-5" cx="368.9212" cy="191.8762" r="1.6017"/><circle class="cls-5" cx="351.5425" cy="191.8762" r="1.2863"/><circle class="cls-5" cx="594.8441" cy="209.0191" r="5.7022"/><circle class="cls-5" cx="577.4654" cy="209.0191" r="5.3868"/><circle class="cls-5" cx="560.0867" cy="209.0191" r="5.0714"/><circle class="cls-5" cx="542.708" cy="209.0191" r="4.7559"/><circle class="cls-5" cx="525.3293" cy="209.0191" r="4.4405"/><circle class="cls-5" cx="507.9507" cy="209.0191" r="4.1251"/><circle class="cls-5" cx="490.572" cy="209.0191" r="3.8097"/><circle class="cls-5" cx="473.1933" cy="209.0191" r="3.4943"/><circle class="cls-5" cx="455.8146" cy="209.0191" r="3.1788"/><circle class="cls-5" cx="438.4359" cy="209.0191" r="2.8634"/><circle class="cls-5" cx="421.0572" cy="209.0191" r="2.548"/><circle class="cls-5" cx="403.6785" cy="209.0191" r="2.2326"/><circle class="cls-5" cx="386.2999" cy="209.0191" r="1.9172"/><circle class="cls-5" cx="368.9212" cy="209.0191" r="1.6017"/><circle class="cls-5" cx="351.5425" cy="209.0191" r="1.2863"/><circle class="cls-5" cx="594.8441" cy="226.162" r="5.7022"/><circle class="cls-5" cx="577.4654" cy="226.162" r="5.3868"/><circle class="cls-5" cx="560.0867" cy="226.162" r="5.0714"/><circle class="cls-5" cx="542.708" cy="226.162" r="4.7559"/><circle class="cls-5" cx="525.3293" cy="226.162" r="4.4405"/><circle class="cls-5" cx="507.9507" cy="226.162" r="4.1251"/><circle class="cls-5" cx="490.572" cy="226.162" r="3.8097"/><circle class="cls-5" cx="473.1933" cy="226.162" r="3.4943"/><circle class="cls-5" cx="455.8146" cy="226.162" r="3.1788"/><circle class="cls-5" cx="438.4359" cy="226.162" r="2.8634"/><circle class="cls-5" cx="421.0572" cy="226.162" r="2.548"/><circle class="cls-5" cx="403.6785" cy="226.162" r="2.2326"/><circle class="cls-5" cx="386.2999" cy="226.162" r="1.9172"/><circle class="cls-5" cx="368.9212" cy="226.162" r="1.6017"/><circle class="cls-5" cx="351.5425" cy="226.162" r="1.2863"/><circle class="cls-5" cx="594.8441" cy="243.3048" r="5.7022"/><circle class="cls-5" cx="577.4654" cy="243.3048" r="5.3868"/><circle class="cls-5" cx="560.0867" cy="243.3048" r="5.0714"/><circle class="cls-5" cx="542.708" cy="243.3048" r="4.7559"/><circle class="cls-5" cx="525.3293" cy="243.3048" r="4.4405"/><circle class="cls-5" cx="507.9507" cy="243.3048" r="4.1251"/><circle class="cls-5" cx="490.572" cy="243.3048" r="3.8097"/><circle class="cls-5" cx="473.1933" cy="243.3048" r="3.4943"/><circle class="cls-5" cx="455.8146" cy="243.3048" r="3.1788"/><circle class="cls-5" cx="438.4359" cy="243.3048" r="2.8634"/><circle class="cls-5" cx="421.0572" cy="243.3048" r="2.548"/><circle class="cls-5" cx="403.6785" cy="243.3048" r="2.2326"/><circle class="cls-5" cx="386.2999" cy="243.3048" r="1.9172"/><circle class="cls-5" cx="368.9212" cy="243.3048" r="1.6017"/><circle class="cls-5" cx="351.5425" cy="243.3048" r="1.2863"/><circle class="cls-5" cx="594.8441" cy="260.4477" r="5.7022"/><circle class="cls-5" cx="577.4654" cy="260.4477" r="5.3868"/><circle class="cls-5" cx="560.0867" cy="260.4477" r="5.0714"/><circle class="cls-5" cx="542.708" cy="260.4477" r="4.7559"/><circle class="cls-5" cx="525.3293" cy="260.4477" r="4.4405"/><circle class="cls-5" cx="507.9507" cy="260.4477" r="4.1251"/><circle class="cls-5" cx="490.572" cy="260.4477" r="3.8097"/><circle class="cls-5" cx="473.1933" cy="260.4477" r="3.4943"/><circle class="cls-5" cx="455.8146" cy="260.4477" r="3.1788"/><circle class="cls-5" cx="438.4359" cy="260.4477" r="2.8634"/><circle class="cls-5" cx="421.0572" cy="260.4477" r="2.548"/><circle class="cls-5" cx="403.6785" cy="260.4477" r="2.2326"/><circle class="cls-5" cx="386.2999" cy="260.4477" r="1.9172"/><circle class="cls-5" cx="368.9212" cy="260.4477" r="1.6017"/><circle class="cls-5" cx="351.5425" cy="260.4477" r="1.2863"/><circle class="cls-5" cx="594.8441" cy="277.5905" r="5.7022"/><circle class="cls-5" cx="577.4654" cy="277.5905" r="5.3868"/><circle class="cls-5" cx="560.0867" cy="277.5905" r="5.0714"/><circle class="cls-5" cx="542.708" cy="277.5905" r="4.7559"/><circle class="cls-5" cx="525.3293" cy="277.5905" r="4.4405"/><circle class="cls-5" cx="507.9507" cy="277.5905" r="4.1251"/><circle class="cls-5" cx="490.572" cy="277.5905" r="3.8097"/><circle class="cls-5" cx="473.1933" cy="277.5905" r="3.4943"/><circle class="cls-5" cx="455.8146" cy="277.5905" r="3.1788"/><circle class="cls-5" cx="438.4359" cy="277.5905" r="2.8634"/><circle class="cls-5" cx="421.0572" cy="277.5905" r="2.548"/><circle class="cls-5" cx="403.6785" cy="277.5905" r="2.2326"/><circle class="cls-5" cx="386.2999" cy="277.5905" r="1.9172"/><circle class="cls-5" cx="368.9212" cy="277.5905" r="1.6017"/><circle class="cls-5" cx="351.5425" cy="277.5905" r="1.2863"/><circle class="cls-5" cx="594.8441" cy="294.7334" r="5.7022"/><circle class="cls-5" cx="577.4654" cy="294.7334" r="5.3868"/><circle class="cls-5" cx="560.0867" cy="294.7334" r="5.0714"/><circle class="cls-5" cx="542.708" cy="294.7334" r="4.7559"/><circle class="cls-5" cx="525.3293" cy="294.7334" r="4.4405"/><circle class="cls-5" cx="507.9507" cy="294.7334" r="4.1251"/><circle class="cls-5" cx="490.572" cy="294.7334" r="3.8097"/><circle class="cls-5" cx="473.1933" cy="294.7334" r="3.4943"/><circle class="cls-5" cx="455.8146" cy="294.7334" r="3.1788"/><circle class="cls-5" cx="438.4359" cy="294.7334" r="2.8634"/><circle class="cls-5" cx="421.0572" cy="294.7334" r="2.548"/><circle class="cls-5" cx="403.6785" cy="294.7334" r="2.2326"/><circle class="cls-5" cx="386.2999" cy="294.7334" r="1.9172"/><circle class="cls-5" cx="368.9212" cy="294.7334" r="1.6017"/><circle class="cls-5" cx="351.5425" cy="294.7334" r="1.2863"/><circle class="cls-5" cx="594.8441" cy="311.8762" r="5.7022"/><circle class="cls-5" cx="577.4654" cy="311.8762" r="5.3868"/><circle class="cls-5" cx="560.0867" cy="311.8762" r="5.0714"/><circle class="cls-5" cx="542.708" cy="311.8762" r="4.7559"/><circle class="cls-5" cx="525.3293" cy="311.8762" r="4.4405"/><circle class="cls-5" cx="507.9507" cy="311.8762" r="4.1251"/><circle class="cls-5" cx="490.572" cy="311.8762" r="3.8097"/><circle class="cls-5" cx="473.1933" cy="311.8762" r="3.4943"/><circle class="cls-5" cx="455.8146" cy="311.8762" r="3.1788"/><circle class="cls-5" cx="438.4359" cy="311.8762" r="2.8634"/><circle class="cls-5" cx="421.0572" cy="311.8762" r="2.548"/><circle class="cls-5" cx="403.6785" cy="311.8762" r="2.2326"/><circle class="cls-5" cx="386.2999" cy="311.8762" r="1.9172"/><circle class="cls-5" cx="368.9212" cy="311.8762" r="1.6017"/><circle class="cls-5" cx="351.5425" cy="311.8762" r="1.2863"/><circle class="cls-5" cx="594.8441" cy="329.0191" r="5.7022"/><circle class="cls-5" cx="577.4654" cy="329.0191" r="5.3868"/><circle class="cls-5" cx="560.0867" cy="329.0191" r="5.0714"/><circle class="cls-5" cx="542.708" cy="329.0191" r="4.7559"/><circle class="cls-5" cx="525.3293" cy="329.0191" r="4.4405"/><circle class="cls-5" cx="507.9507" cy="329.0191" r="4.1251"/><circle class="cls-5" cx="490.572" cy="329.0191" r="3.8097"/><circle class="cls-5" cx="473.1933" cy="329.0191" r="3.4943"/><circle class="cls-5" cx="455.8146" cy="329.0191" r="3.1788"/><circle class="cls-5" cx="438.4359" cy="329.0191" r="2.8634"/><circle class="cls-5" cx="421.0572" cy="329.0191" r="2.548"/><circle class="cls-5" cx="403.6785" cy="329.0191" r="2.2326"/><circle class="cls-5" cx="386.2999" cy="329.0191" r="1.9172"/><circle class="cls-5" cx="368.9212" cy="329.0191" r="1.6017"/><circle class="cls-5" cx="351.5425" cy="329.0191" r="1.2863"/><circle class="cls-5" cx="594.8441" cy="346.162" r="5.7022"/><circle class="cls-5" cx="577.4654" cy="346.162" r="5.3868"/><circle class="cls-5" cx="560.0867" cy="346.162" r="5.0714"/><circle class="cls-5" cx="542.708" cy="346.162" r="4.7559"/><circle class="cls-5" cx="525.3293" cy="346.162" r="4.4405"/><circle class="cls-5" cx="507.9507" cy="346.162" r="4.1251"/><circle class="cls-5" cx="490.572" cy="346.162" r="3.8097"/><circle class="cls-5" cx="473.1933" cy="346.162" r="3.4943"/><circle class="cls-5" cx="455.8146" cy="346.162" r="3.1788"/><circle class="cls-5" cx="438.4359" cy="346.162" r="2.8634"/><circle class="cls-5" cx="421.0572" cy="346.162" r="2.548"/><circle class="cls-5" cx="403.6785" cy="346.162" r="2.2326"/><circle class="cls-5" cx="386.2999" cy="346.162" r="1.9172"/><circle class="cls-5" cx="368.9212" cy="346.162" r="1.6017"/><circle class="cls-5" cx="351.5425" cy="346.162" r="1.2863"/><circle class="cls-5" cx="594.8441" cy="363.3048" r="5.7022"/><circle class="cls-5" cx="577.4654" cy="363.3048" r="5.3868"/><circle class="cls-5" cx="560.0867" cy="363.3048" r="5.0714"/><circle class="cls-5" cx="542.708" cy="363.3048" r="4.7559"/><circle class="cls-5" cx="525.3293" cy="363.3048" r="4.4405"/><circle class="cls-5" cx="507.9507" cy="363.3048" r="4.1251"/><circle class="cls-5" cx="490.572" cy="363.3048" r="3.8097"/><circle class="cls-5" cx="473.1933" cy="363.3048" r="3.4943"/><circle class="cls-5" cx="455.8146" cy="363.3048" r="3.1788"/><circle class="cls-5" cx="438.4359" cy="363.3048" r="2.8634"/><circle class="cls-5" cx="421.0572" cy="363.3048" r="2.548"/><circle class="cls-5" cx="403.6785" cy="363.3048" r="2.2326"/><circle class="cls-5" cx="386.2999" cy="363.3048" r="1.9172"/><circle class="cls-5" cx="368.9212" cy="363.3048" r="1.6017"/><circle class="cls-5" cx="351.5425" cy="363.3048" r="1.2863"/><circle class="cls-5" cx="594.8441" cy="380.4477" r="5.7022"/><circle class="cls-5" cx="577.4654" cy="380.4477" r="5.3868"/><circle class="cls-5" cx="560.0867" cy="380.4477" r="5.0714"/><circle class="cls-5" cx="542.708" cy="380.4477" r="4.7559"/><circle class="cls-5" cx="525.3293" cy="380.4477" r="4.4405"/><circle class="cls-5" cx="507.9507" cy="380.4477" r="4.1251"/><circle class="cls-5" cx="490.572" cy="380.4477" r="3.8097"/><circle class="cls-5" cx="473.1933" cy="380.4477" r="3.4943"/><circle class="cls-5" cx="455.8146" cy="380.4477" r="3.1788"/><circle class="cls-5" cx="438.4359" cy="380.4477" r="2.8634"/><circle class="cls-5" cx="421.0572" cy="380.4477" r="2.548"/><circle class="cls-5" cx="403.6785" cy="380.4477" r="2.2326"/><circle class="cls-5" cx="386.2999" cy="380.4477" r="1.9172"/><circle class="cls-5" cx="368.9212" cy="380.4477" r="1.6017"/><circle class="cls-5" cx="351.5425" cy="380.4477" r="1.2863"/><circle class="cls-5" cx="594.8441" cy="397.5905" r="5.7022"/><circle class="cls-5" cx="577.4654" cy="397.5905" r="5.3868"/><circle class="cls-5" cx="560.0867" cy="397.5905" r="5.0714"/><circle class="cls-5" cx="542.708" cy="397.5905" r="4.7559"/><circle class="cls-5" cx="525.3293" cy="397.5905" r="4.4405"/><circle class="cls-5" cx="507.9507" cy="397.5905" r="4.1251"/><circle class="cls-5" cx="490.572" cy="397.5905" r="3.8097"/><circle class="cls-5" cx="473.1933" cy="397.5905" r="3.4943"/><circle class="cls-5" cx="455.8146" cy="397.5905" r="3.1788"/><circle class="cls-5" cx="438.4359" cy="397.5905" r="2.8634"/><circle class="cls-5" cx="421.0572" cy="397.5905" r="2.548"/><circle class="cls-5" cx="403.6785" cy="397.5905" r="2.2326"/><circle class="cls-5" cx="386.2999" cy="397.5905" r="1.9172"/><circle class="cls-5" cx="368.9212" cy="397.5905" r="1.6017"/><circle class="cls-5" cx="351.5425" cy="397.5905" r="1.2863"/><circle class="cls-5" cx="594.8441" cy="414.7334" r="5.7022"/><circle class="cls-5" cx="577.4654" cy="414.7334" r="5.3868"/><circle class="cls-5" cx="560.0867" cy="414.7334" r="5.0714"/><circle class="cls-5" cx="542.708" cy="414.7334" r="4.7559"/><circle class="cls-5" cx="525.3293" cy="414.7334" r="4.4405"/><circle class="cls-5" cx="507.9507" cy="414.7334" r="4.1251"/><circle class="cls-5" cx="490.572" cy="414.7334" r="3.8097"/><circle class="cls-5" cx="473.1933" cy="414.7334" r="3.4943"/><circle class="cls-5" cx="455.8146" cy="414.7334" r="3.1788"/><circle class="cls-5" cx="438.4359" cy="414.7334" r="2.8634"/><circle class="cls-5" cx="421.0572" cy="414.7334" r="2.548"/><circle class="cls-5" cx="403.6785" cy="414.7334" r="2.2326"/><circle class="cls-5" cx="386.2999" cy="414.7334" r="1.9172"/><circle class="cls-5" cx="368.9212" cy="414.7334" r="1.6017"/><circle class="cls-5" cx="351.5425" cy="414.7334" r="1.2863"/></g></g><g id="lineas"><g class="cls-4"><path class="cls-6" d="M534.0429,48.2205a25.5157,25.5157,0,0,1,1.8879,9.5355c0,33.6116-69.2626,76.3989-154.7,76.3989-85.44,0-154.7021-42.7873-154.7021-76.3989a24.9887,24.9887,0,0,1,1.0827-7.238"/><path class="cls-6" d="M600.5273,202.19c0,81.6979-98.1828,147.9271-219.2974,147.9271S161.9325,283.8875,161.9325,202.19"/><path class="cls-6" d="M600.5273,74.9393c0,81.6979-98.1828,147.9272-219.2974,147.9272S161.9325,156.6372,161.9325,74.9393"/><path class="cls-7" d="M592.4937,186.7973c0,46.5069-94.5861,99.6005-211.2638,99.6005s-211.2638-53.0936-211.2638-99.6005"/><ellipse class="cls-6" cx="381.9471" cy="13.9136" rx="53.69" ry="16.9016"/><ellipse class="cls-8" cx="381.2299" cy="202.1896" rx="151.4027" ry="206.9055"/><line class="cls-9" x1="381.2299" y1="-19.7835" x2="381.2299" y2="429.9796"/></g></g></svg>