<svg xmlns="http://www.w3.org/2000/svg" xmlns:xlink="http://www.w3.org/1999/xlink" width="598.3387" height="184.8772" viewBox="0 0 598.3387 184.8772"><defs><style>.cls-1,.cls-4,.cls-5,.cls-6,.cls-7{fill:none;}.cls-2{clip-path:url(#clip-path);}.cls-3{fill:#fff;}.cls-4,.cls-5,.cls-6,.cls-7{stroke:#fff;stroke-miterlimit:10;}.cls-4{stroke-width:0.4983px;}.cls-5{stroke-width:0.5102px;}.cls-6{stroke-width:0.5065px;}.cls-7{stroke-width:0.5108px;}</style><clipPath id="clip-path"><circle class="cls-1" cx="92.4386" cy="92.4386" r="92.4386"/></clipPath></defs><g id="lineas"><g class="cls-2"><path class="cls-3" d="M175.5677,67.5946c-1.2134-1.233-1.826-1.8558-3.06-3.1128-.0916,1.4564-.1538,2.198-.31,3.7067-2.4043-1.077-3.6219-1.6231-6.0821-2.7242-.1933-.8729-.2932-1.308-.4987-2.1752-.9246-.1385-1.39-.2061-2.3258-.3386-.277-1.5882-.4259-2.3766-.7437-3.94-3.2718-.8053-4.9392-1.1947-8.3293-1.9422-1.0024.7607-1.5152,1.153-2.5624,1.96-1.8306-.02-2.7567-.0212-4.63-.008-.9168-.19-1.3767-.2833-2.3-.4693-.2744,1.3034-.4187,1.9622-.7208,3.2925-1.0531.7693-1.5875,1.1623-2.6714,1.9629-.5011,1.3091-.7588,1.971-1.288,3.3089-1.4323.628-2.1567.95-3.6207,1.6076-1.0045,2.3109-1.5264,3.4868-2.6018,5.874.7629,2.7676,1.1348,4.156,1.8522,6.9382-.2664,1.6341-.4051,2.4563-.6923,4.11-.9051.7-1.3605,1.0532-2.276,1.7647.6981,1.7579,1.0422,2.6366,1.7185,4.392,2.1643,1.6433,3.2349,2.4559,5.3462,4.0431,1.5817,2.1536,2.3584,3.213,3.8755,5.2905,1.517-.153,2.2711-.23,3.77-.3833.7863-.1679,1.1784-.2518,1.96-.4186,1.8042-.4844,2.7-.7243,4.4761-1.1982,1.4593.1,2.1839.1488,3.6227.2422.5966-.1926.8941-.2883,1.4873-.4791,2.2587,1.6229,3.3637,2.4071,5.5141,3.9111-.8873,2.5028-1.354,3.7579-2.3247,6.27,1.9974,2.7452,2.94,4.057,4.6868,6.5376-.4347,2.33-.6747,3.4857-1.197,5.7752-.9809,1.1265-1.4744,1.6931-2.4665,2.8319-.0021,1.7789-.02,2.6547-.0926,4.3768.3454.9445.5086,1.4073.8152,2.3137-.1438,1.2683-.2253,1.8947-.4079,3.1316-.2392,1.2532-.3681,1.8727-.6441,3.0966a49.3277,49.3277,0,0,1-.75,6.967c4.4806-2.3661,6.6666-3.59,10.8989-6.082,12.4961-21.99,13.782-45.1907,8.9189-69.4755-.3252.1908-.4893.288-.8214.4858C178.9179,68.4544,177.8125,68.1654,175.5677,67.5946ZM91.8081,3.0524c-.3464-.455-.5176-.6812-.8567-1.13-1.2749.7177-1.919,1.0884-3.2188,1.8508.48.2831.7224.4267,1.21.7173C90.097,3.8983,90.67,3.61,91.8081,3.0524Zm47.9582,35.0424c1.14-.0817,1.7036-.1156,2.8167-.17.2977-1.1063.4367-1.65.6942-2.7156-.7625-.32-1.1447-.48-1.9109-.7955-.8373.5867-1.2676.8917-2.15,1.5235C139.4393,36.7966,139.5494,37.2282,139.7663,38.0948Zm-8.8536-16.6879c-1.1182-.5631-1.678-.8414-2.7986-1.39.5928.9267.89,1.3915,1.4873,2.3233.5264.0481.7883.0736,1.31.1278.25.6935.3751,1.0414.6238,1.74,1.4078-.1248,2.0986-.1727,3.4524-.2384.2645-.637.3913-.95.6341-1.5656-1.3357-.4557-2.0086-.676-3.364-1.1008C131.724,21.34,131.455,21.36,130.9127,21.4069Zm15.0587,16.0238c-.5247.4479-.7929.6776-1.34,1.1484.5041.6789.7561,1.0184,1.26,1.6972-.5318.2174-.8009.329-1.3446.5582,2.23.1658,3.3247.2688,5.4711.5158-1.3883-2.09-2.0858-3.1354-3.4811-5.2217-.5685-.6888-.8527-1.0336-1.42-1.7229.6124.1267.9172.1918,1.5236.325-.2393-.5317-.3595-.7969-.6008-1.3265-.7433-.1022-1.118-.15-1.8733-.24-.3275-.6722-.4918-1.0076-.8213-1.6769-.2771.6167-.4214.9311-.7213,1.57.7266.9885,1.09,1.483,1.8182,2.4725C145.0532,36.2905,145.3591,36.6707,145.9714,37.4307ZM165.4505,35.52l-.5587-.4909c-.798-.5671-1.2024-.846-2.0214-1.3945-.5046-.56-.7573-.84-1.2628-1.401-1.7925-1.3882-2.7-2.0737-4.5357-3.4229-.5485-.1551-.8315-.2238-1.4144-.3444a28.815,28.815,0,0,0-4.2554,2.186c-1-.3657-1.5058-.5431-2.527-.8865.5775,1.4975.8576,2.2556,1.4,3.7894,1.2561.72,1.8822,1.0818,3.13,1.81.1446-.34.2143-.5068.3484-.8359,1.3061,1.3246,1.96,1.9853,3.27,3.3016.3177,1.1507.4679,1.7341.7505,2.9167-.6028-.2346-.9055-.3509-1.5133-.5814-.2644-1.0836-.4035-1.62-.6945-2.6787-.7926-.2818-1.1915-.42-1.9946-.692.6109,1.4.91,2.1049,1.4964,3.5255-1.021.0437-1.541.075-2.5995.1557-.0469.7625-.0754,1.1486-.1418,1.93-1.3485.117-2.0367.1891-3.4391.359-1.4809-.1391-2.2309-.2-3.7493-.3028,1.1941,1.0795,1.7918,1.6187,2.9866,2.6943.3374,1.0913.5033,1.6392.8294,2.74-.3052.209-.4588.3149-.7685.5285-.3048.5216-.46.7854-.7763,1.3183-1.06-.6682-1.5909-1.0028-2.6536-1.6718-1.5775-.1984-2.3735-.2914-3.9789-.4647.6836,1.6629,1.0225,2.4973,1.693,4.17-.6731,1.1068-1.02,1.67-1.7309,2.8163.3032.5767.4547.8653.7568,1.4425,3.5039.4192,5.23.649,8.6216,1.1461.8811-.4735,1.3159-.7042,2.1728-1.1535.119-1.1735.1719-1.7542.2638-2.9029.92.3,1.3784.4515,2.2915.7551.0608-1.2289.0834-1.8362.1122-3.0359.8109.3,1.2151.45,2.02.7516,1.0939-.2408,1.6318-.3528,2.6892-.5585.8252,1.1314,1.2363,1.696,2.054,2.8222,1.4732,1.116,2.2078,1.6706,3.67,2.7711.3161.881.4711,1.323.7752,2.2092.446.0151.668.0232,1.11.0414-.1406-.7565-.2139-1.1328-.3665-1.8813.4978.15.7461.2254,1.2408.3768-.6426-.6748-.965-1.0134-1.611-1.6932-.5609-.1985-.8423-.2976-1.4069-.4949-1.0461-1.0579-1.5711-1.59-2.6237-2.6587-.28-.703-.4217-1.0538-.7083-1.7537.6376.2825.9555.4241,1.5895.7074,1.1973,1.1071,1.7948,1.6576,2.9853,2.7511.8018.3247,1.2008.4873,1.9958.8138.4126,1.2338.6115,1.8551.9941,3.1051,1.34,1.7326,2.0036,2.5937,3.3124,4.3026.7307.3294,1.0948.494,1.82.822-.14-1.2086-.2205-1.806-.4015-2.9866-.4-.723-.602-1.0847-1.01-1.8078.71.3239,1.0634.4858,1.7677.8094,1.3852,1.7146,2.07,2.5653,3.4182,4.251.9943.3924,1.4882.5887,2.4694.9808a87.3033,87.3033,0,0,0-12.6072-25.3955c-.22-.1282-.3305-.1916-.5526-.3182-.4877-.6358-.7334-.9523-1.2289-1.5832.2978.1813.4459.2727.74.457C166.4488,36.81,166.12,36.3765,165.4505,35.52ZM94.2608,3.7219c-1.7859.5993-2.7.92-4.5244,1.6008,1.6254.33,2.4536.5118,4.108.9052.6065-.4057.9069-.6056,1.5017-1,.9915-.0867,1.4847-.1243,2.4657-.1882.6-.8239.8936-1.23,1.4689-2.0322.87.2032,1.3045.3094,2.1738.53,1.9987-.2274,2.9825-.3146,4.9162-.4351-.02-.7495-.03-1.122-.054-1.8618-1.898.3858-2.8711.61-4.8619,1.1181-.77-.3581-1.1533-.5337-1.9181-.8775-1.5-.18-2.2533-.2555-3.7645-.3777-1.333.1377-2.006.2184-3.3594.4029,1.2834.2531,1.9275.39,3.2151.6853C95.0891,2.7967,94.8156,3.103,94.2608,3.7219Zm32.9929,11.5934c.647.4865.9712.7309,1.621,1.2214-.6417-1.1436-.9614-1.7129-1.5981-2.8461,1.2857.3344,1.9226.5114,3.1839.8845.2609-1.026.3781-1.5252.584-2.4952-.3413-.6872-.512-1.03-.8536-1.7114.8221.1007,1.227.1584,2.024.2894-1.53-1.4059-2.29-2.1044-3.7936-3.4888-1.387-.2778-2.0971-.3957-3.5481-.59-2.3608-.9421-3.5568-1.3784-5.9752-2.1754-1.195.3925-1.8126.61-3.0853,1.0851-1.152-.6448-1.7266-.9611-2.8724-1.5806-1.2781.2411-1.93.3776-3.26.6809-.2261-.2146-.3389-.3217-.5638-.5354-1.1343.0583-1.7077.0968-2.8664.1929-1.791.119-2.7.2009-4.5453.4083,1.9232.8988,2.8921,1.3694,4.8416,2.3462.2932.5119.4405.7689.737,1.2844-.4273.8267-.6466,1.2453-1.0955,2.0929,1.4286.1964,2.14.3048,3.555.5413-.0856,1.0223-.1313,1.5381-.2287,2.5785-.4151.7361-.6269,1.1085-1.0591,1.8612-.9247.162-1.3909.2476-2.33.4283.4708,1.7045.7086,2.565,1.1882,4.3008.6151.1751.9225.2639,1.5373.4441.044.9069.0653,1.3629.1059,2.2794,1.5781.271,2.3645.4152,3.9312.72,1.8083-2.3382,2.664-3.4622,4.2627-5.6019.7043.7167,1.0582,1.0766,1.77,1.7992.2689-.9574.3984-1.43.646-2.3647.9332.2567,1.3984.3884,2.3262.6591.778-.6963,1.1567-1.0345,1.8919-1.6894,1.366.6126,2.0481.9254,3.41,1.5634C127.23,16.8511,127.2417,16.3347,127.2537,15.3153Zm-62.4652.0561c.6107-.2392.9165-.3575,1.5282-.5911,2.0952-.4671,3.1525-.6805,5.2836-1.0644-.0519-1.3562-.0725-2.0266-.1036-3.3511-1.2526.5142-1.8788.7781-3.1314,1.3187-.3035-.7187-.45-1.0736-.7349-1.7733-.4533.5183-.6809.7783-1.1381,1.3-.66-.0931-.9867-.1358-1.6342-.2142-2.2859,1.08-3.4283,1.6416-5.7087,2.8025,1.195-.0206,1.8023-.019,3.0352.0069C63.195,14.4008,63.7161,14.7146,64.7885,15.3714ZM83.4024,3.31c-1.0033.2111-1.5044.3225-2.505.5569.7545.3031,1.1364.46,1.9087.7824C83.0462,4.1109,83.1656,3.843,83.4024,3.31Zm-1.98,6.1529c.962-.2758,1.4432-.4093,2.4051-.6672-.0065-.3737-.01-.56-.0156-.9322-1.1011.2383-1.6512.3635-2.75.6263C81.2042,8.8768,81.2763,9.0715,81.4222,9.4624Zm28.5159,107.17c-1.5469-.8264-2.3262-1.2449-3.8955-2.09-2.4209-.2655-3.6392-.4039-6.09-.6911-1.0913-1.1256-1.6406-1.6916-2.7451-2.8292-1.5613-.5117-2.3455-.77-3.92-1.29-.6585-3.0222-.9917-4.5443-1.6575-7.607-3.4236-1.85-5.1309-2.7834-8.522-4.649-1.2687-1.966-1.9014-2.9514-3.1593-4.924-3.824-.16-5.7212-.24-9.48-.3975-1.4338-1.0558-2.1473-1.58-3.5661-2.6214-2.2129.9517-3.313,1.4253-5.497,2.3644-.5836,1.51-.8723,2.2642-1.4427,3.76-1.0207-.8854-1.5289-1.3268-2.54-2.2064-.8157.5144-1.2224.77-2.0323,1.2788-1.2941-.5708-1.9381-.8546-3.22-1.4186.4669-3.1616.7176-4.75,1.2472-7.8989-.7038-.4946-1.0542-.7407-1.7521-1.2294-1.0493.4744-1.5723.7107-2.6141,1.1811-.3075-1.0458-.4592-1.5662-.7571-2.6022.7105-2.0073,1.0729-3.0111,1.8086-5.0169-1.1415-.6474-1.7083-.9671-2.8326-1.5979-.6257,1.4452-.9355,2.1678-1.5478,3.612-1.499.4973-2.245.7451-3.7288,1.2372-1.025-.69-1.5334-1.0307-2.5415-1.7029-.0852-2.87-.1078-4.2917-.1126-7.1048,1.8881-2.4823,2.8447-3.7321,4.77-6.2406,1.5441-.2746,2.32-.4106,3.8806-.6786.3329-.738.5-1.1069.8355-1.8443,2.2484.0925,3.3844.1473,5.6777.2735,1.0084.7,1.5176,1.0547,2.545,1.7732-.6993,1.5077-1.0476,2.2626-1.74,3.7735.4859,1.3485.7337,2.0279,1.2382,3.397.5744-1.2178.8631-1.8267,1.4427-3.043.3134-2.49.4777-3.7283.82-6.1886,4.1777-2.6521,6.28-3.9828,10.4767-6.6089.0332-2.454.0559-3.6711.113-6.0835,1.0689-.02,1.6051-.0288,2.6812-.0411,1.0925-1.1756,1.6373-1.7616,2.723-2.9286,1.561-.4206,2.3431-.6271,3.9089-1.032.133-.973.2-1.458.3334-2.4246,2.0371-.7624,3.0559-1.1367,5.0919-1.8676.1148.9571.1731,1.4378.2913,2.4027,2.5773-.9866,3.8652-1.4679,6.4348-2.3987-1.5638-.6174-2.34-.92-3.8771-1.5126.4923-1.2554.7367-1.88,1.2212-3.1219.93.0318,1.3965.05,2.3312.09.7565-1.1938,1.1316-1.7867,1.8745-2.9636.8815-.0946,1.3217-.14,2.1987-.2265.238.895.3578,1.3443.599,2.2467-.9772-.01-1.467-.0129-2.4483-.0136-.1858,1.658-.28,2.4928-.4715,4.1735,1.7535.2864,2.6316.4365,4.3822.75,1.2378.7867,1.8588,1.1842,3.1045,1.9862-.2531-2.9034-.38-4.34-.6331-7.179.264-2.448.3911-3.6589.6328-6.0517-1.3863-1.2471-2.0736-1.8636-3.4346-3.0789-.8787-1.7554-1.3112-2.6243-2.16-4.3419-1.6275-.1046-2.4469-.1477-4.068-.215-.7747-1.1578-1.1555-1.7309-1.9029-2.864-2.1192.5444-3.18.8341-5.3023,1.4437-1.2438,1.8-1.876,2.7116-3.1576,4.5523-.08,1.309-.1194,1.9679-.1958,3.2942-1.1951.8961-1.7958,1.3486-3.0025,2.2608-.9184,1.85-1.3826,2.7829-2.318,4.6593-1.1394-.9325-1.7-1.3907-2.8029-2.2892.9854-1.2763,1.4752-1.9115,2.4474-3.1745-2.7234-.1635-4.0672-.2207-6.715-.2837-.7166-1.8078-1.0588-2.6951-1.7078-4.4328,1.3-.5845,1.9491-.8728,3.2478-1.44.9195-1.462,1.3754-2.189,2.2784-3.6333,1.294-.0062,1.946-.0021,3.2594.021,1.52-1.21,2.2741-1.808,3.7685-2.986.1115,1.1092.17,1.668.2918,2.7944,2.0024-.4817,3.0058-.7088,5.0156-1.1326-.1341-.6962-.2-1.0427-.33-1.7323.7791-.4848,1.1674-.7247,1.9408-1.2.361-1.5411.5393-2.305.89-3.8187,1.3623-.2819,2.044-.4147,3.4076-.6628.1776,1.3215.269,1.9882.4563,3.333-1.5727.9445-2.3664,1.43-3.9668,2.4209,1.4767.0219,2.2192.042,3.7115.1,1.6847,1.2421,2.5517,1.8806,4.3033,3.1879.6882-1.6034,1.0245-2.3963,1.68-3.9629.5186.5358.7794.8055,1.304,1.3484.95-1.43,1.4132-2.1349,2.3153-3.5215-1.1172.1228-1.679.19-2.8092.3353.4339-1.2927.6459-1.933,1.0592-3.2-.8108-1.0539-1.211-1.5755-2-2.6061-3.6164-.4585-5.4448-.6221-8.9837-.8149-1.6453,1.174-2.4793,1.777-4.1661,3.0094.5635.545.849.821,1.4274,1.3794-.6783,1.1964-1.0221,1.8-1.7178,3.0157-.6074-.8182-.906-1.2224-1.4916-2.0207-.0791-1.6085-.1144-2.4039-.1764-3.976-1.1184.6944-1.6808,1.0474-2.8116,1.764-.4274,1.5048-.6431,2.2639-1.077,3.7948-2.8409-.0527-4.2382-.04-6.9812.0633-.6657-.1717-.9957-.2543-1.65-.4131-1.72.8081-2.5812,1.2228-4.3036,2.07-1.7253-.5-2.5641-.7246-4.1894-1.1183-1.1807.6914-1.7717,1.0411-2.9545,1.7481-1.8634.123-2.7759.2082-4.56.4274-.8767.6432-1.3159.9664-2.1956,1.615-1.7182.5627-2.5671.859-4.2429,1.4806-.9538-.37-1.4115-.5354-2.286-.825-5.8183,3.3048-8.6687,5.088-14.1811,8.8078-.8169,1.08-1.2238,1.622-2.0338,2.7075-.6528.3369-.9765.508-1.6186.8551-1.0616.8453-1.592,1.2681-2.65,2.1128.3991.0312.6059.0539,1.0335.1134-1.4488.9951-2.1687,1.4959-3.5984,2.5013-1.8368,1.5687-2.7546,2.3488-4.5853,3.8964-.3349.6416-.4971.9668-.8113,1.6258.6376-.1758.9628-.2575,1.6261-.4091-1.5458,1.3914-2.3178,2.0819-3.8576,3.45,1.7349-1.1459,2.61-1.7191,4.3744-2.8628,3.6645-2.825,5.5127-4.2583,9.2149-7.1309-1.6673,1.8307-2.5019,2.7426-4.1668,4.5548,2.192-1.5429,3.294-2.3167,5.505-3.8621,1.5692-.6576,2.3644-.9772,3.9745-1.597.1421,1.1144.2315,1.69.4444,2.8739-1.0652,2.3288-1.5842,3.5048-2.59,5.8769.5045.389.7626.5893,1.29,1.0008-1.1328.7147-1.6982,1.0719-2.826,1.7848-.4765,1.6251-.7045,2.4454-1.14,4.1006-.9723.7671-1.4578,1.1493-2.4265,1.91-1.708,3.8277-2.5235,5.7572-4.0507,9.6322.7421.8911,1.1251,1.3493,1.9135,2.2886-.6155,1.2424-.9192,1.8632-1.5169,3.1033.5352.9148.8108,1.38,1.3765,2.3263-.11,1.4087-.1574,2.1176-.2355,3.5444,1.0664,1.141,1.6133,1.7264,2.7321,2.9246.2119,1.0454.3225,1.572.5533,2.6331.5963-.5755.8958-.8647,1.4975-1.4453-.7-1.5268-1.0379-2.2784-1.6883-3.756-.5893-2.4929-.8552-3.7142-1.3236-6.1014,1.7085,1.7183,2.6012,2.6184,4.4518,4.489.0354.4851.054.7284.0929,1.2162.7241.92,1.0926,1.3866,1.842,2.3337-.1764,1.6955-.2561,2.5472-.3978,4.2576.9172,1.5172,1.3881,2.289,2.351,3.856,2.409.7678,3.6313,1.1657,6.1068,1.985,1.2857-.7044,1.9327-1.06,3.2337-1.7752.4588,1.6462.6955,2.4763,1.1822,4.1491,1.795.0787,2.6987.1193,4.5184.2025,1.1559,1.1406,1.7391,1.7175,2.9153,2.8824-.001.9633,0,1.4456.0056,2.4064,1.845,1.5775,2.7773,2.3738,4.657,3.9755.5616-.653.8438-.9809,1.4109-1.64,1.2407-.1924,1.8636-.29,3.1145-.4859-.1242,2.523-.1778,3.7778-.2681,6.2712-.8868,1.1528-1.3263,1.7247-2.1968,2.8586.0526,1.7654.0833,2.6444.1533,4.3948-1.0805.2077-1.6185.31-2.69.511.098,3.2236.1632,4.8223.3252,7.9882.8785.6876,1.3183,1.0318,2.1989,1.7208,2.9836,5.1516,4.4991,7.7284,7.5024,12.829,1.1132.1831,1.6713.2728,2.7907.4486,1.5309,1.4522,2.2951,2.1766,3.8173,3.618.9636,9.9168,1.5245,14.7171,2.7408,23.851,1.77,3.0822,2.6388,4.6041,4.33,7.5943.3484,2.4645.5247,3.6795.88,6.0711,2.1432,2.8087,3.1847,4.1848,5.19,6.8579.8874.2806,1.3307.4166,2.2165.6789.6825.6917,1.0206,1.034,1.6894,1.71,1.6383.4892,2.4553.7172,4.0839,1.1367-.8415-1.0482-1.27-1.5813-2.143-2.6631-.127-.45-.1911-.6755-.32-1.1285-.844-1.13-1.2736-1.7037-2.1468-2.8644-.1933-1.7876-.2912-2.6927-.4882-4.5238-.2783-.8607-.4189-1.2937-.7029-2.1641-.6052-1.6572-.9134-2.495-1.54-4.1863,1.2162-.8032,1.835-1.2149,3.0925-2.0564,1.2743-.2664,1.9164-.4065,3.21-.7.2387-1.7742.3617-2.67.6137-4.48.7076-.13,1.0632-.1963,1.775-.3331,1.6482-2.8139,2.4982-4.2511,4.2351-7.1717.59-2.4325.8906-3.6622,1.5-6.1463,1.6454-.892,2.4713-1.3452,4.1277-2.2632,1.0759-1.6123,1.6189-2.4244,2.7116-4.0582.5041-2.1392.7572-3.2166,1.2642-5.3857-.39-2.2808-.5916-3.4322-1.0069-5.7548,1.8116-2.5879,2.7243-3.8924,4.5523-6.5129C110.0668,120.1341,110.0266,118.9718,109.9381,116.6325Zm-49.9948-76.55c2.0925-.5945,3.1437-.884,5.2536-1.4448.8107,1.3107,1.2269,1.9767,2.0783,3.3274,1.0139.4116,1.5253.6217,2.5565,1.05-.767.9529-1.1519,1.4308-1.9234,2.3883-1.5791,1.3213-2.3712,1.9853-3.9583,3.3168.3056-1.6908.46-2.5317.7743-4.2039-1.7511,1.4711-2.63,2.21-4.39,3.6918-.8306-.5907-1.2418-.8819-2.0545-1.4556,2.66-1.7529,3.99-2.6259,6.6416-4.3527-1.32.3823-1.9783.5764-3.2923.97-.1341-.2343-.2009-.3509-.3338-.5838-1.5453.01-2.3126.0213-3.8355.0562C58.4558,41.7363,58.9527,41.184,59.9433,40.0822ZM69.875,6.9039c-1.4052.7225-2.1094,1.093-3.52,1.85.9449-.0317,1.4221-.0406,2.3862-.0453C69.1977,7.984,69.4245,7.6228,69.875,6.9039Zm6.3918-.032c-2.3578.57-3.5309.8859-5.8615,1.571,1.9572.1628,2.9584.2737,5.0026.5519C75.7539,8.1413,75.9257,7.7166,76.2668,6.8719Zm6.1948-.515c-1.1273.0416-1.6878.07-2.803.1406.2363.4878.3564.7335.6,1.2284C81.1441,7.17,81.5848,6.8963,82.4616,6.3569ZM76.848,11.4382c1.086-1.1583,1.6229-1.7318,2.6831-2.8649-.7274.0508-1.09.0791-1.8124.1413-.7567.6467-1.1377.9727-1.9038,1.63C76.2227,10.7771,76.4293,10.9959,76.848,11.4382Z"/></g><g class="cls-2"><circle class="cls-3" cx="188.7125" cy="9.3547" r="2.6087"/><circle class="cls-3" cx="180.7619" cy="9.3547" r="2.4644"/><circle class="cls-3" cx="172.8112" cy="9.3547" r="2.3201"/><circle class="cls-3" cx="164.8606" cy="9.3547" r="2.1758"/><circle class="cls-3" cx="156.91" cy="9.3547" r="2.0315"/><circle class="cls-3" cx="148.9594" cy="9.3547" r="1.8872"/><circle class="cls-3" cx="141.0087" cy="9.3547" r="1.7429"/><circle class="cls-3" cx="133.0581" cy="9.3547" r="1.5986"/><circle class="cls-3" cx="125.1075" cy="9.3547" r="1.4543"/><circle class="cls-3" cx="117.1568" cy="9.3547" r="1.31"/><circle class="cls-3" cx="109.2062" cy="9.3547" r="1.1657"/><circle class="cls-3" cx="101.2556" cy="9.3547" r="1.0214"/><circle class="cls-3" cx="93.3049" cy="9.3547" r="0.8771"/><circle class="cls-3" cx="85.3543" cy="9.3547" r="0.7328"/><circle class="cls-3" cx="77.4037" cy="9.3547" r="0.5885"/><circle class="cls-3" cx="188.7125" cy="17.1974" r="2.6087"/><circle class="cls-3" cx="180.7619" cy="17.1974" r="2.4644"/><circle class="cls-3" cx="172.8112" cy="17.1974" r="2.3201"/><circle class="cls-3" cx="164.8606" cy="17.1974" r="2.1758"/><circle class="cls-3" cx="156.91" cy="17.1974" r="2.0315"/><circle class="cls-3" cx="148.9594" cy="17.1974" r="1.8872"/><circle class="cls-3" cx="141.0087" cy="17.1974" r="1.7429"/><circle class="cls-3" cx="133.0581" cy="17.1974" r="1.5986"/><circle class="cls-3" cx="125.1075" cy="17.1974" r="1.4543"/><circle class="cls-3" cx="117.1568" cy="17.1974" r="1.31"/><circle class="cls-3" cx="109.2062" cy="17.1974" r="1.1657"/><circle class="cls-3" cx="101.2556" cy="17.1974" r="1.0214"/><circle class="cls-3" cx="93.3049" cy="17.1974" r="0.8771"/><circle class="cls-3" cx="85.3543" cy="17.1974" r="0.7328"/><circle class="cls-3" cx="77.4037" cy="17.1974" r="0.5885"/><circle class="cls-3" cx="188.7125" cy="1.4886" r="2.6087"/><circle class="cls-3" cx="180.7619" cy="1.4886" r="2.4644"/><circle class="cls-3" cx="172.8112" cy="1.4886" r="2.3201"/><circle class="cls-3" cx="164.8606" cy="1.4886" r="2.1758"/><circle class="cls-3" cx="156.91" cy="1.4886" r="2.0315"/><circle class="cls-3" cx="148.9594" cy="1.4886" r="1.8872"/><circle class="cls-3" cx="141.0087" cy="1.4886" r="1.7429"/><circle class="cls-3" cx="133.0581" cy="1.4886" r="1.5986"/><circle class="cls-3" cx="125.1075" cy="1.4886" r="1.4543"/><circle class="cls-3" cx="117.1568" cy="1.4886" r="1.31"/><circle class="cls-3" cx="109.2062" cy="1.4886" r="1.1657"/><circle class="cls-3" cx="101.2556" cy="1.4886" r="1.0214"/><circle class="cls-3" cx="93.3049" cy="1.4886" r="0.8771"/><circle class="cls-3" cx="85.3543" cy="1.4886" r="0.7328"/><circle class="cls-3" cx="77.4037" cy="1.4886" r="0.5885"/><circle class="cls-3" cx="188.7125" cy="25.0402" r="2.6087"/><circle class="cls-3" cx="180.7619" cy="25.0402" r="2.4644"/><circle class="cls-3" cx="172.8112" cy="25.0402" r="2.3201"/><circle class="cls-3" cx="164.8606" cy="25.0402" r="2.1758"/><circle class="cls-3" cx="156.91" cy="25.0402" r="2.0315"/><circle class="cls-3" cx="148.9594" cy="25.0402" r="1.8872"/><circle class="cls-3" cx="141.0087" cy="25.0402" r="1.7429"/><circle class="cls-3" cx="133.0581" cy="25.0402" r="1.5986"/><circle class="cls-3" cx="125.1075" cy="25.0402" r="1.4543"/><circle class="cls-3" cx="117.1568" cy="25.0402" r="1.31"/><circle class="cls-3" cx="109.2062" cy="25.0402" r="1.1657"/><circle class="cls-3" cx="101.2556" cy="25.0402" r="1.0214"/><circle class="cls-3" cx="93.3049" cy="25.0402" r="0.8771"/><circle class="cls-3" cx="85.3543" cy="25.0402" r="0.7328"/><circle class="cls-3" cx="77.4037" cy="25.0402" r="0.5885"/><circle class="cls-3" cx="188.7125" cy="32.8829" r="2.6087"/><circle class="cls-3" cx="180.7619" cy="32.8829" r="2.4644"/><circle class="cls-3" cx="172.8112" cy="32.8829" r="2.3201"/><circle class="cls-3" cx="164.8606" cy="32.8829" r="2.1758"/><circle class="cls-3" cx="156.91" cy="32.8829" r="2.0315"/><circle class="cls-3" cx="148.9594" cy="32.8829" r="1.8872"/><circle class="cls-3" cx="141.0087" cy="32.8829" r="1.7429"/><circle class="cls-3" cx="133.0581" cy="32.8829" r="1.5986"/><circle class="cls-3" cx="125.1075" cy="32.8829" r="1.4543"/><circle class="cls-3" cx="117.1568" cy="32.8829" r="1.31"/><circle class="cls-3" cx="109.2062" cy="32.8829" r="1.1657"/><circle class="cls-3" cx="101.2556" cy="32.8829" r="1.0214"/><circle class="cls-3" cx="93.3049" cy="32.8829" r="0.8771"/><circle class="cls-3" cx="85.3543" cy="32.8829" r="0.7328"/><circle class="cls-3" cx="77.4037" cy="32.8829" r="0.5885"/><circle class="cls-3" cx="188.7125" cy="40.7256" r="2.6087"/><circle class="cls-3" cx="180.7619" cy="40.7256" r="2.4644"/><circle class="cls-3" cx="172.8112" cy="40.7256" r="2.3201"/><circle class="cls-3" cx="164.8606" cy="40.7256" r="2.1758"/><circle class="cls-3" cx="156.91" cy="40.7256" r="2.0315"/><circle class="cls-3" cx="148.9594" cy="40.7256" r="1.8872"/><circle class="cls-3" cx="141.0087" cy="40.7256" r="1.7429"/><circle class="cls-3" cx="133.0581" cy="40.7256" r="1.5986"/><circle class="cls-3" cx="125.1075" cy="40.7256" r="1.4543"/><circle class="cls-3" cx="117.1568" cy="40.7256" r="1.31"/><circle class="cls-3" cx="109.2062" cy="40.7256" r="1.1657"/><circle class="cls-3" cx="101.2556" cy="40.7256" r="1.0214"/><circle class="cls-3" cx="93.3049" cy="40.7256" r="0.8771"/><circle class="cls-3" cx="85.3543" cy="40.7256" r="0.7328"/><circle class="cls-3" cx="77.4037" cy="40.7256" r="0.5885"/><circle class="cls-3" cx="188.7125" cy="48.5684" r="2.6087"/><circle class="cls-3" cx="180.7619" cy="48.5684" r="2.4644"/><circle class="cls-3" cx="172.8112" cy="48.5684" r="2.3201"/><circle class="cls-3" cx="164.8606" cy="48.5684" r="2.1758"/><circle class="cls-3" cx="156.91" cy="48.5684" r="2.0315"/><circle class="cls-3" cx="148.9594" cy="48.5684" r="1.8872"/><circle class="cls-3" cx="141.0087" cy="48.5684" r="1.7429"/><circle class="cls-3" cx="133.0581" cy="48.5684" r="1.5986"/><circle class="cls-3" cx="125.1075" cy="48.5684" r="1.4543"/><circle class="cls-3" cx="117.1568" cy="48.5684" r="1.31"/><circle class="cls-3" cx="109.2062" cy="48.5684" r="1.1657"/><circle class="cls-3" cx="101.2556" cy="48.5684" r="1.0214"/><circle class="cls-3" cx="93.3049" cy="48.5684" r="0.8771"/><circle class="cls-3" cx="85.3543" cy="48.5684" r="0.7328"/><circle class="cls-3" cx="77.4037" cy="48.5684" r="0.5885"/><circle class="cls-3" cx="188.7125" cy="56.4111" r="2.6087"/><circle class="cls-3" cx="180.7619" cy="56.4111" r="2.4644"/><circle class="cls-3" cx="172.8112" cy="56.4111" r="2.3201"/><circle class="cls-3" cx="164.8606" cy="56.4111" r="2.1758"/><circle class="cls-3" cx="156.91" cy="56.4111" r="2.0315"/><circle class="cls-3" cx="148.9594" cy="56.4111" r="1.8872"/><circle class="cls-3" cx="141.0087" cy="56.4111" r="1.7429"/><circle class="cls-3" cx="133.0581" cy="56.4111" r="1.5986"/><circle class="cls-3" cx="125.1075" cy="56.4111" r="1.4543"/><circle class="cls-3" cx="117.1568" cy="56.4111" r="1.31"/><circle class="cls-3" cx="109.2062" cy="56.4111" r="1.1657"/><circle class="cls-3" cx="101.2556" cy="56.4111" r="1.0214"/><circle class="cls-3" cx="93.3049" cy="56.4111" r="0.8771"/><circle class="cls-3" cx="85.3543" cy="56.4111" r="0.7328"/><circle class="cls-3" cx="77.4037" cy="56.4111" r="0.5885"/><circle class="cls-3" cx="188.7125" cy="64.2538" r="2.6087"/><circle class="cls-3" cx="180.7619" cy="64.2538" r="2.4644"/><circle class="cls-3" cx="172.8112" cy="64.2538" r="2.3201"/><circle class="cls-3" cx="164.8606" cy="64.2538" r="2.1758"/><circle class="cls-3" cx="156.91" cy="64.2538" r="2.0315"/><circle class="cls-3" cx="148.9594" cy="64.2538" r="1.8872"/><circle class="cls-3" cx="141.0087" cy="64.2538" r="1.7429"/><circle class="cls-3" cx="133.0581" cy="64.2538" r="1.5986"/><circle class="cls-3" cx="125.1075" cy="64.2538" r="1.4543"/><circle class="cls-3" cx="117.1568" cy="64.2538" r="1.31"/><circle class="cls-3" cx="109.2062" cy="64.2538" r="1.1657"/><circle class="cls-3" cx="101.2556" cy="64.2538" r="1.0214"/><circle class="cls-3" cx="93.3049" cy="64.2538" r="0.8771"/><circle class="cls-3" cx="85.3543" cy="64.2538" r="0.7328"/><circle class="cls-3" cx="77.4037" cy="64.2538" r="0.5885"/><circle class="cls-3" cx="188.7125" cy="72.0966" r="2.6087"/><circle class="cls-3" cx="180.7619" cy="72.0966" r="2.4644"/><circle class="cls-3" cx="172.8112" cy="72.0966" r="2.3201"/><circle class="cls-3" cx="164.8606" cy="72.0966" r="2.1758"/><circle class="cls-3" cx="156.91" cy="72.0966" r="2.0315"/><circle class="cls-3" cx="148.9594" cy="72.0966" r="1.8872"/><circle class="cls-3" cx="141.0087" cy="72.0966" r="1.7429"/><circle class="cls-3" cx="133.0581" cy="72.0966" r="1.5986"/><circle class="cls-3" cx="125.1075" cy="72.0966" r="1.4543"/><circle class="cls-3" cx="117.1568" cy="72.0966" r="1.31"/><circle class="cls-3" cx="109.2062" cy="72.0966" r="1.1657"/><circle class="cls-3" cx="101.2556" cy="72.0966" r="1.0214"/><circle class="cls-3" cx="93.3049" cy="72.0966" r="0.8771"/><circle class="cls-3" cx="85.3543" cy="72.0966" r="0.7328"/><circle class="cls-3" cx="77.4037" cy="72.0966" r="0.5885"/><circle class="cls-3" cx="188.7125" cy="79.9393" r="2.6087"/><circle class="cls-3" cx="180.7619" cy="79.9393" r="2.4644"/><circle class="cls-3" cx="172.8112" cy="79.9393" r="2.3201"/><circle class="cls-3" cx="164.8606" cy="79.9393" r="2.1758"/><circle class="cls-3" cx="156.91" cy="79.9393" r="2.0315"/><circle class="cls-3" cx="148.9594" cy="79.9393" r="1.8872"/><circle class="cls-3" cx="141.0087" cy="79.9393" r="1.7429"/><circle class="cls-3" cx="133.0581" cy="79.9393" r="1.5986"/><circle class="cls-3" cx="125.1075" cy="79.9393" r="1.4543"/><circle class="cls-3" cx="117.1568" cy="79.9393" r="1.31"/><circle class="cls-3" cx="109.2062" cy="79.9393" r="1.1657"/><circle class="cls-3" cx="101.2556" cy="79.9393" r="1.0214"/><circle class="cls-3" cx="93.3049" cy="79.9393" r="0.8771"/><circle class="cls-3" cx="85.3543" cy="79.9393" r="0.7328"/><circle class="cls-3" cx="77.4037" cy="79.9393" r="0.5885"/><circle class="cls-3" cx="188.7125" cy="87.7821" r="2.6087"/><circle class="cls-3" cx="180.7619" cy="87.7821" r="2.4644"/><circle class="cls-3" cx="172.8112" cy="87.7821" r="2.3201"/><circle class="cls-3" cx="164.8606" cy="87.7821" r="2.1758"/><circle class="cls-3" cx="156.91" cy="87.7821" r="2.0315"/><circle class="cls-3" cx="148.9594" cy="87.7821" r="1.8872"/><circle class="cls-3" cx="141.0087" cy="87.7821" r="1.7429"/><circle class="cls-3" cx="133.0581" cy="87.7821" r="1.5986"/><circle class="cls-3" cx="125.1075" cy="87.7821" r="1.4543"/><circle class="cls-3" cx="117.1568" cy="87.7821" r="1.31"/><circle class="cls-3" cx="109.2062" cy="87.7821" r="1.1657"/><circle class="cls-3" cx="101.2556" cy="87.7821" r="1.0214"/><circle class="cls-3" cx="93.3049" cy="87.7821" r="0.8771"/><circle class="cls-3" cx="85.3543" cy="87.7821" r="0.7328"/><circle class="cls-3" cx="77.4037" cy="87.7821" r="0.5885"/><circle class="cls-3" cx="188.7125" cy="95.6248" r="2.6087"/><circle class="cls-3" cx="180.7619" cy="95.6248" r="2.4644"/><circle class="cls-3" cx="172.8112" cy="95.6248" r="2.3201"/><circle class="cls-3" cx="164.8606" cy="95.6248" r="2.1758"/><circle class="cls-3" cx="156.91" cy="95.6248" r="2.0315"/><circle class="cls-3" cx="148.9594" cy="95.6248" r="1.8872"/><circle class="cls-3" cx="141.0087" cy="95.6248" r="1.7429"/><circle class="cls-3" cx="133.0581" cy="95.6248" r="1.5986"/><circle class="cls-3" cx="125.1075" cy="95.6248" r="1.4543"/><circle class="cls-3" cx="117.1568" cy="95.6248" r="1.31"/><circle class="cls-3" cx="109.2062" cy="95.6248" r="1.1657"/><circle class="cls-3" cx="101.2556" cy="95.6248" r="1.0214"/><circle class="cls-3" cx="93.3049" cy="95.6248" r="0.8771"/><circle class="cls-3" cx="85.3543" cy="95.6248" r="0.7328"/><circle class="cls-3" cx="77.4037" cy="95.6248" r="0.5885"/><circle class="cls-3" cx="188.7125" cy="103.4675" r="2.6087"/><circle class="cls-3" cx="180.7619" cy="103.4675" r="2.4644"/><circle class="cls-3" cx="172.8112" cy="103.4675" r="2.3201"/><circle class="cls-3" cx="164.8606" cy="103.4675" r="2.1758"/><circle class="cls-3" cx="156.91" cy="103.4675" r="2.0315"/><circle class="cls-3" cx="148.9594" cy="103.4675" r="1.8872"/><circle class="cls-3" cx="141.0087" cy="103.4675" r="1.7429"/><circle class="cls-3" cx="133.0581" cy="103.4675" r="1.5986"/><circle class="cls-3" cx="125.1075" cy="103.4675" r="1.4543"/><circle class="cls-3" cx="117.1568" cy="103.4675" r="1.31"/><circle class="cls-3" cx="109.2062" cy="103.4675" r="1.1657"/><circle class="cls-3" cx="101.2556" cy="103.4675" r="1.0214"/><circle class="cls-3" cx="93.3049" cy="103.4675" r="0.8771"/><circle class="cls-3" cx="85.3543" cy="103.4675" r="0.7328"/><circle class="cls-3" cx="77.4037" cy="103.4675" r="0.5885"/><circle class="cls-3" cx="188.7125" cy="111.3103" r="2.6087"/><circle class="cls-3" cx="180.7619" cy="111.3103" r="2.4644"/><circle class="cls-3" cx="172.8112" cy="111.3103" r="2.3201"/><circle class="cls-3" cx="164.8606" cy="111.3103" r="2.1758"/><circle class="cls-3" cx="156.91" cy="111.3103" r="2.0315"/><circle class="cls-3" cx="148.9594" cy="111.3103" r="1.8872"/><circle class="cls-3" cx="141.0087" cy="111.3103" r="1.7429"/><circle class="cls-3" cx="133.0581" cy="111.3103" r="1.5986"/><circle class="cls-3" cx="125.1075" cy="111.3103" r="1.4543"/><circle class="cls-3" cx="117.1568" cy="111.3103" r="1.31"/><circle class="cls-3" cx="109.2062" cy="111.3103" r="1.1657"/><circle class="cls-3" cx="101.2556" cy="111.3103" r="1.0214"/><circle class="cls-3" cx="93.3049" cy="111.3103" r="0.8771"/><circle class="cls-3" cx="85.3543" cy="111.3103" r="0.7328"/><circle class="cls-3" cx="77.4037" cy="111.3103" r="0.5885"/><circle class="cls-3" cx="188.7125" cy="119.153" r="2.6087"/><circle class="cls-3" cx="180.7619" cy="119.153" r="2.4644"/><circle class="cls-3" cx="172.8112" cy="119.153" r="2.3201"/><circle class="cls-3" cx="164.8606" cy="119.153" r="2.1758"/><circle class="cls-3" cx="156.91" cy="119.153" r="2.0315"/><circle class="cls-3" cx="148.9594" cy="119.153" r="1.8872"/><circle class="cls-3" cx="141.0087" cy="119.153" r="1.7429"/><circle class="cls-3" cx="133.0581" cy="119.153" r="1.5986"/><circle class="cls-3" cx="125.1075" cy="119.153" r="1.4543"/><circle class="cls-3" cx="117.1568" cy="119.153" r="1.31"/><circle class="cls-3" cx="109.2062" cy="119.153" r="1.1657"/><circle class="cls-3" cx="101.2556" cy="119.153" r="1.0214"/><circle class="cls-3" cx="93.3049" cy="119.153" r="0.8771"/><circle class="cls-3" cx="85.3543" cy="119.153" r="0.7328"/><circle class="cls-3" cx="77.4037" cy="119.153" r="0.5885"/><circle class="cls-3" cx="188.7125" cy="126.9958" r="2.6087"/><circle class="cls-3" cx="180.7619" cy="126.9958" r="2.4644"/><circle class="cls-3" cx="172.8112" cy="126.9958" r="2.3201"/><circle class="cls-3" cx="164.8606" cy="126.9958" r="2.1758"/><circle class="cls-3" cx="156.91" cy="126.9958" r="2.0315"/><circle class="cls-3" cx="148.9594" cy="126.9958" r="1.8872"/><circle class="cls-3" cx="141.0087" cy="126.9958" r="1.7429"/><circle class="cls-3" cx="133.0581" cy="126.9958" r="1.5986"/><circle class="cls-3" cx="125.1075" cy="126.9958" r="1.4543"/><circle class="cls-3" cx="117.1568" cy="126.9958" r="1.31"/><circle class="cls-3" cx="109.2062" cy="126.9958" r="1.1657"/><circle class="cls-3" cx="101.2556" cy="126.9958" r="1.0214"/><circle class="cls-3" cx="93.3049" cy="126.9958" r="0.8771"/><circle class="cls-3" cx="85.3543" cy="126.9958" r="0.7328"/><circle class="cls-3" cx="77.4037" cy="126.9958" r="0.5885"/><circle class="cls-3" cx="188.7125" cy="134.8385" r="2.6087"/><circle class="cls-3" cx="180.7619" cy="134.8385" r="2.4644"/><circle class="cls-3" cx="172.8112" cy="134.8385" r="2.3201"/><circle class="cls-3" cx="164.8606" cy="134.8385" r="2.1758"/><circle class="cls-3" cx="156.91" cy="134.8385" r="2.0315"/><circle class="cls-3" cx="148.9594" cy="134.8385" r="1.8872"/><circle class="cls-3" cx="141.0087" cy="134.8385" r="1.7429"/><circle class="cls-3" cx="133.0581" cy="134.8385" r="1.5986"/><circle class="cls-3" cx="125.1075" cy="134.8385" r="1.4543"/><circle class="cls-3" cx="117.1568" cy="134.8385" r="1.31"/><circle class="cls-3" cx="109.2062" cy="134.8385" r="1.1657"/><circle class="cls-3" cx="101.2556" cy="134.8385" r="1.0214"/><circle class="cls-3" cx="93.3049" cy="134.8385" r="0.8771"/><circle class="cls-3" cx="85.3543" cy="134.8385" r="0.7328"/><circle class="cls-3" cx="77.4037" cy="134.8385" r="0.5885"/><circle class="cls-3" cx="188.7125" cy="142.6812" r="2.6087"/><circle class="cls-3" cx="180.7619" cy="142.6812" r="2.4644"/><circle class="cls-3" cx="172.8112" cy="142.6812" r="2.3201"/><circle class="cls-3" cx="164.8606" cy="142.6812" r="2.1758"/><circle class="cls-3" cx="156.91" cy="142.6812" r="2.0315"/><circle class="cls-3" cx="148.9594" cy="142.6812" r="1.8872"/><circle class="cls-3" cx="141.0087" cy="142.6812" r="1.7429"/><circle class="cls-3" cx="133.0581" cy="142.6812" r="1.5986"/><circle class="cls-3" cx="125.1075" cy="142.6812" r="1.4543"/><circle class="cls-3" cx="117.1568" cy="142.6812" r="1.31"/><circle class="cls-3" cx="109.2062" cy="142.6812" r="1.1657"/><circle class="cls-3" cx="101.2556" cy="142.6812" r="1.0214"/><circle class="cls-3" cx="93.3049" cy="142.6812" r="0.8771"/><circle class="cls-3" cx="85.3543" cy="142.6812" r="0.7328"/><circle class="cls-3" cx="77.4037" cy="142.6812" r="0.5885"/><circle class="cls-3" cx="188.7125" cy="150.524" r="2.6087"/><circle class="cls-3" cx="180.7619" cy="150.524" r="2.4644"/><circle class="cls-3" cx="172.8112" cy="150.524" r="2.3201"/><circle class="cls-3" cx="164.8606" cy="150.524" r="2.1758"/><circle class="cls-3" cx="156.91" cy="150.524" r="2.0315"/><circle class="cls-3" cx="148.9594" cy="150.524" r="1.8872"/><circle class="cls-3" cx="141.0087" cy="150.524" r="1.7429"/><circle class="cls-3" cx="133.0581" cy="150.524" r="1.5986"/><circle class="cls-3" cx="125.1075" cy="150.524" r="1.4543"/><circle class="cls-3" cx="117.1568" cy="150.524" r="1.31"/><circle class="cls-3" cx="109.2062" cy="150.524" r="1.1657"/><circle class="cls-3" cx="101.2556" cy="150.524" r="1.0214"/><circle class="cls-3" cx="93.3049" cy="150.524" r="0.8771"/><circle class="cls-3" cx="85.3543" cy="150.524" r="0.7328"/><circle class="cls-3" cx="77.4037" cy="150.524" r="0.5885"/><circle class="cls-3" cx="188.7125" cy="158.3667" r="2.6087"/><circle class="cls-3" cx="180.7619" cy="158.3667" r="2.4644"/><circle class="cls-3" cx="172.8112" cy="158.3667" r="2.3201"/><circle class="cls-3" cx="164.8606" cy="158.3667" r="2.1758"/><circle class="cls-3" cx="156.91" cy="158.3667" r="2.0315"/><circle class="cls-3" cx="148.9594" cy="158.3667" r="1.8872"/><circle class="cls-3" cx="141.0087" cy="158.3667" r="1.7429"/><circle class="cls-3" cx="133.0581" cy="158.3667" r="1.5986"/><circle class="cls-3" cx="125.1075" cy="158.3667" r="1.4543"/><circle class="cls-3" cx="117.1568" cy="158.3667" r="1.31"/><circle class="cls-3" cx="109.2062" cy="158.3667" r="1.1657"/><circle class="cls-3" cx="101.2556" cy="158.3667" r="1.0214"/><circle class="cls-3" cx="93.3049" cy="158.3667" r="0.8771"/><circle class="cls-3" cx="85.3543" cy="158.3667" r="0.7328"/><circle class="cls-3" cx="77.4037" cy="158.3667" r="0.5885"/><circle class="cls-3" cx="188.7125" cy="166.2095" r="2.6087"/><circle class="cls-3" cx="180.7619" cy="166.2095" r="2.4644"/><circle class="cls-3" cx="172.8112" cy="166.2095" r="2.3201"/><circle class="cls-3" cx="164.8606" cy="166.2095" r="2.1758"/><circle class="cls-3" cx="156.91" cy="166.2095" r="2.0315"/><circle class="cls-3" cx="148.9594" cy="166.2095" r="1.8872"/><circle class="cls-3" cx="141.0087" cy="166.2095" r="1.7429"/><circle class="cls-3" cx="133.0581" cy="166.2095" r="1.5986"/><circle class="cls-3" cx="125.1075" cy="166.2095" r="1.4543"/><circle class="cls-3" cx="117.1568" cy="166.2095" r="1.31"/><circle class="cls-3" cx="109.2062" cy="166.2095" r="1.1657"/><circle class="cls-3" cx="101.2556" cy="166.2095" r="1.0214"/><circle class="cls-3" cx="93.3049" cy="166.2095" r="0.8771"/><circle class="cls-3" cx="85.3543" cy="166.2095" r="0.7328"/><circle class="cls-3" cx="77.4037" cy="166.2095" r="0.5885"/><circle class="cls-3" cx="188.7125" cy="174.0522" r="2.6087"/><circle class="cls-3" cx="180.7619" cy="174.0522" r="2.4644"/><circle class="cls-3" cx="172.8112" cy="174.0522" r="2.3201"/><circle class="cls-3" cx="164.8606" cy="174.0522" r="2.1758"/><circle class="cls-3" cx="156.91" cy="174.0522" r="2.0315"/><circle class="cls-3" cx="148.9594" cy="174.0522" r="1.8872"/><circle class="cls-3" cx="141.0087" cy="174.0522" r="1.7429"/><circle class="cls-3" cx="133.0581" cy="174.0522" r="1.5986"/><circle class="cls-3" cx="125.1075" cy="174.0522" r="1.4543"/><circle class="cls-3" cx="117.1568" cy="174.0522" r="1.31"/><circle class="cls-3" cx="109.2062" cy="174.0522" r="1.1657"/><circle class="cls-3" cx="101.2556" cy="174.0522" r="1.0214"/><circle class="cls-3" cx="93.3049" cy="174.0522" r="0.8771"/><circle class="cls-3" cx="85.3543" cy="174.0522" r="0.7328"/><circle class="cls-3" cx="77.4037" cy="174.0522" r="0.5885"/><circle class="cls-3" cx="188.7125" cy="181.8949" r="2.6087"/><circle class="cls-3" cx="180.7619" cy="181.8949" r="2.4644"/><circle class="cls-3" cx="172.8112" cy="181.8949" r="2.3201"/><circle class="cls-3" cx="164.8606" cy="181.8949" r="2.1758"/><circle class="cls-3" cx="156.91" cy="181.8949" r="2.0315"/><circle class="cls-3" cx="148.9594" cy="181.8949" r="1.8872"/><circle class="cls-3" cx="141.0087" cy="181.8949" r="1.7429"/><circle class="cls-3" cx="133.0581" cy="181.8949" r="1.5986"/><circle class="cls-3" cx="125.1075" cy="181.8949" r="1.4543"/><circle class="cls-3" cx="117.1568" cy="181.8949" r="1.31"/><circle class="cls-3" cx="109.2062" cy="181.8949" r="1.1657"/><circle class="cls-3" cx="101.2556" cy="181.8949" r="1.0214"/><circle class="cls-3" cx="93.3049" cy="181.8949" r="0.8771"/><circle class="cls-3" cx="85.3543" cy="181.8949" r="0.7328"/><circle class="cls-3" cx="77.4037" cy="181.8949" r="0.5885"/></g><g class="cls-2"><path class="cls-4" d="M160.8964,22.0605a11.674,11.674,0,0,1,.8637,4.3625c0,15.3771-31.6872,34.952-70.7742,34.952S20.2107,41.8,20.2107,26.423a11.433,11.433,0,0,1,.4953-3.3114"/><path class="cls-4" d="M191.3125,92.5c0,37.3762-44.9179,67.6756-100.327,67.6756S-9.3416,129.8766-9.3416,92.5"/><path class="cls-4" d="M191.3125,34.2842c0,37.3763-44.9179,67.6757-100.327,67.6757S-9.3416,71.6605-9.3416,34.2842"/><path class="cls-5" d="M187.6372,85.4585c0,21.2766-43.2725,45.5665-96.6517,45.5665s-96.6518-24.29-96.6518-45.5665"/><ellipse class="cls-4" cx="91.3136" cy="6.3654" rx="24.5628" ry="7.7324"/><ellipse class="cls-6" cx="90.9855" cy="92.5004" rx="69.2657" ry="94.6579"/><line class="cls-7" x1="90.9855" y1="-9.0508" x2="90.9855" y2="196.7127"/></g><path class="cls-3" d="M222.368,104.3444l14.6934-33.0713H244.62l14.836,33.0713h-8.0322L239.2821,75.1471h3.07l-12.1416,29.1973Zm7.418-7.0869,1.9365-5.8106H248.825l1.9844,5.8106Z"/><path class="cls-3" d="M278.8719,104.9118a20.2738,20.2738,0,0,1-7.2285-1.252,16.4638,16.4638,0,0,1-9.4727-9.0009,18.1076,18.1076,0,0,1,0-13.7,16.2414,16.2414,0,0,1,3.8037-5.4336,17.18,17.18,0,0,1,5.7637-3.5674,21.9439,21.9439,0,0,1,15.19.2129,15.6727,15.6727,0,0,1,5.9287,4.2519l-4.8653,4.5362A12.1857,12.1857,0,0,0,284.0223,78.1a11.641,11.641,0,0,0-4.6777-.9219,11.78,11.78,0,0,0-4.3457.7793,10.097,10.097,0,0,0-3.4258,2.1972,9.7563,9.7563,0,0,0-2.2207,3.3545,12.0527,12.0527,0,0,0,0,8.5274,9.6873,9.6873,0,0,0,2.2207,3.3779,10.4174,10.4174,0,0,0,3.4013,2.2207,11.2831,11.2831,0,0,0,4.3233.8037,12.7129,12.7129,0,0,0,8.5986-3.26l4.3467,5.5273a19.6429,19.6429,0,0,1-6.2842,3.1416A24.5382,24.5382,0,0,1,278.8719,104.9118Zm6.3789-5.1973V87.2887h6.9922v13.418Z"/><path class="cls-3" d="M306.9364,98.2028h18v6.1416H299.3289V71.2731h24.9932v6.1416H306.9364Zm-.5674-13.6543H322.29v6H306.369Z"/><path class="cls-3" d="M347.0926,104.9118a19.92,19.92,0,0,1-7.2285-1.2764,17.4725,17.4725,0,0,1-5.7637-3.59,16.2282,16.2282,0,0,1-3.8027-5.4336,17.9291,17.9291,0,0,1,0-13.63,16.3121,16.3121,0,0,1,3.8027-5.41,17.5328,17.5328,0,0,1,5.74-3.59,19.7327,19.7327,0,0,1,7.205-1.2764,20.0831,20.0831,0,0,1,7.2051,1.252,17.23,17.23,0,0,1,5.74,3.5674,16.2232,16.2232,0,0,1,3.8028,5.4336,18.0242,18.0242,0,0,1,0,13.6767,16.1523,16.1523,0,0,1-3.8028,5.457,17.2143,17.2143,0,0,1-5.74,3.5674A19.9471,19.9471,0,0,1,347.0926,104.9118Zm-.0469-6.4727a10.4879,10.4879,0,0,0,4.0869-.78,9.9358,9.9358,0,0,0,3.2842-2.22,10.2658,10.2658,0,0,0,2.1953-3.3545,12.091,12.091,0,0,0,0-8.5517,10.2658,10.2658,0,0,0-2.1953-3.3545,9.9671,9.9671,0,0,0-3.2842-2.2207,10.5039,10.5039,0,0,0-4.0869-.7793,10.666,10.666,0,0,0-4.1093.7793,9.6268,9.6268,0,0,0-3.2842,2.2207,10.4483,10.4483,0,0,0-2.1729,3.3545,12.12,12.12,0,0,0,0,8.5517,10.4483,10.4483,0,0,0,2.1729,3.3545,9.5976,9.5976,0,0,0,3.2842,2.22A10.65,10.65,0,0,0,347.0457,98.4391Z"/><path class="cls-3" d="M370.9032,104.3444V71.2731h6.332L391.3133,94.612H387.96l13.7949-23.3389h6.3789v33.0713h-7.1347l-.0938-22.0635h1.416l-11.1484,18.5205H387.77l-11.291-18.52h1.5586v22.0635Z"/><path class="cls-3" d="M415.9754,104.3444V71.2731h6.33l14.08,23.3389H433.03L446.827,71.2731h6.3769v33.0713h-7.1328l-.0957-22.0635h1.418l-11.15,18.5205h-3.4l-11.293-18.52H423.11v22.0635Z"/><path class="cls-3" d="M461.0457,104.3444V71.2731h7.7012v33.0713Z"/><path class="cls-3" d="M476.5418,104.3444V71.2731h6.3321l19.5117,23.8115h-3.07V71.2731h7.5586v33.0713h-6.33L481.03,80.5329h3.0723v23.8115Z"/><path class="cls-3" d="M514.7157,104.3444V71.2731h7.7011v33.0713Z"/><path class="cls-3" d="M530.2117,104.3444V71.2731h6.3321l19.5117,23.8115h-3.07V71.2731h7.5586v33.0713h-6.33L534.7,80.5329h3.0723v23.8115Z"/><path class="cls-3" d="M584.3543,104.9118a20.27,20.27,0,0,1-7.2285-1.252,16.4633,16.4633,0,0,1-9.4726-9.0009,18.1063,18.1063,0,0,1,0-13.7,16.2515,16.2515,0,0,1,3.8027-5.4336,17.18,17.18,0,0,1,5.7637-3.5674,21.9436,21.9436,0,0,1,15.1894.2129,15.6832,15.6832,0,0,1,5.93,4.2519l-4.8652,4.5362A12.1976,12.1976,0,0,0,589.5047,78.1a11.6406,11.6406,0,0,0-4.6777-.9219,11.7946,11.7946,0,0,0-4.3477.7793,10.0806,10.0806,0,0,0-3.4238,2.1972,9.7577,9.7577,0,0,0-2.2207,3.3545,12.0527,12.0527,0,0,0,0,8.5274,9.6887,9.6887,0,0,0,2.2207,3.3779,10.4029,10.4029,0,0,0,3.4,2.2207,11.2874,11.2874,0,0,0,4.3242.8037,12.7133,12.7133,0,0,0,8.5977-3.26l4.3476,5.5273a19.6383,19.6383,0,0,1-6.2851,3.1416A24.5373,24.5373,0,0,1,584.3543,104.9118Zm6.3789-5.1973V87.2887h6.9922v13.418Z"/><path class="cls-3" d="M289.2821,134.6989a7.91,7.91,0,0,1-3.3008-.6738,6.7488,6.7488,0,0,1-2.4864-1.89,6.4784,6.4784,0,0,1-1.333-2.8223l2.0459-.4921.2842.0517a4.9916,4.9916,0,0,0,.9834,1.877,5.1318,5.1318,0,0,0,1.6963,1.334,4.7072,4.7072,0,0,0,2.11.4921,5.4635,5.4635,0,0,0,2.1367-.3886,3.4651,3.4651,0,0,0,1.4492-1.0879,2.5821,2.5821,0,0,0,.5312-1.6045,2.4416,2.4416,0,0,0-.6865-1.8643,4.46,4.46,0,0,0-1.9033-.9843l-3.4951-.9581a6.4269,6.4269,0,0,1-3.2627-1.89,4.6106,4.6106,0,0,1-.3613-5.5283,5.11,5.11,0,0,1,2.0839-1.7344,7.1258,7.1258,0,0,1,3.0938-.6348,7.2893,7.2893,0,0,1,3.0684.6348,5.9271,5.9271,0,0,1,3.456,4.4658l-1.9932.4405-.2851-.0518a4.1348,4.1348,0,0,0-1.4883-2.46,4.37,4.37,0,0,0-2.7832-.9062,4.1032,4.1032,0,0,0-2.59.7646,2.4429,2.4429,0,0,0-.9844,2.0323,2.24,2.24,0,0,0,.6992,1.6826,4.6412,4.6412,0,0,0,2.0195,1.0361l3.47.958a6.4337,6.4337,0,0,1,3.1591,1.8125,4.4114,4.4114,0,0,1,1.1133,3.0547,4.88,4.88,0,0,1-.8027,2.7959,5.3547,5.3547,0,0,1-2.2529,1.8643A7.9745,7.9745,0,0,1,289.2821,134.6989Z"/><path class="cls-3" d="M304.4032,134.6989a6.3762,6.3762,0,0,1-3.34-.8682,6.0406,6.0406,0,0,1-2.2656-2.3945,7.4736,7.4736,0,0,1-.8164-3.5732,7.5961,7.5961,0,0,1,.8027-3.56,5.89,5.89,0,0,1,2.24-2.3955,6.335,6.335,0,0,1,3.3008-.8545,5.9493,5.9493,0,0,1,3.2237.8681,5.8711,5.8711,0,0,1,2.1621,2.4463,8.2391,8.2391,0,0,1,.7763,3.6768v.31l-.3886.3623h-10.9v-2.0449h10.0976l-1.0351.4141a4.5184,4.5184,0,0,0-.6211-2.1231,3.775,3.775,0,0,0-3.3145-1.8388,4.1107,4.1107,0,0,0-2.0976.5566,3.9213,3.9213,0,0,0-1.501,1.5674,4.8381,4.8381,0,0,0-.544,2.33v.5176a4.8606,4.8606,0,0,0,.544,2.3173,4.1755,4.1755,0,0,0,1.501,1.6182,4.03,4.03,0,0,0,2.1758.5957,3.6612,3.6612,0,0,0,2.07-.583,3.9238,3.9238,0,0,0,1.373-1.5918h.3106l1.8125.8018a5.6625,5.6625,0,0,1-2.1875,2.5244A6.214,6.214,0,0,1,304.4032,134.6989Z"/><path class="cls-3" d="M313.2567,134.362V121.39h2.123v3.65l-.6211-.3877a4.4053,4.4053,0,0,1,1.7344-2.3818,4.8791,4.8791,0,0,1,2.8486-.8809h1.32v2.0713h-1.6572a3.3614,3.3614,0,0,0-1.8515.5049,3.494,3.494,0,0,0-1.2422,1.3984,4.54,4.54,0,0,0-.4532,2.084v6.9131Z"/><path class="cls-3" d="M326.3836,134.362l-5.2558-12.7647v-.207h2.2783L327.911,132.55l.0781,1.8125Zm.57,0,.0508-1.8125,4.5059-11.1592h2.2783v.207L328.533,134.362Z"/><path class="cls-3" d="M336.8953,118.9821a1.5012,1.5012,0,0,1-1.5273-1.5274,1.5251,1.5251,0,0,1,.4394-1.1,1.4571,1.4571,0,0,1,1.0879-.4532,1.5474,1.5474,0,0,1,1.5528,1.5537,1.4547,1.4547,0,0,1-.4532,1.0879A1.5176,1.5176,0,0,1,336.8953,118.9821Zm-1.1132,15.38V121.39h2.2011V134.362Z"/><path class="cls-3" d="M347.3289,134.6989a6.6211,6.6211,0,0,1-3.4179-.8682,6.0791,6.0791,0,0,1-2.3037-2.3945,8.085,8.085,0,0,1,0-7.1328,5.98,5.98,0,0,1,2.3037-2.3955,6.7011,6.7011,0,0,1,3.4179-.8545,6.3968,6.3968,0,0,1,2.6543.5312,5.7864,5.7864,0,0,1,2.02,1.502,6.31,6.31,0,0,1,1.2558,2.3691l-1.916.543h-.2852a4.23,4.23,0,0,0-1.4375-2.084,3.6643,3.6643,0,0,0-2.291-.7637,4.29,4.29,0,0,0-2.291.5957,4.0794,4.0794,0,0,0-1.5146,1.6573,5.3248,5.3248,0,0,0-.544,2.459,5.4027,5.4027,0,0,0,.544,2.4726,4.0527,4.0527,0,0,0,1.5146,1.67,4.2891,4.2891,0,0,0,2.291.5957,4.0066,4.0066,0,0,0,1.6573-.3369,3.6975,3.6975,0,0,0,1.3076-.9834,4.7274,4.7274,0,0,0,.8672-1.5273h.2851l1.9414.5439a6.8388,6.8388,0,0,1-1.3457,2.3946,5.747,5.747,0,0,1-2.0586,1.5019A6.6865,6.6865,0,0,1,347.3289,134.6989Z"/><path class="cls-3" d="M357.1414,118.9821a1.5012,1.5012,0,0,1-1.5273-1.5274,1.5251,1.5251,0,0,1,.4394-1.1,1.46,1.46,0,0,1,1.0879-.4532,1.5472,1.5472,0,0,1,1.5547,1.5537,1.462,1.462,0,0,1-.4531,1.0879A1.5255,1.5255,0,0,1,357.1414,118.9821Zm-1.1132,15.38V121.39h2.2011V134.362Z"/><path class="cls-3" d="M367.4735,134.6989a6.3714,6.3714,0,0,1-3.34-.8682,6.1045,6.1045,0,0,1-2.2793-2.4072,8.0665,8.0665,0,0,1,0-7.12,6.0277,6.0277,0,0,1,2.2793-2.3955,7.0039,7.0039,0,0,1,6.7051,0,6.0216,6.0216,0,0,1,2.2773,2.3955,8.049,8.049,0,0,1,0,7.12,6.0983,6.0983,0,0,1-2.2773,2.4072A6.4335,6.4335,0,0,1,367.4735,134.6989Zm.0254-2.0977a4.0915,4.0915,0,0,0,2.1875-.582,4.0362,4.0362,0,0,0,1.4882-1.6445,5.4349,5.4349,0,0,0,.545-2.5117,5.3542,5.3542,0,0,0-.545-2.4981,3.9717,3.9717,0,0,0-3.6757-2.2139,4.1984,4.1984,0,0,0-2.2266.583,4.0386,4.0386,0,0,0-1.502,1.6309,5.3554,5.3554,0,0,0-.5429,2.4981,5.4525,5.4525,0,0,0,.5429,2.499,4.0132,4.0132,0,0,0,1.502,1.6572A4.2061,4.2061,0,0,0,367.4989,132.6012Z"/><path class="cls-3" d="M381.0125,134.6989a5.83,5.83,0,0,1-3.4433-.9844,4.7042,4.7042,0,0,1-1.8633-2.7441l2.0195-.4922.2852.0517a2.6472,2.6472,0,0,0,1.15,1.5411,3.681,3.681,0,0,0,2.0332.5566,3.5447,3.5447,0,0,0,1.98-.5312,1.5939,1.5939,0,0,0,.8164-1.3848,1.4353,1.4353,0,0,0-.48-1.127,3.14,3.14,0,0,0-1.4356-.6338l-2.4082-.5439a5.1164,5.1164,0,0,1-2.68-1.3467,3.1549,3.1549,0,0,1-.8672-2.2265,3.3181,3.3181,0,0,1,.6075-1.9678,4.0046,4.0046,0,0,1,1.6972-1.333,6.0328,6.0328,0,0,1,2.459-.48,5.6215,5.6215,0,0,1,3.3653.9844,4.6478,4.6478,0,0,1,1.8125,2.7959l-2.02.415-.2851-.0527a2.4145,2.4145,0,0,0-1.0743-1.5274,3.3416,3.3416,0,0,0-1.8515-.5439,3.2459,3.2459,0,0,0-1.7735.4531,1.3549,1.3549,0,0,0-.7109,1.1787,1.2758,1.2758,0,0,0,.4531.9971,3.1514,3.1514,0,0,0,1.4375.6084l2.4336.5693a5.3329,5.3329,0,0,1,2.6914,1.32,3.2015,3.2015,0,0,1,.8809,2.33,3.5543,3.5543,0,0,1-.6856,2.1875,4.4708,4.4708,0,0,1-1.8652,1.4248A6.7524,6.7524,0,0,1,381.0125,134.6989Z"/><path class="cls-3" d="M400.0946,134.6989a5.7579,5.7579,0,0,1-3.1329-.8809,6.24,6.24,0,0,1-2.2128-2.4209,8,8,0,0,1,0-7.042,6.2486,6.2486,0,0,1,2.2128-2.4209,5.7578,5.7578,0,0,1,3.1329-.8808,5.6092,5.6092,0,0,1,2.4726.5439,5.6687,5.6687,0,0,1,1.916,1.4893,5.9752,5.9752,0,0,1,1.1524,2.1875v5.2041a6.1276,6.1276,0,0,1-1.1524,2.1748,5.5861,5.5861,0,0,1-4.3886,2.0459Zm.1562-2.0977a4.0579,4.0579,0,0,0,2.2266-.6084,4.291,4.291,0,0,0,1.5136-1.67,5.7112,5.7112,0,0,0,0-4.9189,4.2019,4.2019,0,0,0-1.5136-1.6573,4.1268,4.1268,0,0,0-2.2266-.5957,3.8778,3.8778,0,0,0-2.1113.5957,4.0563,4.0563,0,0,0-1.4746,1.6573,5.9582,5.9582,0,0,0,0,4.9189,4.1415,4.1415,0,0,0,1.4746,1.67A3.8144,3.8144,0,0,0,400.2508,132.6012Zm4.375,1.7608v-4.6348l.3887-1.8642-.4922-1.8379V115.72l2.1484-.2588.0782.207V134.362Z"/><path class="cls-3" d="M416.0692,134.6989a6.3812,6.3812,0,0,1-3.34-.8682,6.0537,6.0537,0,0,1-2.2656-2.3945,7.4847,7.4847,0,0,1-.8145-3.5732,7.5949,7.5949,0,0,1,.8028-3.56,5.8905,5.8905,0,0,1,2.2383-2.3955,6.3416,6.3416,0,0,1,3.3027-.8545,5.9482,5.9482,0,0,1,3.2227.8681,5.8575,5.8575,0,0,1,2.1621,2.4463,8.2392,8.2392,0,0,1,.7773,3.6768v.31l-.3887.3623h-10.9v-2.0449h10.0977l-1.0352.4141a4.518,4.518,0,0,0-.623-2.1231,3.7686,3.7686,0,0,0-3.3125-1.8388,4.1111,4.1111,0,0,0-2.0977.5566,3.9307,3.9307,0,0,0-1.5019,1.5674,4.8263,4.8263,0,0,0-.543,2.33v.5176a4.8486,4.8486,0,0,0,.543,2.3173,4.186,4.186,0,0,0,1.5019,1.6182,4.0284,4.0284,0,0,0,2.1739.5957,3.6672,3.6672,0,0,0,2.0722-.583,3.9338,3.9338,0,0,0,1.3711-1.5918h.3125l1.8106.8018a5.6564,5.6564,0,0,1-2.1875,2.5244A6.2116,6.2116,0,0,1,416.0692,134.6989Z"/><path class="cls-3" d="M431.0086,134.362V116.238H433.21v18.124Z"/><path class="cls-3" d="M437.0145,134.362V121.39h2.123v3.65l-.6211-.3877a4.8975,4.8975,0,0,1,1.1387-1.916,5.4509,5.4509,0,0,1,1.8262-1.2432,5.7354,5.7354,0,0,1,2.24-.44,5.1722,5.1722,0,0,1,2.4981.5957A4.1938,4.1938,0,0,1,447.94,123.41a6.1736,6.1736,0,0,1,.623,2.9258v8.0264h-2.2012V126.88a4.9472,4.9472,0,0,0-.414-2.2139,2.442,2.442,0,0,0-1.127-1.1524,3.7536,3.7536,0,0,0-1.6191-.3369,4.0671,4.0671,0,0,0-1.9024.48,3.8083,3.8083,0,0,0-1.5019,1.4365,4.5137,4.5137,0,0,0-.582,2.3829v6.8867Z"/><path class="cls-3" d="M456.0457,139.5407a6.6242,6.6242,0,0,1-3.9609-1.0361,3.2786,3.2786,0,0,1-1.4258-2.7959,3.59,3.59,0,0,1,.5567-1.9815,3.5455,3.5455,0,0,1,1.6445-1.333l1.1133,1.1133a1.9809,1.9809,0,0,0-.8789.751,1.9375,1.9375,0,0,0-.3125,1.0615,1.9854,1.9854,0,0,0,.791,1.6181,3.4887,3.4887,0,0,0,2.2383.6348h1.8125a4.65,4.65,0,0,0,2.3574-.5049,1.6288,1.6288,0,0,0,.8535-1.4892,1.3179,1.3179,0,0,0-.5566-1.1133,2.7368,2.7368,0,0,0-1.6446-.4141H455.14a4.5424,4.5424,0,0,1-1.877-.3759,3.2842,3.2842,0,0,1-1.334-1.0352,2.5087,2.5087,0,0,1-.4921-1.541,2.657,2.657,0,0,1,.5175-1.5791,3.3775,3.3775,0,0,1,1.6055-1.1387l1.2168,1.0869a1.5924,1.5924,0,0,0-.9961.5049,1.3556,1.3556,0,0,0-.2988.8672,1.0688,1.0688,0,0,0,.4922.9326,2.3559,2.3559,0,0,0,1.3476.3359h3.3906a4.6427,4.6427,0,0,1,3.0821.9581,3.1283,3.1283,0,0,1,1.1386,2.5117,3.4067,3.4067,0,0,1-1.4492,2.9,6.4417,6.4417,0,0,1-3.8847,1.0615Zm.8535-9.2432a5.91,5.91,0,0,1-2.705-.5957,4.6187,4.6187,0,0,1-1.8262-6.4472,4.3953,4.3953,0,0,1,1.8262-1.6182,6.0217,6.0217,0,0,1,2.705-.583,5.9324,5.9324,0,0,1,2.7071.583,4.5119,4.5119,0,0,1,1.8105,1.6182,4.6973,4.6973,0,0,1,0,4.8027,4.5731,4.5731,0,0,1-1.8105,1.6445A5.8226,5.8226,0,0,1,456.8992,130.2975Zm0-1.916a3.243,3.243,0,0,0,2.2266-.751,2.4928,2.4928,0,0,0,.8555-1.9677,2.4658,2.4658,0,0,0-.8555-1.9424,3.6935,3.6935,0,0,0-4.4648,0,2.4794,2.4794,0,0,0-.8418,1.9424,2.5069,2.5069,0,0,0,.8418,1.9677A3.2331,3.2331,0,0,0,456.8992,128.3815Zm3.5469-5.36-1.4492-.9063a3.7911,3.7911,0,0,1,.4277-1.8115,3.3257,3.3257,0,0,1,1.125-1.2559,2.8451,2.8451,0,0,1,1.58-.4531c.1387,0,.2891.0039.4531.0127a1.2457,1.2457,0,0,1,.375.0644v1.9942l-.1289.2842a2.1907,2.1907,0,0,0-.6211-.0772,1.5332,1.5332,0,0,0-1.32.5957A2.5386,2.5386,0,0,0,460.4461,123.0212Z"/><path class="cls-3" d="M470.6219,134.6989a6.3808,6.3808,0,0,1-3.34-.8682,6.0408,6.0408,0,0,1-2.2657-2.3945,7.4631,7.4631,0,0,1-.8164-3.5732,7.5949,7.5949,0,0,1,.8028-3.56,5.8823,5.8823,0,0,1,2.24-2.3955,6.3347,6.3347,0,0,1,3.3008-.8545,5.9428,5.9428,0,0,1,3.2226.8681,5.8561,5.8561,0,0,1,2.1621,2.4463,8.2108,8.2108,0,0,1,.7774,3.6768v.31l-.3887.3623h-10.9v-2.0449h10.0977l-1.0352.4141a4.5173,4.5173,0,0,0-.6211-2.1231,3.7746,3.7746,0,0,0-3.3144-1.8388,4.1111,4.1111,0,0,0-2.0977.5566,3.9294,3.9294,0,0,0-1.5019,1.5674,4.848,4.848,0,0,0-.543,2.33v.5176a4.8707,4.8707,0,0,0,.543,2.3173,4.1845,4.1845,0,0,0,1.5019,1.6182,4.03,4.03,0,0,0,2.1758.5957,3.6607,3.6607,0,0,0,2.07-.583,3.9248,3.9248,0,0,0,1.3731-1.5918h.3105l1.8125.8018a5.6686,5.6686,0,0,1-2.1875,2.5244A6.2164,6.2164,0,0,1,470.6219,134.6989Z"/><path class="cls-3" d="M479.4774,134.362V121.39H481.6v3.65l-.6211-.3877a4.8749,4.8749,0,0,1,1.1387-1.916,5.4427,5.4427,0,0,1,1.8242-1.2432,5.7354,5.7354,0,0,1,2.24-.44,5.1666,5.1666,0,0,1,2.4981.5957,4.1867,4.1867,0,0,1,1.7227,1.7607,6.1742,6.1742,0,0,1,.621,2.9258v8.0264h-2.2011V126.88a4.947,4.947,0,0,0-.4141-2.2139,2.433,2.433,0,0,0-1.1269-1.1524,3.7513,3.7513,0,0,0-1.6172-.3369,4.0615,4.0615,0,0,0-1.9024.48,3.807,3.807,0,0,0-1.5019,1.4365,4.5139,4.5139,0,0,0-.584,2.3829v6.8867Z"/><path class="cls-3" d="M495.5282,118.9821a1.5013,1.5013,0,0,1-1.5274-1.5274,1.5247,1.5247,0,0,1,.4395-1.1,1.46,1.46,0,0,1,1.0879-.4532,1.5472,1.5472,0,0,1,1.5546,1.5537,1.462,1.462,0,0,1-.4531,1.0879A1.5254,1.5254,0,0,1,495.5282,118.9821Zm-1.1133,15.38V121.39h2.2011V134.362Z"/><path class="cls-3" d="M505.8328,134.6989a6.3811,6.3811,0,0,1-3.34-.8682,6.0537,6.0537,0,0,1-2.2656-2.3945,7.4847,7.4847,0,0,1-.8145-3.5732,7.5949,7.5949,0,0,1,.8028-3.56,5.891,5.891,0,0,1,2.2382-2.3955,6.342,6.342,0,0,1,3.3028-.8545,5.9476,5.9476,0,0,1,3.2226.8681,5.8561,5.8561,0,0,1,2.1621,2.4463,8.2378,8.2378,0,0,1,.7774,3.6768v.31l-.3887.3623h-10.9v-2.0449h10.0977l-1.0352.4141a4.5192,4.5192,0,0,0-.623-2.1231,3.7686,3.7686,0,0,0-3.3125-1.8388,4.1111,4.1111,0,0,0-2.0977.5566,3.9294,3.9294,0,0,0-1.5019,1.5674,4.8263,4.8263,0,0,0-.543,2.33v.5176a4.8486,4.8486,0,0,0,.543,2.3173,4.1845,4.1845,0,0,0,1.5019,1.6182,4.0283,4.0283,0,0,0,2.1738.5957,3.6673,3.6673,0,0,0,2.0723-.583,3.9345,3.9345,0,0,0,1.3711-1.5918h.3125l1.81.8018a5.6558,5.6558,0,0,1-2.1875,2.5244A6.2114,6.2114,0,0,1,505.8328,134.6989Z"/><path class="cls-3" d="M514.6883,134.362V121.39h2.1231v3.65l-.6211-.3877a4.4046,4.4046,0,0,1,1.7343-2.3818,4.8785,4.8785,0,0,1,2.8477-.8809h1.32v2.0713h-1.6562a3.3549,3.3549,0,0,0-1.8516.5049,3.4983,3.4983,0,0,0-1.2441,1.3984,4.5653,4.5653,0,0,0-.4532,2.084v6.9131Z"/><path class="cls-3" d="M524.034,119.3708l1.8906-3.7539h2.8731v.207l-2.5879,3.5469Zm.0527,14.9912V121.39h2.1993V134.362Z"/><path class="cls-3" d="M533.9246,134.6989a5.3374,5.3374,0,0,1-2.3964-.5186,4.04,4.04,0,0,1-1.6426-1.4365,3.7821,3.7821,0,0,1-.5957-2.11,3.49,3.49,0,0,1,1.2285-2.77,5.8235,5.8235,0,0,1,3.4062-1.2422l4.9961-.3623v1.9668l-4.5566.3632a4.0748,4.0748,0,0,0-2.1094.6084,1.648,1.648,0,0,0-.6875,1.4112,1.7418,1.7418,0,0,0,.7266,1.4238,2.9213,2.9213,0,0,0,1.8633.5693,4.2156,4.2156,0,0,0,2.123-.5439,4.1535,4.1535,0,0,0,1.5156-1.4492,3.8,3.8,0,0,0,.5567-2.02v-2.0976a3.3714,3.3714,0,0,0-.92-2.4336,3.2335,3.2335,0,0,0-2.4472-.958,3.55,3.55,0,0,0-2.0449.582,2.9047,2.9047,0,0,0-1.1661,1.6192h-.2832l-1.916-.6221a5.0219,5.0219,0,0,1,1.9922-2.6924,6.0254,6.0254,0,0,1,3.4434-.958,5.2309,5.2309,0,0,1,4.0781,1.5791,6.3782,6.3782,0,0,1,1.4375,4.4531v7.3018h-2.07v-3.78l.7754.4141a4.6752,4.6752,0,0,1-1.1,1.9033,5.6877,5.6877,0,0,1-4.2071,1.8Z"/></g></svg>