<svg xmlns="http://www.w3.org/2000/svg" xmlns:xlink="http://www.w3.org/1999/xlink" width="598.3393" height="184.8772" viewBox="0 0 598.3393 184.8772"><defs><style>.cls-1,.cls-5,.cls-6,.cls-7,.cls-8{fill:none;}.cls-2{clip-path:url(#clip-path);}.cls-3{fill:#263a95;}.cls-4{fill:#c5cbe7;}.cls-5,.cls-6,.cls-7,.cls-8{stroke:#c5cbe7;stroke-miterlimit:10;}.cls-5{stroke-width:0.4983px;}.cls-6{stroke-width:0.5102px;}.cls-7{stroke-width:0.5065px;}.cls-8{stroke-width:0.5108px;}.cls-9{fill:#939393;}</style><clipPath id="clip-path"><circle class="cls-1" cx="92.4386" cy="92.4386" r="92.4386"/></clipPath></defs><g id="lineas"><g class="cls-2"><path class="cls-3" d="M175.5677,67.5945c-1.2135-1.2329-1.826-1.8557-3.06-3.1128-.0916,1.4565-.1539,2.198-.31,3.7068-2.4044-1.077-3.6218-1.6231-6.082-2.7241-.1934-.873-.2932-1.3081-.4989-2.1753-.9245-.1385-1.39-.2062-2.3257-.3386-.2771-1.5883-.4259-2.3766-.7436-3.94-3.2719-.8052-4.9394-1.1947-8.3295-1.9421-1.0023.7607-1.5151,1.1529-2.5623,1.96-1.8305-.02-2.7569-.0213-4.63-.008-.9166-.19-1.3766-.2834-2.3-.4692-.2745,1.3033-.4188,1.9621-.7209,3.2924-1.0531.7693-1.5876,1.1622-2.6714,1.9629-.5011,1.3091-.7589,1.9709-1.2879,3.3088-1.4324.6281-2.1568.95-3.6208,1.6077-1.0046,2.3109-1.5263,3.4868-2.6018,5.874.763,2.7676,1.1346,4.1561,1.8521,6.9383-.2664,1.6341-.4049,2.4563-.6923,4.11-.9051.7-1.36,1.0532-2.2758,1.7646.698,1.7578,1.0422,2.6366,1.7183,4.392,2.1643,1.6433,3.235,2.4559,5.3462,4.0431,1.5817,2.1535,2.3585,3.213,3.8755,5.2905,1.517-.1531,2.2712-.23,3.77-.3833.7864-.168,1.1784-.2518,1.96-.4186,1.8041-.4843,2.7-.7243,4.476-1.1981,1.4594.1,2.1841.1488,3.6227.2421.5967-.1927.8942-.2884,1.4874-.4792,2.2588,1.623,3.3637,2.4072,5.5141,3.9112-.8873,2.5028-1.3539,3.7579-2.3247,6.27,1.9975,2.7452,2.94,4.057,4.6868,6.5376-.4347,2.33-.6747,3.4857-1.197,5.7751-.9808,1.1266-1.4744,1.6931-2.4664,2.8319-.0021,1.779-.02,2.6548-.0927,4.3769.3454.9444.5087,1.4073.8152,2.3137-.1438,1.2683-.2253,1.8946-.4079,3.1316-.2393,1.2532-.3681,1.8727-.6441,3.0965a49.327,49.327,0,0,1-.7506,6.9672c4.4807-2.3662,6.6666-3.59,10.8991-6.0821,12.4961-21.99,13.7819-45.1907,8.9189-69.4755-.3252.1908-.4894.2881-.8215.4859C178.9179,68.4544,177.8126,68.1655,175.5677,67.5945Zm-83.76-64.542c-.3463-.4552-.5176-.6812-.8567-1.13-1.2749.7176-1.9189,1.0884-3.2187,1.8508.48.2831.7223.4267,1.21.7173C90.097,3.8984,90.67,3.61,91.8081,3.0525Zm47.9583,35.0423c1.14-.0817,1.7035-.1156,2.8166-.17.2977-1.1063.4367-1.65.6942-2.7155-.7625-.3205-1.1447-.48-1.9109-.7956-.8373.5867-1.2676.8916-2.15,1.5234C139.4393,36.7966,139.5494,37.2282,139.7664,38.0948ZM130.9127,21.407c-1.1182-.5631-1.678-.8414-2.7986-1.39.5927.9266.89,1.3915,1.4873,2.3232.5264.0481.7884.0736,1.31.1278.25.6935.3752,1.0414.6237,1.74,1.4079-.1248,2.0987-.1728,3.4524-.2384.2646-.637.3915-.95.6343-1.5656-1.3358-.4557-2.0087-.676-3.3641-1.1008C131.724,21.34,131.455,21.3605,130.9127,21.407Zm15.0587,16.0237c-.5247.4479-.7929.6776-1.34,1.1483.504.6791.7561,1.0185,1.26,1.6974-.532.2173-.8009.329-1.3447.5581,2.23.1659,3.3246.2687,5.4711.5159-1.3884-2.09-2.0858-3.1354-3.4811-5.2217-.5685-.6891-.8526-1.0336-1.42-1.723.6125.1267.9173.1918,1.5237.3249-.2394-.5316-.36-.7968-.6009-1.3264-.7433-.1023-1.118-.15-1.8732-.24-.3275-.6722-.4918-1.0076-.8213-1.6769-.2771.6167-.4214.931-.7212,1.57.7265.9886,1.09,1.4832,1.8182,2.4727C145.0532,36.2906,145.3591,36.6707,145.9714,37.4307ZM165.4506,35.52l-.5588-.4908c-.798-.567-1.2024-.8461-2.0214-1.3945-.5046-.56-.7573-.84-1.2628-1.401-1.7926-1.3882-2.7-2.0736-4.5357-3.4229-.5485-.1551-.8315-.2239-1.4143-.3445a28.83,28.83,0,0,0-4.2555,2.1862c-1-.3657-1.5058-.5431-2.527-.8866.5775,1.4974.8576,2.2556,1.4,3.7894,1.2561.72,1.8821,1.0818,3.13,1.81.1446-.34.2144-.5067.3485-.8358,1.3061,1.3246,1.96,1.9853,3.27,3.3015.3178,1.1508.4679,1.7342.7507,2.9168-.603-.2346-.9056-.351-1.5135-.5814-.2644-1.0837-.4032-1.6194-.6944-2.6786-.7926-.2818-1.1915-.42-1.9946-.692.6109,1.4.91,2.1048,1.4964,3.5254-1.0209.0437-1.541.0749-2.5995.1557-.047.7625-.0754,1.1486-.1417,1.93-1.3487.1171-2.0368.1891-3.4392.3591-1.4809-.1391-2.231-.2-3.7492-.3028,1.1941,1.0795,1.7917,1.6187,2.9865,2.6942.3374,1.0913.5034,1.6394.8294,2.74-.3051.209-.4588.3148-.7685.5285-.3048.5217-.46.7854-.7763,1.3184-1.06-.6683-1.5908-1.0028-2.6536-1.6719-1.5776-.1985-2.3735-.2914-3.9789-.4648.6836,1.6631,1.0225,2.4973,1.693,4.1706-.6731,1.1068-1.02,1.67-1.731,2.8162.3034.5768.4548.8654.757,1.4426,3.5039.4191,5.23.649,8.6214,1.1461.8812-.4734,1.3159-.7043,2.173-1.1535.1189-1.1734.1718-1.7542.2638-2.9029.92.3,1.3783.4516,2.2914.7552.0609-1.2289.0834-1.8363.1122-3.036.8109.2994,1.215.45,2.02.7516,1.0938-.2408,1.6318-.3528,2.6891-.5585.8254,1.1314,1.2364,1.6959,2.0541,2.8222,1.4733,1.1159,2.2078,1.6706,3.67,2.7711.316.881.4711,1.323.7752,2.2092.446.015.668.0233,1.11.0414-.1406-.7565-.2139-1.1328-.3664-1.8813.4978.15.7459.2254,1.2406.3768-.6426-.6748-.9648-1.0134-1.6108-1.6933-.561-.1984-.8424-.2976-1.4069-.4948-1.0462-1.0578-1.5713-1.59-2.6238-2.6586-.28-.7031-.4217-1.054-.7083-1.7538.6376.2826.9555.4241,1.5895.7075,1.1973,1.107,1.7947,1.6575,2.9853,2.751.8017.3246,1.2009.4873,1.9958.8137.4126,1.2339.6115,1.8551.9941,3.1051,1.34,1.7327,2.0036,2.5938,3.3124,4.3026.7307.33,1.0948.4941,1.82.8221-.14-1.2085-.22-1.8061-.4014-2.9865-.4-.7231-.6019-1.0848-1.01-1.808.71.324,1.0634.4859,1.7676.8095,1.3852,1.7146,2.07,2.5653,3.4183,4.251.9943.3924,1.4883.5887,2.4695.9809a87.3051,87.3051,0,0,0-12.6072-25.3956c-.22-.1282-.3307-.1917-.5527-.3182-.4876-.6357-.7334-.9524-1.2289-1.5832.2978.1813.4459.2727.74.4569C166.4488,36.81,166.12,36.3765,165.4506,35.52Zm-71.19-31.798c-1.786.5993-2.7.92-4.5245,1.6008,1.6253.3306,2.4538.5118,4.1081.9053.6065-.4057.9069-.6058,1.5018-1,.9914-.0867,1.4846-.1243,2.4656-.1882.6-.8238.8936-1.23,1.4689-2.0321.87.2032,1.3044.3093,2.1738.53,1.9987-.2274,2.9825-.3147,4.9162-.4352-.02-.75-.03-1.1219-.0539-1.8618-1.8981.3859-2.8712.61-4.862,1.1182-.77-.358-1.1533-.5337-1.918-.8776-1.5-.1795-2.2533-.2555-3.7646-.3777-1.333.1377-2.0061.2184-3.3595.403,1.2835.2531,1.9277.39,3.2153.6853C95.0891,2.7968,94.8156,3.103,94.2608,3.7219Zm32.9929,11.5933c.647.4866.9713.731,1.621,1.2215-.6417-1.1436-.9614-1.7129-1.5981-2.8461,1.2857.3345,1.9226.5114,3.1839.8845.2609-1.026.378-1.5252.584-2.4952-.3413-.6873-.512-1.03-.8537-1.7114.8222.1007,1.2271.1584,2.0241.2894-1.53-1.4059-2.29-2.1044-3.7935-3.4887-1.3872-.2779-2.0972-.3958-3.5482-.59-2.3608-.9421-3.5568-1.3784-5.9752-2.1754-1.195.3926-1.8125.61-3.0852,1.0852-1.152-.6448-1.7267-.9612-2.8725-1.5807-1.2781.2411-1.93.3776-3.26.6809-.226-.2146-.3387-.3218-.5637-.5354-1.1343.0582-1.7077.0968-2.8664.1929-1.791.119-2.7.2009-4.5453.4083,1.9232.8988,2.8922,1.3694,4.8416,2.3462.2931.5118.4406.7689.737,1.2844-.4273.8267-.6466,1.2453-1.0956,2.0929,1.4287.1964,2.14.3048,3.5551.5413-.0855,1.0223-.1313,1.5381-.2288,2.5785-.4149.7362-.6269,1.1085-1.0591,1.8612-.9246.1618-1.3907.2475-2.33.4283.4708,1.7046.7087,2.565,1.1882,4.3009.6152.1751.9226.2638,1.5373.444.0441.907.0652,1.3629.1059,2.2795,1.5781.271,2.3645.4151,3.9311.72,1.8084-2.3381,2.6642-3.462,4.2627-5.6018.7043.7167,1.0583,1.0766,1.7695,1.7992.2691-.9573.3984-1.43.6461-2.3646.9332.2566,1.3985.3884,2.3263.6589.778-.6963,1.1566-1.0344,1.8918-1.6893,1.366.6124,2.0482.9254,3.41,1.5634C127.23,16.8511,127.2416,16.3346,127.2537,15.3152Zm-62.4652.0562c.6108-.2393.9165-.3576,1.5282-.5911C68.412,14.3132,69.4692,14.1,71.6,13.716c-.0517-1.3562-.0725-2.0267-.1035-3.3512-1.2525.5142-1.8789.7782-3.1314,1.3187-.3034-.7187-.4505-1.0736-.7349-1.7733-.4532.5183-.6808.7783-1.1381,1.3-.66-.093-.9868-.1357-1.6342-.2141-2.2858,1.08-3.4283,1.6416-5.7087,2.8025,1.1951-.0206,1.8023-.019,3.0352.0068C63.195,14.4008,63.7161,14.7145,64.7885,15.3714ZM83.4024,3.31c-1.0033.2111-1.5044.3225-2.5051.5569.7546.3031,1.1364.46,1.9088.7823C83.0463,4.1109,83.1656,3.8429,83.4024,3.31Zm-1.98,6.1528c.9621-.2757,1.4432-.4093,2.4052-.6671-.0066-.3738-.01-.56-.0156-.9322-1.1012.2382-1.6513.3635-2.75.6263C81.2042,8.8768,81.2763,9.0715,81.4222,9.4623Zm28.5158,107.17c-1.5468-.8264-2.3261-1.2449-3.8954-2.09-2.4208-.2655-3.6392-.4039-6.09-.691-1.0914-1.1256-1.6407-1.6915-2.7451-2.8291-1.5614-.5118-2.3456-.77-3.92-1.29-.6584-3.0223-.9917-4.5444-1.6574-7.607-3.4235-1.85-5.1309-2.7834-8.5219-4.649-1.2687-1.9661-1.9015-2.9514-3.1594-4.924-3.824-.16-5.7212-.24-9.48-.3976-1.4338-1.0556-2.1474-1.58-3.5662-2.6212-2.2129.9518-3.3129,1.4254-5.4968,2.3644-.5837,1.51-.8724,2.264-1.4428,3.76-1.0206-.8853-1.5288-1.3268-2.54-2.2063-.8158.5143-1.2224.77-2.0324,1.2787-1.294-.5708-1.9382-.8546-3.22-1.4186.467-3.1615.7177-4.75,1.2472-7.8988-.7037-.4948-1.0542-.7407-1.7521-1.2295-1.0493.4744-1.5722.7107-2.6141,1.181-.3076-1.0457-.4591-1.5661-.7571-2.6021.7105-2.0075,1.0729-3.0111,1.8085-5.0169-1.1415-.6474-1.7082-.967-2.8324-1.5978-.6258,1.4452-.9357,2.1676-1.5479,3.6119-1.4991.4973-2.245.7451-3.7288,1.2371-1.025-.69-1.5334-1.0306-2.5415-1.7028-.0852-2.87-.1078-4.2917-.1127-7.1048,1.8881-2.4822,2.8448-3.7322,4.77-6.24,1.544-.2747,2.32-.41,3.8806-.6787.3329-.738.5-1.1069.8354-1.8443,2.2485.0925,3.3845.1473,5.6778.2735,1.0084.7,1.5176,1.0547,2.5451,1.7732-.6994,1.5077-1.0476,2.2627-1.74,3.7736.4858,1.3484.7337,2.0279,1.2382,3.3968.5744-1.2177.8632-1.8266,1.4427-3.0429.3134-2.49.4777-3.7283.82-6.1886,4.1777-2.6521,6.28-3.9828,10.4768-6.6089.0332-2.454.0558-3.6712.113-6.0835,1.0688-.02,1.6051-.0288,2.6811-.0412,1.0924-1.1755,1.6373-1.7616,2.723-2.9285,1.5611-.4206,2.343-.6271,3.909-1.032.133-.9731.2-1.458.3333-2.4246,2.0372-.7624,3.0559-1.1367,5.0919-1.8677.1148.9572.1731,1.4379.2913,2.4027,2.5773-.9865,3.8652-1.4679,6.4348-2.3986-1.5638-.6175-2.3394-.92-3.877-1.5126.4922-1.2554.7366-1.88,1.2211-3.122.93.0319,1.3964.05,2.3312.09.7565-1.1937,1.1317-1.7866,1.8746-2.9635.8814-.0946,1.3216-.14,2.1987-.2265.2379.895.3577,1.3444.5989,2.2468-.9773-.01-1.467-.0128-2.4484-.0136-.1857,1.6579-.28,2.4928-.4713,4.1734,1.7534.2864,2.6315.4365,4.3822.75,1.2377.7868,1.8588,1.1844,3.1044,1.9864-.2532-2.9034-.38-4.34-.6331-7.1791.2641-2.448.391-3.6589.6328-6.0518-1.3862-1.247-2.0736-1.8634-3.4346-3.0787-.8786-1.7554-1.3111-2.6244-2.16-4.342-1.6274-.1047-2.447-.1478-4.068-.215-.7747-1.1578-1.1556-1.731-1.9029-2.864-2.1192.5444-3.18.8341-5.3023,1.4437-1.2437,1.8-1.8761,2.7115-3.1576,4.5522-.08,1.3091-.1194,1.9679-.1958,3.2942-1.1951.8962-1.7958,1.3487-3.0025,2.2609-.9184,1.85-1.3826,2.7828-2.3179,4.6594-1.1395-.9326-1.7-1.3908-2.803-2.2893.9854-1.2763,1.4752-1.9115,2.4474-3.1745-2.7234-.1635-4.0672-.2207-6.715-.2837-.7166-1.8078-1.0589-2.6951-1.7078-4.4328,1.2994-.5846,1.9491-.8728,3.2479-1.44.9193-1.4621,1.3754-2.189,2.2783-3.6333,1.294-.0062,1.946-.0021,3.2593.021,1.52-1.21,2.2742-1.808,3.7686-2.986.1114,1.1091.17,1.6681.2917,2.7945,2.0024-.4817,3.0059-.7089,5.0156-1.1327-.134-.6962-.2-1.0426-.33-1.7322.7793-.4849,1.1675-.7247,1.9409-1.2.361-1.541.5393-2.3051.89-3.8186,1.3622-.282,2.0439-.4148,3.4075-.663.1776,1.3216.2689,1.9883.4563,3.333-1.5727.9446-2.3665,1.43-3.9667,2.4209,1.4767.022,2.2191.042,3.7113.1,1.6848,1.2421,2.5518,1.8806,4.3034,3.1879.6882-1.6034,1.0246-2.3963,1.68-3.9629.5186.5357.7794.8055,1.304,1.3484.95-1.43,1.4132-2.1349,2.3153-3.5215-1.1171.1228-1.679.19-2.8091.3353.4339-1.2927.6459-1.933,1.0591-3.2-.8108-1.054-1.211-1.5756-2-2.6061-3.6164-.4585-5.4448-.6222-8.9837-.8149-1.6454,1.1739-2.4793,1.7771-4.1662,3.01.5636.545.8492.8209,1.4275,1.3793-.6783,1.1964-1.0221,1.8-1.7178,3.0157-.6075-.8182-.9059-1.2224-1.4915-2.0207-.0791-1.6085-.1145-2.404-.1765-3.976-1.1183.6944-1.6807,1.0474-2.8116,1.7639-.4275,1.5049-.643,2.264-1.077,3.7948-2.8408-.0525-4.2382-.04-6.9812.0635-.6657-.1717-.9956-.2544-1.65-.4132-1.72.8081-2.5813,1.2228-4.3038,2.07-1.7253-.5-2.564-.7245-4.1894-1.1182-1.1806.6913-1.7716,1.0411-2.9545,1.7479-1.8633.1231-2.7759.2084-4.56.4276-.8767.6431-1.3159.9662-2.1956,1.615-1.7181.5625-2.567.8589-4.2428,1.48-.9539-.37-1.4116-.5354-2.2861-.8249-5.8183,3.3046-8.6688,5.088-14.1811,8.8077-.8169,1.08-1.2239,1.6219-2.0338,2.7075-.6528.337-.9765.5079-1.6186.8551-1.0617.8454-1.5919,1.2681-2.65,2.1128.3991.0311.6059.0538,1.0335.1134-1.4488.9953-2.1687,1.4959-3.5985,2.5014-1.8367,1.5686-2.7546,2.3488-4.5852,3.8962-.3348.6417-.4971.9669-.8112,1.6258.6374-.1757.9627-.2574,1.626-.409-1.5457,1.3913-2.3178,2.0819-3.8576,3.45,1.7348-1.1459,2.61-1.7192,4.3744-2.8627,3.6644-2.8251,5.5127-4.2583,9.2148-7.131-1.6672,1.8307-2.5017,2.7426-4.1666,4.5548,2.1919-1.5429,3.2939-2.3168,5.5049-3.862,1.5693-.6578,2.3644-.9773,3.9745-1.5971.1421,1.1145.2314,1.69.4443,2.8739-1.0651,2.3288-1.5841,3.5048-2.59,5.877.5046.3889.7626.5892,1.29,1.0007-1.1328.7147-1.6981,1.0719-2.8259,1.7848-.4766,1.6251-.7047,2.4454-1.14,4.1006-.9723.7672-1.4577,1.1493-2.4265,1.91-1.7079,3.8276-2.5235,5.7573-4.0507,9.6322.7421.8912,1.1251,1.3492,1.9135,2.2886-.6156,1.2424-.9192,1.8631-1.5169,3.1032.5352.9147.8107,1.38,1.3765,2.3263-.11,1.4087-.1575,2.1177-.2355,3.5445,1.0664,1.141,1.6134,1.7264,2.7322,2.9245.2117,1.0454.3224,1.5721.5532,2.6332l1.4975-1.4453c-.7-1.5269-1.0379-2.2784-1.6882-3.756-.59-2.4929-.8553-3.7142-1.3237-6.1014,1.7084,1.7184,2.6012,2.6184,4.4518,4.489.0354.4851.0539.7284.0929,1.2162.7241.92,1.0927,1.3867,1.842,2.3338-.1764,1.6955-.2561,2.547-.3978,4.2575.9173,1.5172,1.3881,2.2889,2.351,3.8559,2.409.7679,3.6313,1.1658,6.1068,1.985,1.2857-.7043,1.9326-1.0595,3.2336-1.7751.4588,1.6462.6955,2.4763,1.1823,4.149,1.7949.0788,2.6988.1194,4.5184.2025,1.1558,1.1407,1.7392,1.7176,2.9152,2.8825-.001.9633,0,1.4456.0056,2.4064,1.8449,1.5775,2.7775,2.3737,4.657,3.9754.5617-.6529.8439-.9808,1.4109-1.64,1.2408-.1924,1.8637-.29,3.1145-.486-.124,2.5231-.1776,3.7779-.2679,6.2713-.8868,1.1528-1.3264,1.7247-2.1968,2.8586.0526,1.7654.0833,2.6444.1533,4.3948-1.0806.2076-1.6186.31-2.69.511.098,3.2236.1634,4.8222.3253,7.9881.8785.6877,1.3183,1.0319,2.1989,1.7209,2.9836,5.1516,4.499,7.7284,7.5024,12.8289,1.1132.1831,1.6714.2729,2.7908.4488,1.5309,1.4521,2.295,2.1765,3.8172,3.6179.9636,9.9167,1.5245,14.717,2.7409,23.8511,1.77,3.0821,2.6388,4.604,4.3295,7.5942.3484,2.4645.5247,3.6794.88,6.071,2.1433,2.8088,3.1848,4.1849,5.19,6.858.8874.2807,1.3307.4166,2.2165.679.6826.6916,1.0206,1.0338,1.6894,1.71,1.6383.4893,2.4554.7173,4.0839,1.1368-.8415-1.0483-1.27-1.5812-2.143-2.663-.1271-.45-.1912-.6757-.32-1.1287-.8441-1.13-1.2738-1.7036-2.1469-2.8643-.1933-1.7875-.2911-2.6927-.4881-4.5237-.2784-.8609-.419-1.2937-.7029-2.1642-.6052-1.6572-.9136-2.4949-1.54-4.1862,1.2162-.8033,1.8349-1.2149,3.0925-2.0565,1.2743-.2665,1.9164-.4065,3.21-.7.2388-1.7741.3617-2.67.6137-4.48.7077-.13,1.0631-.1963,1.775-.3332,1.6482-2.8137,2.4981-4.251,4.2352-7.1715.59-2.4325.8906-3.6623,1.5-6.1464,1.6454-.892,2.4713-1.3453,4.1276-2.2632,1.0761-1.6123,1.619-2.4245,2.7118-4.0583.504-2.1391.7572-3.2165,1.2642-5.3856-.39-2.2809-.5916-3.4322-1.0069-5.7549,1.8115-2.5878,2.7243-3.8923,4.5523-6.5128C110.0668,120.1341,110.0266,118.9717,109.938,116.6325Zm-49.9947-76.55c2.0926-.5945,3.1437-.884,5.2536-1.4448.8108,1.3107,1.2268,1.9767,2.0783,3.3274,1.0139.4116,1.5253.6216,2.5566,1.05-.7671.9529-1.152,1.4308-1.9235,2.3883-1.579,1.3213-2.3712,1.9852-3.9582,3.3168.3054-1.6907.46-2.5318.7742-4.2038-1.7512,1.471-2.63,2.21-4.39,3.6917-.8307-.5907-1.2417-.882-2.0545-1.4556,2.66-1.7529,3.99-2.6259,6.6415-4.3528-1.32.3824-1.9782.5765-3.2921.97-.1342-.2342-.201-.3508-.334-.5837-1.5453.01-2.3125.0212-3.8353.0561C58.4559,41.7361,58.9527,41.184,59.9433,40.0822ZM69.875,6.9039c-1.4052.7225-2.1094,1.093-3.52,1.85.9449-.0316,1.4222-.04,2.3862-.0453C69.1977,7.9839,69.4245,7.6229,69.875,6.9039Zm6.3917-.032c-2.3577.5705-3.5307.8858-5.8613,1.571,1.9571.1629,2.9583.2737,5.0026.5519C75.7539,8.1413,75.9257,7.7166,76.2667,6.8719Zm6.1949-.515c-1.1272.0417-1.6878.07-2.803.1407.2364.4878.3563.7335.6,1.2284C81.1441,7.17,81.5848,6.8964,82.4616,6.3569ZM76.848,11.4382c1.0859-1.1584,1.6229-1.7318,2.6831-2.8649-.7273.0509-1.09.0791-1.8124.1414-.7567.6466-1.1376.9727-1.9039,1.63C76.2227,10.7772,76.4293,10.9959,76.848,11.4382Z"/></g><g class="cls-2"><circle class="cls-4" cx="188.7125" cy="9.3547" r="2.6087"/><circle class="cls-4" cx="180.7619" cy="9.3547" r="2.4644"/><circle class="cls-4" cx="172.8112" cy="9.3547" r="2.3201"/><circle class="cls-4" cx="164.8606" cy="9.3547" r="2.1758"/><circle class="cls-4" cx="156.91" cy="9.3547" r="2.0315"/><circle class="cls-4" cx="148.9594" cy="9.3547" r="1.8872"/><circle class="cls-4" cx="141.0087" cy="9.3547" r="1.7429"/><circle class="cls-4" cx="133.0581" cy="9.3547" r="1.5986"/><circle class="cls-4" cx="125.1075" cy="9.3547" r="1.4543"/><circle class="cls-4" cx="117.1568" cy="9.3547" r="1.31"/><circle class="cls-4" cx="109.2062" cy="9.3547" r="1.1657"/><circle class="cls-4" cx="101.2556" cy="9.3547" r="1.0214"/><circle class="cls-4" cx="93.3049" cy="9.3547" r="0.8771"/><circle class="cls-4" cx="85.3543" cy="9.3547" r="0.7328"/><circle class="cls-4" cx="77.4037" cy="9.3547" r="0.5885"/><circle class="cls-4" cx="188.7125" cy="17.1974" r="2.6087"/><circle class="cls-4" cx="180.7619" cy="17.1974" r="2.4644"/><circle class="cls-4" cx="172.8112" cy="17.1974" r="2.3201"/><circle class="cls-4" cx="164.8606" cy="17.1974" r="2.1758"/><circle class="cls-4" cx="156.91" cy="17.1974" r="2.0315"/><circle class="cls-4" cx="148.9594" cy="17.1974" r="1.8872"/><circle class="cls-4" cx="141.0087" cy="17.1974" r="1.7429"/><circle class="cls-4" cx="133.0581" cy="17.1974" r="1.5986"/><circle class="cls-4" cx="125.1075" cy="17.1974" r="1.4543"/><circle class="cls-4" cx="117.1568" cy="17.1974" r="1.31"/><circle class="cls-4" cx="109.2062" cy="17.1974" r="1.1657"/><circle class="cls-4" cx="101.2556" cy="17.1974" r="1.0214"/><circle class="cls-4" cx="93.3049" cy="17.1974" r="0.8771"/><circle class="cls-4" cx="85.3543" cy="17.1974" r="0.7328"/><circle class="cls-4" cx="77.4037" cy="17.1974" r="0.5885"/><circle class="cls-4" cx="188.7125" cy="1.4886" r="2.6087"/><circle class="cls-4" cx="180.7619" cy="1.4886" r="2.4644"/><circle class="cls-4" cx="172.8112" cy="1.4886" r="2.3201"/><circle class="cls-4" cx="164.8606" cy="1.4886" r="2.1758"/><circle class="cls-4" cx="156.91" cy="1.4886" r="2.0315"/><circle class="cls-4" cx="148.9594" cy="1.4886" r="1.8872"/><circle class="cls-4" cx="141.0087" cy="1.4886" r="1.7429"/><circle class="cls-4" cx="133.0581" cy="1.4886" r="1.5986"/><circle class="cls-4" cx="125.1075" cy="1.4886" r="1.4543"/><circle class="cls-4" cx="117.1568" cy="1.4886" r="1.31"/><circle class="cls-4" cx="109.2062" cy="1.4886" r="1.1657"/><circle class="cls-4" cx="101.2556" cy="1.4886" r="1.0214"/><circle class="cls-4" cx="93.3049" cy="1.4886" r="0.8771"/><circle class="cls-4" cx="85.3543" cy="1.4886" r="0.7328"/><circle class="cls-4" cx="77.4037" cy="1.4886" r="0.5885"/><circle class="cls-4" cx="188.7125" cy="25.0402" r="2.6087"/><circle class="cls-4" cx="180.7619" cy="25.0402" r="2.4644"/><circle class="cls-4" cx="172.8112" cy="25.0402" r="2.3201"/><circle class="cls-4" cx="164.8606" cy="25.0402" r="2.1758"/><circle class="cls-4" cx="156.91" cy="25.0402" r="2.0315"/><circle class="cls-4" cx="148.9594" cy="25.0402" r="1.8872"/><circle class="cls-4" cx="141.0087" cy="25.0402" r="1.7429"/><circle class="cls-4" cx="133.0581" cy="25.0402" r="1.5986"/><circle class="cls-4" cx="125.1075" cy="25.0402" r="1.4543"/><circle class="cls-4" cx="117.1568" cy="25.0402" r="1.31"/><circle class="cls-4" cx="109.2062" cy="25.0402" r="1.1657"/><circle class="cls-4" cx="101.2556" cy="25.0402" r="1.0214"/><circle class="cls-4" cx="93.3049" cy="25.0402" r="0.8771"/><circle class="cls-4" cx="85.3543" cy="25.0402" r="0.7328"/><circle class="cls-4" cx="77.4037" cy="25.0402" r="0.5885"/><circle class="cls-4" cx="188.7125" cy="32.8829" r="2.6087"/><circle class="cls-4" cx="180.7619" cy="32.8829" r="2.4644"/><circle class="cls-4" cx="172.8112" cy="32.8829" r="2.3201"/><circle class="cls-4" cx="164.8606" cy="32.8829" r="2.1758"/><circle class="cls-4" cx="156.91" cy="32.8829" r="2.0315"/><circle class="cls-4" cx="148.9594" cy="32.8829" r="1.8872"/><circle class="cls-4" cx="141.0087" cy="32.8829" r="1.7429"/><circle class="cls-4" cx="133.0581" cy="32.8829" r="1.5986"/><circle class="cls-4" cx="125.1075" cy="32.8829" r="1.4543"/><circle class="cls-4" cx="117.1568" cy="32.8829" r="1.31"/><circle class="cls-4" cx="109.2062" cy="32.8829" r="1.1657"/><circle class="cls-4" cx="101.2556" cy="32.8829" r="1.0214"/><circle class="cls-4" cx="93.3049" cy="32.8829" r="0.8771"/><circle class="cls-4" cx="85.3543" cy="32.8829" r="0.7328"/><circle class="cls-4" cx="77.4037" cy="32.8829" r="0.5885"/><circle class="cls-4" cx="188.7125" cy="40.7256" r="2.6087"/><circle class="cls-4" cx="180.7619" cy="40.7256" r="2.4644"/><circle class="cls-4" cx="172.8112" cy="40.7256" r="2.3201"/><circle class="cls-4" cx="164.8606" cy="40.7256" r="2.1758"/><circle class="cls-4" cx="156.91" cy="40.7256" r="2.0315"/><circle class="cls-4" cx="148.9594" cy="40.7256" r="1.8872"/><circle class="cls-4" cx="141.0087" cy="40.7256" r="1.7429"/><circle class="cls-4" cx="133.0581" cy="40.7256" r="1.5986"/><circle class="cls-4" cx="125.1075" cy="40.7256" r="1.4543"/><circle class="cls-4" cx="117.1568" cy="40.7256" r="1.31"/><circle class="cls-4" cx="109.2062" cy="40.7256" r="1.1657"/><circle class="cls-4" cx="101.2556" cy="40.7256" r="1.0214"/><circle class="cls-4" cx="93.3049" cy="40.7256" r="0.8771"/><circle class="cls-4" cx="85.3543" cy="40.7256" r="0.7328"/><circle class="cls-4" cx="77.4037" cy="40.7256" r="0.5885"/><circle class="cls-4" cx="188.7125" cy="48.5684" r="2.6087"/><circle class="cls-4" cx="180.7619" cy="48.5684" r="2.4644"/><circle class="cls-4" cx="172.8112" cy="48.5684" r="2.3201"/><circle class="cls-4" cx="164.8606" cy="48.5684" r="2.1758"/><circle class="cls-4" cx="156.91" cy="48.5684" r="2.0315"/><circle class="cls-4" cx="148.9594" cy="48.5684" r="1.8872"/><circle class="cls-4" cx="141.0087" cy="48.5684" r="1.7429"/><circle class="cls-4" cx="133.0581" cy="48.5684" r="1.5986"/><circle class="cls-4" cx="125.1075" cy="48.5684" r="1.4543"/><circle class="cls-4" cx="117.1568" cy="48.5684" r="1.31"/><circle class="cls-4" cx="109.2062" cy="48.5684" r="1.1657"/><circle class="cls-4" cx="101.2556" cy="48.5684" r="1.0214"/><circle class="cls-4" cx="93.3049" cy="48.5684" r="0.8771"/><circle class="cls-4" cx="85.3543" cy="48.5684" r="0.7328"/><circle class="cls-4" cx="77.4037" cy="48.5684" r="0.5885"/><circle class="cls-4" cx="188.7125" cy="56.4111" r="2.6087"/><circle class="cls-4" cx="180.7619" cy="56.4111" r="2.4644"/><circle class="cls-4" cx="172.8112" cy="56.4111" r="2.3201"/><circle class="cls-4" cx="164.8606" cy="56.4111" r="2.1758"/><circle class="cls-4" cx="156.91" cy="56.4111" r="2.0315"/><circle class="cls-4" cx="148.9594" cy="56.4111" r="1.8872"/><circle class="cls-4" cx="141.0087" cy="56.4111" r="1.7429"/><circle class="cls-4" cx="133.0581" cy="56.4111" r="1.5986"/><circle class="cls-4" cx="125.1075" cy="56.4111" r="1.4543"/><circle class="cls-4" cx="117.1568" cy="56.4111" r="1.31"/><circle class="cls-4" cx="109.2062" cy="56.4111" r="1.1657"/><circle class="cls-4" cx="101.2556" cy="56.4111" r="1.0214"/><circle class="cls-4" cx="93.3049" cy="56.4111" r="0.8771"/><circle class="cls-4" cx="85.3543" cy="56.4111" r="0.7328"/><circle class="cls-4" cx="77.4037" cy="56.4111" r="0.5885"/><circle class="cls-4" cx="188.7125" cy="64.2538" r="2.6087"/><circle class="cls-4" cx="180.7619" cy="64.2538" r="2.4644"/><circle class="cls-4" cx="172.8112" cy="64.2538" r="2.3201"/><circle class="cls-4" cx="164.8606" cy="64.2538" r="2.1758"/><circle class="cls-4" cx="156.91" cy="64.2538" r="2.0315"/><circle class="cls-4" cx="148.9594" cy="64.2538" r="1.8872"/><circle class="cls-4" cx="141.0087" cy="64.2538" r="1.7429"/><circle class="cls-4" cx="133.0581" cy="64.2538" r="1.5986"/><circle class="cls-4" cx="125.1075" cy="64.2538" r="1.4543"/><circle class="cls-4" cx="117.1568" cy="64.2538" r="1.31"/><circle class="cls-4" cx="109.2062" cy="64.2538" r="1.1657"/><circle class="cls-4" cx="101.2556" cy="64.2538" r="1.0214"/><circle class="cls-4" cx="93.3049" cy="64.2538" r="0.8771"/><circle class="cls-4" cx="85.3543" cy="64.2538" r="0.7328"/><circle class="cls-4" cx="77.4037" cy="64.2538" r="0.5885"/><circle class="cls-4" cx="188.7125" cy="72.0966" r="2.6087"/><circle class="cls-4" cx="180.7619" cy="72.0966" r="2.4644"/><circle class="cls-4" cx="172.8112" cy="72.0966" r="2.3201"/><circle class="cls-4" cx="164.8606" cy="72.0966" r="2.1758"/><circle class="cls-4" cx="156.91" cy="72.0966" r="2.0315"/><circle class="cls-4" cx="148.9594" cy="72.0966" r="1.8872"/><circle class="cls-4" cx="141.0087" cy="72.0966" r="1.7429"/><circle class="cls-4" cx="133.0581" cy="72.0966" r="1.5986"/><circle class="cls-4" cx="125.1075" cy="72.0966" r="1.4543"/><circle class="cls-4" cx="117.1568" cy="72.0966" r="1.31"/><circle class="cls-4" cx="109.2062" cy="72.0966" r="1.1657"/><circle class="cls-4" cx="101.2556" cy="72.0966" r="1.0214"/><circle class="cls-4" cx="93.3049" cy="72.0966" r="0.8771"/><circle class="cls-4" cx="85.3543" cy="72.0966" r="0.7328"/><circle class="cls-4" cx="77.4037" cy="72.0966" r="0.5885"/><circle class="cls-4" cx="188.7125" cy="79.9393" r="2.6087"/><circle class="cls-4" cx="180.7619" cy="79.9393" r="2.4644"/><circle class="cls-4" cx="172.8112" cy="79.9393" r="2.3201"/><circle class="cls-4" cx="164.8606" cy="79.9393" r="2.1758"/><circle class="cls-4" cx="156.91" cy="79.9393" r="2.0315"/><circle class="cls-4" cx="148.9594" cy="79.9393" r="1.8872"/><circle class="cls-4" cx="141.0087" cy="79.9393" r="1.7429"/><circle class="cls-4" cx="133.0581" cy="79.9393" r="1.5986"/><circle class="cls-4" cx="125.1075" cy="79.9393" r="1.4543"/><circle class="cls-4" cx="117.1568" cy="79.9393" r="1.31"/><circle class="cls-4" cx="109.2062" cy="79.9393" r="1.1657"/><circle class="cls-4" cx="101.2556" cy="79.9393" r="1.0214"/><circle class="cls-4" cx="93.3049" cy="79.9393" r="0.8771"/><circle class="cls-4" cx="85.3543" cy="79.9393" r="0.7328"/><circle class="cls-4" cx="77.4037" cy="79.9393" r="0.5885"/><circle class="cls-4" cx="188.7125" cy="87.7821" r="2.6087"/><circle class="cls-4" cx="180.7619" cy="87.7821" r="2.4644"/><circle class="cls-4" cx="172.8112" cy="87.7821" r="2.3201"/><circle class="cls-4" cx="164.8606" cy="87.7821" r="2.1758"/><circle class="cls-4" cx="156.91" cy="87.7821" r="2.0315"/><circle class="cls-4" cx="148.9594" cy="87.7821" r="1.8872"/><circle class="cls-4" cx="141.0087" cy="87.7821" r="1.7429"/><circle class="cls-4" cx="133.0581" cy="87.7821" r="1.5986"/><circle class="cls-4" cx="125.1075" cy="87.7821" r="1.4543"/><circle class="cls-4" cx="117.1568" cy="87.7821" r="1.31"/><circle class="cls-4" cx="109.2062" cy="87.7821" r="1.1657"/><circle class="cls-4" cx="101.2556" cy="87.7821" r="1.0214"/><circle class="cls-4" cx="93.3049" cy="87.7821" r="0.8771"/><circle class="cls-4" cx="85.3543" cy="87.7821" r="0.7328"/><circle class="cls-4" cx="77.4037" cy="87.7821" r="0.5885"/><circle class="cls-4" cx="188.7125" cy="95.6248" r="2.6087"/><circle class="cls-4" cx="180.7619" cy="95.6248" r="2.4644"/><circle class="cls-4" cx="172.8112" cy="95.6248" r="2.3201"/><circle class="cls-4" cx="164.8606" cy="95.6248" r="2.1758"/><circle class="cls-4" cx="156.91" cy="95.6248" r="2.0315"/><circle class="cls-4" cx="148.9594" cy="95.6248" r="1.8872"/><circle class="cls-4" cx="141.0087" cy="95.6248" r="1.7429"/><circle class="cls-4" cx="133.0581" cy="95.6248" r="1.5986"/><circle class="cls-4" cx="125.1075" cy="95.6248" r="1.4543"/><circle class="cls-4" cx="117.1568" cy="95.6248" r="1.31"/><circle class="cls-4" cx="109.2062" cy="95.6248" r="1.1657"/><circle class="cls-4" cx="101.2556" cy="95.6248" r="1.0214"/><circle class="cls-4" cx="93.3049" cy="95.6248" r="0.8771"/><circle class="cls-4" cx="85.3543" cy="95.6248" r="0.7328"/><circle class="cls-4" cx="77.4037" cy="95.6248" r="0.5885"/><circle class="cls-4" cx="188.7125" cy="103.4675" r="2.6087"/><circle class="cls-4" cx="180.7619" cy="103.4675" r="2.4644"/><circle class="cls-4" cx="172.8112" cy="103.4675" r="2.3201"/><circle class="cls-4" cx="164.8606" cy="103.4675" r="2.1758"/><circle class="cls-4" cx="156.91" cy="103.4675" r="2.0315"/><circle class="cls-4" cx="148.9594" cy="103.4675" r="1.8872"/><circle class="cls-4" cx="141.0087" cy="103.4675" r="1.7429"/><circle class="cls-4" cx="133.0581" cy="103.4675" r="1.5986"/><circle class="cls-4" cx="125.1075" cy="103.4675" r="1.4543"/><circle class="cls-4" cx="117.1568" cy="103.4675" r="1.31"/><circle class="cls-4" cx="109.2062" cy="103.4675" r="1.1657"/><circle class="cls-4" cx="101.2556" cy="103.4675" r="1.0214"/><circle class="cls-4" cx="93.3049" cy="103.4675" r="0.8771"/><circle class="cls-4" cx="85.3543" cy="103.4675" r="0.7328"/><circle class="cls-4" cx="77.4037" cy="103.4675" r="0.5885"/><circle class="cls-4" cx="188.7125" cy="111.3103" r="2.6087"/><circle class="cls-4" cx="180.7619" cy="111.3103" r="2.4644"/><circle class="cls-4" cx="172.8112" cy="111.3103" r="2.3201"/><circle class="cls-4" cx="164.8606" cy="111.3103" r="2.1758"/><circle class="cls-4" cx="156.91" cy="111.3103" r="2.0315"/><circle class="cls-4" cx="148.9594" cy="111.3103" r="1.8872"/><circle class="cls-4" cx="141.0087" cy="111.3103" r="1.7429"/><circle class="cls-4" cx="133.0581" cy="111.3103" r="1.5986"/><circle class="cls-4" cx="125.1075" cy="111.3103" r="1.4543"/><circle class="cls-4" cx="117.1568" cy="111.3103" r="1.31"/><circle class="cls-4" cx="109.2062" cy="111.3103" r="1.1657"/><circle class="cls-4" cx="101.2556" cy="111.3103" r="1.0214"/><circle class="cls-4" cx="93.3049" cy="111.3103" r="0.8771"/><circle class="cls-4" cx="85.3543" cy="111.3103" r="0.7328"/><circle class="cls-4" cx="77.4037" cy="111.3103" r="0.5885"/><circle class="cls-4" cx="188.7125" cy="119.153" r="2.6087"/><circle class="cls-4" cx="180.7619" cy="119.153" r="2.4644"/><circle class="cls-4" cx="172.8112" cy="119.153" r="2.3201"/><circle class="cls-4" cx="164.8606" cy="119.153" r="2.1758"/><circle class="cls-4" cx="156.91" cy="119.153" r="2.0315"/><circle class="cls-4" cx="148.9594" cy="119.153" r="1.8872"/><circle class="cls-4" cx="141.0087" cy="119.153" r="1.7429"/><circle class="cls-4" cx="133.0581" cy="119.153" r="1.5986"/><circle class="cls-4" cx="125.1075" cy="119.153" r="1.4543"/><circle class="cls-4" cx="117.1568" cy="119.153" r="1.31"/><circle class="cls-4" cx="109.2062" cy="119.153" r="1.1657"/><circle class="cls-4" cx="101.2556" cy="119.153" r="1.0214"/><circle class="cls-4" cx="93.3049" cy="119.153" r="0.8771"/><circle class="cls-4" cx="85.3543" cy="119.153" r="0.7328"/><circle class="cls-4" cx="77.4037" cy="119.153" r="0.5885"/><circle class="cls-4" cx="188.7125" cy="126.9958" r="2.6087"/><circle class="cls-4" cx="180.7619" cy="126.9958" r="2.4644"/><circle class="cls-4" cx="172.8112" cy="126.9958" r="2.3201"/><circle class="cls-4" cx="164.8606" cy="126.9958" r="2.1758"/><circle class="cls-4" cx="156.91" cy="126.9958" r="2.0315"/><circle class="cls-4" cx="148.9594" cy="126.9958" r="1.8872"/><circle class="cls-4" cx="141.0087" cy="126.9958" r="1.7429"/><circle class="cls-4" cx="133.0581" cy="126.9958" r="1.5986"/><circle class="cls-4" cx="125.1075" cy="126.9958" r="1.4543"/><circle class="cls-4" cx="117.1568" cy="126.9958" r="1.31"/><circle class="cls-4" cx="109.2062" cy="126.9958" r="1.1657"/><circle class="cls-4" cx="101.2556" cy="126.9958" r="1.0214"/><circle class="cls-4" cx="93.3049" cy="126.9958" r="0.8771"/><circle class="cls-4" cx="85.3543" cy="126.9958" r="0.7328"/><circle class="cls-4" cx="77.4037" cy="126.9958" r="0.5885"/><circle class="cls-4" cx="188.7125" cy="134.8385" r="2.6087"/><circle class="cls-4" cx="180.7619" cy="134.8385" r="2.4644"/><circle class="cls-4" cx="172.8112" cy="134.8385" r="2.3201"/><circle class="cls-4" cx="164.8606" cy="134.8385" r="2.1758"/><circle class="cls-4" cx="156.91" cy="134.8385" r="2.0315"/><circle class="cls-4" cx="148.9594" cy="134.8385" r="1.8872"/><circle class="cls-4" cx="141.0087" cy="134.8385" r="1.7429"/><circle class="cls-4" cx="133.0581" cy="134.8385" r="1.5986"/><circle class="cls-4" cx="125.1075" cy="134.8385" r="1.4543"/><circle class="cls-4" cx="117.1568" cy="134.8385" r="1.31"/><circle class="cls-4" cx="109.2062" cy="134.8385" r="1.1657"/><circle class="cls-4" cx="101.2556" cy="134.8385" r="1.0214"/><circle class="cls-4" cx="93.3049" cy="134.8385" r="0.8771"/><circle class="cls-4" cx="85.3543" cy="134.8385" r="0.7328"/><circle class="cls-4" cx="77.4037" cy="134.8385" r="0.5885"/><circle class="cls-4" cx="188.7125" cy="142.6812" r="2.6087"/><circle class="cls-4" cx="180.7619" cy="142.6812" r="2.4644"/><circle class="cls-4" cx="172.8112" cy="142.6812" r="2.3201"/><circle class="cls-4" cx="164.8606" cy="142.6812" r="2.1758"/><circle class="cls-4" cx="156.91" cy="142.6812" r="2.0315"/><circle class="cls-4" cx="148.9594" cy="142.6812" r="1.8872"/><circle class="cls-4" cx="141.0087" cy="142.6812" r="1.7429"/><circle class="cls-4" cx="133.0581" cy="142.6812" r="1.5986"/><circle class="cls-4" cx="125.1075" cy="142.6812" r="1.4543"/><circle class="cls-4" cx="117.1568" cy="142.6812" r="1.31"/><circle class="cls-4" cx="109.2062" cy="142.6812" r="1.1657"/><circle class="cls-4" cx="101.2556" cy="142.6812" r="1.0214"/><circle class="cls-4" cx="93.3049" cy="142.6812" r="0.8771"/><circle class="cls-4" cx="85.3543" cy="142.6812" r="0.7328"/><circle class="cls-4" cx="77.4037" cy="142.6812" r="0.5885"/><circle class="cls-4" cx="188.7125" cy="150.524" r="2.6087"/><circle class="cls-4" cx="180.7619" cy="150.524" r="2.4644"/><circle class="cls-4" cx="172.8112" cy="150.524" r="2.3201"/><circle class="cls-4" cx="164.8606" cy="150.524" r="2.1758"/><circle class="cls-4" cx="156.91" cy="150.524" r="2.0315"/><circle class="cls-4" cx="148.9594" cy="150.524" r="1.8872"/><circle class="cls-4" cx="141.0087" cy="150.524" r="1.7429"/><circle class="cls-4" cx="133.0581" cy="150.524" r="1.5986"/><circle class="cls-4" cx="125.1075" cy="150.524" r="1.4543"/><circle class="cls-4" cx="117.1568" cy="150.524" r="1.31"/><circle class="cls-4" cx="109.2062" cy="150.524" r="1.1657"/><circle class="cls-4" cx="101.2556" cy="150.524" r="1.0214"/><circle class="cls-4" cx="93.3049" cy="150.524" r="0.8771"/><circle class="cls-4" cx="85.3543" cy="150.524" r="0.7328"/><circle class="cls-4" cx="77.4037" cy="150.524" r="0.5885"/><circle class="cls-4" cx="188.7125" cy="158.3667" r="2.6087"/><circle class="cls-4" cx="180.7619" cy="158.3667" r="2.4644"/><circle class="cls-4" cx="172.8112" cy="158.3667" r="2.3201"/><circle class="cls-4" cx="164.8606" cy="158.3667" r="2.1758"/><circle class="cls-4" cx="156.91" cy="158.3667" r="2.0315"/><circle class="cls-4" cx="148.9594" cy="158.3667" r="1.8872"/><circle class="cls-4" cx="141.0087" cy="158.3667" r="1.7429"/><circle class="cls-4" cx="133.0581" cy="158.3667" r="1.5986"/><circle class="cls-4" cx="125.1075" cy="158.3667" r="1.4543"/><circle class="cls-4" cx="117.1568" cy="158.3667" r="1.31"/><circle class="cls-4" cx="109.2062" cy="158.3667" r="1.1657"/><circle class="cls-4" cx="101.2556" cy="158.3667" r="1.0214"/><circle class="cls-4" cx="93.3049" cy="158.3667" r="0.8771"/><circle class="cls-4" cx="85.3543" cy="158.3667" r="0.7328"/><circle class="cls-4" cx="77.4037" cy="158.3667" r="0.5885"/><circle class="cls-4" cx="188.7125" cy="166.2095" r="2.6087"/><circle class="cls-4" cx="180.7619" cy="166.2095" r="2.4644"/><circle class="cls-4" cx="172.8112" cy="166.2095" r="2.3201"/><circle class="cls-4" cx="164.8606" cy="166.2095" r="2.1758"/><circle class="cls-4" cx="156.91" cy="166.2095" r="2.0315"/><circle class="cls-4" cx="148.9594" cy="166.2095" r="1.8872"/><circle class="cls-4" cx="141.0087" cy="166.2095" r="1.7429"/><circle class="cls-4" cx="133.0581" cy="166.2095" r="1.5986"/><circle class="cls-4" cx="125.1075" cy="166.2095" r="1.4543"/><circle class="cls-4" cx="117.1568" cy="166.2095" r="1.31"/><circle class="cls-4" cx="109.2062" cy="166.2095" r="1.1657"/><circle class="cls-4" cx="101.2556" cy="166.2095" r="1.0214"/><circle class="cls-4" cx="93.3049" cy="166.2095" r="0.8771"/><circle class="cls-4" cx="85.3543" cy="166.2095" r="0.7328"/><circle class="cls-4" cx="77.4037" cy="166.2095" r="0.5885"/><circle class="cls-4" cx="188.7125" cy="174.0522" r="2.6087"/><circle class="cls-4" cx="180.7619" cy="174.0522" r="2.4644"/><circle class="cls-4" cx="172.8112" cy="174.0522" r="2.3201"/><circle class="cls-4" cx="164.8606" cy="174.0522" r="2.1758"/><circle class="cls-4" cx="156.91" cy="174.0522" r="2.0315"/><circle class="cls-4" cx="148.9594" cy="174.0522" r="1.8872"/><circle class="cls-4" cx="141.0087" cy="174.0522" r="1.7429"/><circle class="cls-4" cx="133.0581" cy="174.0522" r="1.5986"/><circle class="cls-4" cx="125.1075" cy="174.0522" r="1.4543"/><circle class="cls-4" cx="117.1568" cy="174.0522" r="1.31"/><circle class="cls-4" cx="109.2062" cy="174.0522" r="1.1657"/><circle class="cls-4" cx="101.2556" cy="174.0522" r="1.0214"/><circle class="cls-4" cx="93.3049" cy="174.0522" r="0.8771"/><circle class="cls-4" cx="85.3543" cy="174.0522" r="0.7328"/><circle class="cls-4" cx="77.4037" cy="174.0522" r="0.5885"/><circle class="cls-4" cx="188.7125" cy="181.8949" r="2.6087"/><circle class="cls-4" cx="180.7619" cy="181.8949" r="2.4644"/><circle class="cls-4" cx="172.8112" cy="181.8949" r="2.3201"/><circle class="cls-4" cx="164.8606" cy="181.8949" r="2.1758"/><circle class="cls-4" cx="156.91" cy="181.8949" r="2.0315"/><circle class="cls-4" cx="148.9594" cy="181.8949" r="1.8872"/><circle class="cls-4" cx="141.0087" cy="181.8949" r="1.7429"/><circle class="cls-4" cx="133.0581" cy="181.8949" r="1.5986"/><circle class="cls-4" cx="125.1075" cy="181.8949" r="1.4543"/><circle class="cls-4" cx="117.1568" cy="181.8949" r="1.31"/><circle class="cls-4" cx="109.2062" cy="181.8949" r="1.1657"/><circle class="cls-4" cx="101.2556" cy="181.8949" r="1.0214"/><circle class="cls-4" cx="93.3049" cy="181.8949" r="0.8771"/><circle class="cls-4" cx="85.3543" cy="181.8949" r="0.7328"/><circle class="cls-4" cx="77.4037" cy="181.8949" r="0.5885"/></g><g class="cls-2"><path class="cls-5" d="M160.8964,22.0605a11.674,11.674,0,0,1,.8637,4.3625c0,15.3771-31.6872,34.952-70.7742,34.952S20.2107,41.8,20.2107,26.423a11.433,11.433,0,0,1,.4953-3.3114"/><path class="cls-5" d="M191.3125,92.5c0,37.3762-44.9179,67.6756-100.327,67.6756S-9.3416,129.8766-9.3416,92.5"/><path class="cls-5" d="M191.3125,34.2842c0,37.3763-44.9179,67.6757-100.327,67.6757S-9.3416,71.6605-9.3416,34.2842"/><path class="cls-6" d="M187.6372,85.4585c0,21.2766-43.2725,45.5665-96.6517,45.5665s-96.6518-24.29-96.6518-45.5665"/><ellipse class="cls-5" cx="91.3136" cy="6.3654" rx="24.5628" ry="7.7324"/><ellipse class="cls-7" cx="90.9855" cy="92.5004" rx="69.2657" ry="94.6579"/><line class="cls-8" x1="90.9855" y1="-9.0508" x2="90.9855" y2="196.7127"/></g><path class="cls-3" d="M222.3681,104.3436l14.6933-33.0713h7.5591l14.835,33.0713h-8.0318L239.2816,75.1463h3.0713l-12.1421,29.1973Zm7.4174-7.0869,1.9371-5.8106h17.1025l1.9844,5.8106Z"/><path class="cls-3" d="M278.8725,104.911a20.2684,20.2684,0,0,1-7.2286-1.252,16.463,16.463,0,0,1-9.4726-9.001,18.1014,18.1014,0,0,1,0-13.7,16.2253,16.2253,0,0,1,3.8032-5.4336,17.1715,17.1715,0,0,1,5.7637-3.5673,21.9436,21.9436,0,0,1,15.1894.2129,15.6846,15.6846,0,0,1,5.9292,4.2519l-4.8662,4.5361a12.1819,12.1819,0,0,0-3.9687-2.8584,11.6369,11.6369,0,0,0-4.6773-.9218,11.785,11.785,0,0,0-4.3462.7793,10.0968,10.0968,0,0,0-3.4253,2.1972,9.7582,9.7582,0,0,0-2.2207,3.3545,12.0527,12.0527,0,0,0,0,8.5274,9.69,9.69,0,0,0,2.2207,3.3779,10.42,10.42,0,0,0,3.4014,2.2207,11.285,11.285,0,0,0,4.3233.8037,12.7141,12.7141,0,0,0,8.5986-3.26l4.3462,5.5274a19.631,19.631,0,0,1-6.2837,3.1416A24.5374,24.5374,0,0,1,278.8725,104.911Zm6.3779-5.1973V87.2879h6.9922v13.418Z"/><path class="cls-3" d="M306.9359,98.202h18v6.1416H299.33V71.2723h24.9927v6.1416H306.9359Zm-.5669-13.6543H322.29v6H306.369Z"/><path class="cls-3" d="M347.0932,104.911a19.9165,19.9165,0,0,1-7.2286-1.2764,17.4629,17.4629,0,0,1-5.7636-3.59,16.2153,16.2153,0,0,1-3.8032-5.4336,17.9229,17.9229,0,0,1,0-13.63,16.2991,16.2991,0,0,1,3.8032-5.41,17.5282,17.5282,0,0,1,5.74-3.59,19.7294,19.7294,0,0,1,7.2051-1.2764,20.0839,20.0839,0,0,1,7.2051,1.252,17.2437,17.2437,0,0,1,5.74,3.5673,16.2382,16.2382,0,0,1,3.8027,5.4336,18.0356,18.0356,0,0,1,0,13.6768,16.1661,16.1661,0,0,1-3.8027,5.457,17.2279,17.2279,0,0,1-5.74,3.5674A19.9475,19.9475,0,0,1,347.0932,104.911Zm-.0469-6.4727a10.4879,10.4879,0,0,0,4.0869-.78,9.9314,9.9314,0,0,0,3.2832-2.22,10.2541,10.2541,0,0,0,2.1963-3.3545,12.1054,12.1054,0,0,0,0-8.5517,10.2541,10.2541,0,0,0-2.1963-3.3545,9.963,9.963,0,0,0-3.2832-2.2207,10.5039,10.5039,0,0,0-4.0869-.7793,10.6716,10.6716,0,0,0-4.11.7793,9.6315,9.6315,0,0,0-3.2837,2.2207,10.4477,10.4477,0,0,0-2.1733,3.3545,12.12,12.12,0,0,0,0,8.5517,10.4477,10.4477,0,0,0,2.1733,3.3545,9.602,9.602,0,0,0,3.2837,2.22A10.6553,10.6553,0,0,0,347.0463,98.4383Z"/><path class="cls-3" d="M370.9037,104.3436V71.2723h6.3311l14.0791,23.3389h-3.3545l13.7959-23.3389h6.3779v33.0713h-7.1338L400.9047,82.28h1.417l-11.1494,18.5205h-3.4014l-11.292-18.52h1.56v22.0635Z"/><path class="cls-3" d="M415.975,104.3436V71.2723h6.3311l14.0791,23.3389h-3.3545l13.7959-23.3389h6.3779v33.0713h-7.1338L445.976,82.28h1.417l-11.1494,18.5205h-3.4014L421.55,82.28h1.56v22.0635Z"/><path class="cls-3" d="M461.0463,104.3436V71.2723h7.7012v33.0713Z"/><path class="cls-3" d="M476.5424,104.3436V71.2723h6.331l19.5127,23.8115h-3.0713V71.2723h7.56v33.0713h-6.331L481.0307,80.5321h3.0713v23.8115Z"/><path class="cls-3" d="M514.7162,104.3436V71.2723h7.7012v33.0713Z"/><path class="cls-3" d="M530.2123,104.3436V71.2723h6.3311l19.5127,23.8115h-3.0713V71.2723h7.56v33.0713h-6.331L534.7006,80.5321h3.0713v23.8115Z"/><path class="cls-3" d="M584.3539,104.911a20.2738,20.2738,0,0,1-7.2285-1.252,16.4657,16.4657,0,0,1-9.4717-9.001,18.0951,18.0951,0,0,1,0-13.7,16.2253,16.2253,0,0,1,3.8027-5.4336,17.1715,17.1715,0,0,1,5.7637-3.5673A21.9439,21.9439,0,0,1,592.41,72.17a15.691,15.691,0,0,1,5.93,4.2519l-4.8663,4.5361a12.1872,12.1872,0,0,0-3.9687-2.8584,11.6426,11.6426,0,0,0-4.6777-.9218,11.7892,11.7892,0,0,0-4.3467.7793,10.0927,10.0927,0,0,0-3.4248,2.1972,9.7554,9.7554,0,0,0-2.2207,3.3545,12.0527,12.0527,0,0,0,0,8.5274,9.6873,9.6873,0,0,0,2.2207,3.3779,10.4085,10.4085,0,0,0,3.4013,2.2207,11.2868,11.2868,0,0,0,4.3233.8037,12.7136,12.7136,0,0,0,8.5986-3.26l4.3467,5.5274a19.6326,19.6326,0,0,1-6.2842,3.1416A24.5433,24.5433,0,0,1,584.3539,104.911Zm6.3789-5.1973V87.2879h6.9922v13.418Z"/><path class="cls-9" d="M289.2821,134.699a7.9144,7.9144,0,0,1-3.3012-.6738,6.7481,6.7481,0,0,1-2.4854-1.89,6.4792,6.4792,0,0,1-1.3335-2.8223l2.0454-.4922.2847.0518a4.97,4.97,0,0,0,.9839,1.8769,5.1264,5.1264,0,0,0,1.6958,1.334,4.7054,4.7054,0,0,0,2.11.4922,5.4593,5.4593,0,0,0,2.1363-.3887,3.4636,3.4636,0,0,0,1.45-1.0879,2.5817,2.5817,0,0,0,.5307-1.6045,2.4413,2.4413,0,0,0-.686-1.8642,4.4567,4.4567,0,0,0-1.9028-.9844l-3.4956-.958a6.4244,6.4244,0,0,1-3.2623-1.89,4.6134,4.6134,0,0,1-.3623-5.5284,5.1125,5.1125,0,0,1,2.084-1.7343,7.1248,7.1248,0,0,1,3.0943-.6348,7.2817,7.2817,0,0,1,3.0678.6348,5.9233,5.9233,0,0,1,3.4566,4.4658l-1.9937.44-.2846-.0517a4.1359,4.1359,0,0,0-1.4888-2.46,4.3679,4.3679,0,0,0-2.7832-.9063,4.1016,4.1016,0,0,0-2.5894.7647,2.4426,2.4426,0,0,0-.9839,2.0322,2.238,2.238,0,0,0,.6993,1.6826,4.6311,4.6311,0,0,0,2.0195,1.0362l3.4692.958a6.4324,6.4324,0,0,1,3.1587,1.8125,4.4114,4.4114,0,0,1,1.1133,3.0547,4.8836,4.8836,0,0,1-.8022,2.7959,5.3571,5.3571,0,0,1-2.253,1.8642A7.9758,7.9758,0,0,1,289.2821,134.699Z"/><path class="cls-9" d="M304.4027,134.699a6.38,6.38,0,0,1-3.34-.8681,6.0475,6.0475,0,0,1-2.2656-2.3945,7.4793,7.4793,0,0,1-.8155-3.5733,7.5955,7.5955,0,0,1,.8028-3.56,5.8873,5.8873,0,0,1,2.2392-2.3955,6.3387,6.3387,0,0,1,3.3013-.8545,5.9488,5.9488,0,0,1,3.2236.8682,5.8623,5.8623,0,0,1,2.1621,2.4463,8.2371,8.2371,0,0,1,.7764,3.6768v.31l-.3882.3623h-10.9v-2.0449h10.0977l-1.0357.414a4.5109,4.5109,0,0,0-.6215-2.123,3.7732,3.7732,0,0,0-3.314-1.8389,4.1094,4.1094,0,0,0-2.0972.5567,3.9216,3.9216,0,0,0-1.5014,1.5674,4.8322,4.8322,0,0,0-.544,2.33v.5176a4.855,4.855,0,0,0,.544,2.3174,4.178,4.178,0,0,0,1.5014,1.6182,4.03,4.03,0,0,0,2.1748.5957,3.6648,3.6648,0,0,0,2.0713-.583,3.93,3.93,0,0,0,1.3726-1.5918h.31l1.8125.8017a5.66,5.66,0,0,1-2.188,2.5244A6.2117,6.2117,0,0,1,304.4027,134.699Z"/><path class="cls-9" d="M313.2572,134.3621V121.3905H315.38v3.65l-.6216-.3876a4.4058,4.4058,0,0,1,1.7349-2.3819,4.8793,4.8793,0,0,1,2.8481-.8808h1.32v2.0712h-1.6572a3.3579,3.3579,0,0,0-1.8511.5049,3.4932,3.4932,0,0,0-1.2427,1.3985,4.5472,4.5472,0,0,0-.4531,2.0839v6.9131Z"/><path class="cls-9" d="M326.3837,134.3621l-5.2559-12.7646v-.207h2.2784l4.5053,11.1591.0777,1.8125Zm.57,0,.0518-1.8125,4.5049-11.1591h2.2788v.207l-5.2559,12.7646Z"/><path class="cls-9" d="M336.8954,118.9823a1.5028,1.5028,0,0,1-1.5278-1.5274,1.5221,1.5221,0,0,1,.44-1.1006,1.4563,1.4563,0,0,1,1.0874-.4531,1.547,1.547,0,0,1,1.5532,1.5537,1.4584,1.4584,0,0,1-.4531,1.0879A1.5214,1.5214,0,0,1,336.8954,118.9823Zm-1.1133,15.38V121.3905h2.2007v12.9716Z"/><path class="cls-9" d="M347.329,134.699a6.6208,6.6208,0,0,1-3.4175-.8681,6.0816,6.0816,0,0,1-2.3042-2.3945,8.09,8.09,0,0,1,0-7.1329,5.9827,5.9827,0,0,1,2.3042-2.3955,6.7008,6.7008,0,0,1,3.4175-.8545,6.4041,6.4041,0,0,1,2.6548.5313,5.7742,5.7742,0,0,1,2.0185,1.5019,6.2968,6.2968,0,0,1,1.2559,2.3692l-1.916.543h-.2842a4.2367,4.2367,0,0,0-1.4375-2.084,3.6649,3.6649,0,0,0-2.2915-.7637,4.29,4.29,0,0,0-2.291.5957,4.0787,4.0787,0,0,0-1.5147,1.6572,5.3188,5.3188,0,0,0-.5439,2.459,5.397,5.397,0,0,0,.5439,2.4727,4.0522,4.0522,0,0,0,1.5147,1.67,4.29,4.29,0,0,0,2.291.5957,4.0068,4.0068,0,0,0,1.6577-.3369,3.7158,3.7158,0,0,0,1.3076-.9834,4.7261,4.7261,0,0,0,.8672-1.5274h.2842l1.9424.544a6.8277,6.8277,0,0,1-1.3467,2.3945,5.7348,5.7348,0,0,1-2.0576,1.502A6.6942,6.6942,0,0,1,347.329,134.699Z"/><path class="cls-9" d="M357.142,118.9823a1.5013,1.5013,0,0,1-1.5274-1.5274,1.525,1.525,0,0,1,.44-1.1006,1.4588,1.4588,0,0,1,1.0879-.4531,1.547,1.547,0,0,1,1.5537,1.5537,1.4588,1.4588,0,0,1-.4531,1.0879A1.5235,1.5235,0,0,1,357.142,118.9823Zm-1.1133,15.38V121.3905h2.2v12.9716Z"/><path class="cls-9" d="M367.473,134.699a6.377,6.377,0,0,1-3.34-.8681,6.1107,6.1107,0,0,1-2.2793-2.4072,8.0667,8.0667,0,0,1,0-7.12,6.0338,6.0338,0,0,1,2.2793-2.3955,7.0039,7.0039,0,0,1,6.7051,0,6.0321,6.0321,0,0,1,2.2783,2.3955,8.058,8.058,0,0,1,0,7.12,6.109,6.109,0,0,1-2.2783,2.4072A6.4322,6.4322,0,0,1,367.473,134.699Zm.0254-2.0976a4.0923,4.0923,0,0,0,2.1885-.582,4.05,4.05,0,0,0,1.4883-1.6446,5.4472,5.4472,0,0,0,.5439-2.5117,5.3664,5.3664,0,0,0-.5439-2.498,3.9721,3.9721,0,0,0-3.6768-2.2139,4.1969,4.1969,0,0,0-2.2265.583,4.0379,4.0379,0,0,0-1.502,1.6309,5.3664,5.3664,0,0,0-.5429,2.498,5.4637,5.4637,0,0,0,.5429,2.499,4.0129,4.0129,0,0,0,1.502,1.6573A4.2055,4.2055,0,0,0,367.4984,132.6014Z"/><path class="cls-9" d="M381.0131,134.699a5.8312,5.8312,0,0,1-3.4434-.9843,4.7014,4.7014,0,0,1-1.8642-2.7442l2.02-.4922.2852.0518a2.6488,2.6488,0,0,0,1.1513,1.541,3.6813,3.6813,0,0,0,2.0332.5567,3.5488,3.5488,0,0,0,1.9805-.5313,1.5949,1.5949,0,0,0,.8154-1.3848,1.4372,1.4372,0,0,0-.4795-1.1269,3.1472,3.1472,0,0,0-1.4365-.6338l-2.4082-.5439a5.1207,5.1207,0,0,1-2.68-1.3467,3.1549,3.1549,0,0,1-.8672-2.2266,3.313,3.313,0,0,1,.6084-1.9678,4.0033,4.0033,0,0,1,1.6963-1.333,6.0378,6.0378,0,0,1,2.459-.48,5.6248,5.6248,0,0,1,3.3662.9844,4.6563,4.6563,0,0,1,1.8125,2.7959l-2.0195.4151-.2852-.0528a2.4174,2.4174,0,0,0-1.0742-1.5273,3.3442,3.3442,0,0,0-1.8516-.544,3.2429,3.2429,0,0,0-1.7734.4532,1.3559,1.3559,0,0,0-.7119,1.1787,1.2788,1.2788,0,0,0,.4531.997,3.1554,3.1554,0,0,0,1.4375.6084l2.4336.5694a5.3362,5.3362,0,0,1,2.6924,1.32,3.2054,3.2054,0,0,1,.8809,2.33,3.555,3.555,0,0,1-.6866,2.1875,4.4633,4.4633,0,0,1-1.8642,1.4248A6.7562,6.7562,0,0,1,381.0131,134.699Z"/><path class="cls-9" d="M400.0951,134.699a5.7574,5.7574,0,0,1-3.1328-.8808,6.2519,6.2519,0,0,1-2.2139-2.4209,8.01,8.01,0,0,1,0-7.042,6.2589,6.2589,0,0,1,2.2139-2.4209,5.7575,5.7575,0,0,1,3.1328-.8809,5.6156,5.6156,0,0,1,2.4727.544,5.69,5.69,0,0,1,1.916,1.4892,5.99,5.99,0,0,1,1.1523,2.1875v5.2041a6.143,6.143,0,0,1-1.1523,2.1749,5.5856,5.5856,0,0,1-4.3887,2.0458Zm.1553-2.0976a4.0587,4.0587,0,0,0,2.2266-.6084,4.294,4.294,0,0,0,1.5146-1.67,5.7123,5.7123,0,0,0,0-4.919,4.204,4.204,0,0,0-1.5146-1.6572,4.1259,4.1259,0,0,0-2.2266-.5957,3.8739,3.8739,0,0,0-2.11.5957,4.0517,4.0517,0,0,0-1.4755,1.6572,5.9687,5.9687,0,0,0,0,4.919,4.1376,4.1376,0,0,0,1.4755,1.67A3.8123,3.8123,0,0,0,400.25,132.6014Zm4.376,1.7607v-4.6347l.3877-1.8643-.4912-1.8379V115.7205l2.1484-.2588.0781.2071v18.6933Z"/><path class="cls-9" d="M416.07,134.699a6.382,6.382,0,0,1-3.34-.8681,6.0475,6.0475,0,0,1-2.2656-2.3945,7.4735,7.4735,0,0,1-.8155-3.5733,7.5955,7.5955,0,0,1,.8028-3.56,5.8873,5.8873,0,0,1,2.2392-2.3955,6.3393,6.3393,0,0,1,3.3018-.8545,5.9453,5.9453,0,0,1,3.2226.8682,5.8555,5.8555,0,0,1,2.1621,2.4463,8.2237,8.2237,0,0,1,.7774,3.6768v.31l-.3887.3623h-10.9v-2.0449h10.0977l-1.0352.414a4.5169,4.5169,0,0,0-.622-2.123,3.7716,3.7716,0,0,0-3.3135-1.8389,4.1112,4.1112,0,0,0-2.0977.5567,3.9281,3.9281,0,0,0-1.5019,1.5674,4.8376,4.8376,0,0,0-.543,2.33v.5176a4.86,4.86,0,0,0,.543,2.3174,4.1852,4.1852,0,0,0,1.5019,1.6182,4.03,4.03,0,0,0,2.1748.5957,3.6648,3.6648,0,0,0,2.0713-.583,3.9292,3.9292,0,0,0,1.3721-1.5918h.3115l1.8115.8017a5.662,5.662,0,0,1-2.1875,2.5244A6.2129,6.2129,0,0,1,416.07,134.699Z"/><path class="cls-9" d="M431.0082,134.3621v-18.124h2.2012v18.124Z"/><path class="cls-9" d="M437.015,134.3621V121.3905h2.1231v3.65l-.6211-.3876a4.8867,4.8867,0,0,1,1.1387-1.9161,5.4445,5.4445,0,0,1,1.8252-1.2431,5.7354,5.7354,0,0,1,2.24-.4405,5.17,5.17,0,0,1,2.498.5957,4.19,4.19,0,0,1,1.7217,1.7608,6.1724,6.1724,0,0,1,.6221,2.9258v8.0263h-2.2012V126.88a4.9491,4.9491,0,0,0-.414-2.2139,2.4374,2.4374,0,0,0-1.127-1.1523,3.7524,3.7524,0,0,0-1.6182-.3369,4.0629,4.0629,0,0,0-1.9023.48,3.8072,3.8072,0,0,0-1.502,1.4365,4.5146,4.5146,0,0,0-.583,2.3828v6.8867Z"/><path class="cls-9" d="M456.0453,139.5408a6.6261,6.6261,0,0,1-3.9609-1.0361,3.28,3.28,0,0,1-1.4248-2.7959,3.5893,3.5893,0,0,1,.5566-1.9814,3.5454,3.5454,0,0,1,1.6445-1.333l1.1133,1.1132a1.98,1.98,0,0,0-.88.751,1.9451,1.9451,0,0,0-.3115,1.0615,1.9875,1.9875,0,0,0,.79,1.6182,3.4931,3.4931,0,0,0,2.2392.6348h1.8125a4.6471,4.6471,0,0,0,2.3565-.5049,1.6279,1.6279,0,0,0,.8545-1.4893,1.3174,1.3174,0,0,0-.5567-1.1132,2.7385,2.7385,0,0,0-1.6445-.4141h-3.4951a4.5438,4.5438,0,0,1-1.877-.376,3.29,3.29,0,0,1-1.334-1.0351,2.5147,2.5147,0,0,1-.4912-1.5411,2.6573,2.6573,0,0,1,.5176-1.5791,3.3675,3.3675,0,0,1,1.6055-1.1386l1.2168,1.0869a1.5947,1.5947,0,0,0-.9971.5049,1.36,1.36,0,0,0-.2979.8672,1.0691,1.0691,0,0,0,.4922.9326,2.3528,2.3528,0,0,0,1.3467.3359h3.3916a4.6418,4.6418,0,0,1,3.0811.958,3.1258,3.1258,0,0,1,1.1386,2.5117,3.4045,3.4045,0,0,1-1.4492,2.9,6.44,6.44,0,0,1-3.8838,1.0615Zm.8545-9.2431a5.913,5.913,0,0,1-2.7061-.5957,4.617,4.617,0,0,1-1.8251-6.4473,4.3935,4.3935,0,0,1,1.8251-1.6182,6.0248,6.0248,0,0,1,2.7061-.583,5.9264,5.9264,0,0,1,2.7061.583,4.5168,4.5168,0,0,1,1.8115,1.6182,4.6979,4.6979,0,0,1,0,4.8027,4.5775,4.5775,0,0,1-1.8115,1.6446A5.8167,5.8167,0,0,1,456.9,130.2977Zm0-1.916a3.2467,3.2467,0,0,0,2.2266-.751,2.4955,2.4955,0,0,0,.8545-1.9678,2.4683,2.4683,0,0,0-.8545-1.9424,3.6955,3.6955,0,0,0-4.4659,0,2.4828,2.4828,0,0,0-.8418,1.9424,2.5105,2.5105,0,0,0,.8418,1.9678A3.2345,3.2345,0,0,0,456.9,128.3817Zm3.5469-5.36-1.45-.9062a3.7915,3.7915,0,0,1,.4277-1.8116,3.32,3.32,0,0,1,1.126-1.2558,2.841,2.841,0,0,1,1.5791-.4531c.1387,0,.2891.0039.4531.0127a1.2531,1.2531,0,0,1,.376.0644v1.9941l-.13.2842a2.1854,2.1854,0,0,0-.6211-.0771,1.5342,1.5342,0,0,0-1.32.5957A2.5446,2.5446,0,0,0,460.4467,123.0213Z"/><path class="cls-9" d="M470.6215,134.699a6.3821,6.3821,0,0,1-3.34-.8681,6.0482,6.0482,0,0,1-2.2656-2.3945,7.4746,7.4746,0,0,1-.8154-3.5733,7.5967,7.5967,0,0,1,.8027-3.56,5.8882,5.8882,0,0,1,2.2393-2.3955,6.3392,6.3392,0,0,1,3.3017-.8545,5.9459,5.9459,0,0,1,3.2227.8682,5.8569,5.8569,0,0,1,2.1621,2.4463,8.2237,8.2237,0,0,1,.7773,3.6768v.31l-.3886.3623h-10.9v-2.0449H475.515l-1.0351.414a4.5181,4.5181,0,0,0-.6221-2.123,3.7713,3.7713,0,0,0-3.3135-1.8389,4.1111,4.1111,0,0,0-2.0976.5567,3.929,3.929,0,0,0-1.502,1.5674,4.8375,4.8375,0,0,0-.5429,2.33v.5176a4.86,4.86,0,0,0,.5429,2.3174,4.1862,4.1862,0,0,0,1.502,1.6182,4.03,4.03,0,0,0,2.1748.5957,3.665,3.665,0,0,0,2.0713-.583,3.929,3.929,0,0,0,1.372-1.5918h.3116l1.8115.8017A5.662,5.662,0,0,1,474,133.7791,6.2131,6.2131,0,0,1,470.6215,134.699Z"/><path class="cls-9" d="M479.477,134.3621V121.3905H481.6v3.65l-.6211-.3876a4.8867,4.8867,0,0,1,1.1387-1.9161,5.4465,5.4465,0,0,1,1.8252-1.2431,5.7354,5.7354,0,0,1,2.24-.4405,5.1708,5.1708,0,0,1,2.4981.5957,4.19,4.19,0,0,1,1.7216,1.7608,6.1724,6.1724,0,0,1,.6221,2.9258v8.0263h-2.2012V126.88a4.9478,4.9478,0,0,0-.414-2.2139,2.4374,2.4374,0,0,0-1.127-1.1523,3.7522,3.7522,0,0,0-1.6181-.3369,4.063,4.063,0,0,0-1.9024.48,3.8063,3.8063,0,0,0-1.5019,1.4365,4.5137,4.5137,0,0,0-.5831,2.3828v6.8867Z"/><path class="cls-9" d="M495.5287,118.9823a1.5012,1.5012,0,0,1-1.5273-1.5274,1.5253,1.5253,0,0,1,.4394-1.1006,1.4589,1.4589,0,0,1,1.0879-.4531,1.547,1.547,0,0,1,1.5537,1.5537,1.4584,1.4584,0,0,1-.4531,1.0879A1.5232,1.5232,0,0,1,495.5287,118.9823Zm-1.1133,15.38V121.3905h2.2v12.9716Z"/><path class="cls-9" d="M505.8334,134.699a6.3817,6.3817,0,0,1-3.34-.8681,6.0484,6.0484,0,0,1-2.2657-2.3945,7.4746,7.4746,0,0,1-.8154-3.5733,7.5967,7.5967,0,0,1,.8027-3.56,5.8882,5.8882,0,0,1,2.2393-2.3955,6.3392,6.3392,0,0,1,3.3017-.8545,5.9454,5.9454,0,0,1,3.2227.8682,5.8569,5.8569,0,0,1,2.1621,2.4463,8.2237,8.2237,0,0,1,.7774,3.6768v.31l-.3887.3623h-10.9v-2.0449H510.727l-1.0352.414a4.5181,4.5181,0,0,0-.6221-2.123,3.7713,3.7713,0,0,0-3.3135-1.8389,4.1111,4.1111,0,0,0-2.0976.5567,3.929,3.929,0,0,0-1.502,1.5674,4.8375,4.8375,0,0,0-.5429,2.33v.5176a4.86,4.86,0,0,0,.5429,2.3174,4.1862,4.1862,0,0,0,1.502,1.6182,4.03,4.03,0,0,0,2.1748.5957,3.665,3.665,0,0,0,2.0713-.583,3.93,3.93,0,0,0,1.3721-1.5918h.3115l1.8115.8017a5.662,5.662,0,0,1-2.1875,2.5244A6.2131,6.2131,0,0,1,505.8334,134.699Z"/><path class="cls-9" d="M514.6879,134.3621V121.3905h2.123v3.65l-.6211-.3876a4.4055,4.4055,0,0,1,1.7344-2.3819,4.8789,4.8789,0,0,1,2.8477-.8808h1.3213v2.0712h-1.6573a3.3591,3.3591,0,0,0-1.8515.5049,3.4973,3.4973,0,0,0-1.2432,1.3985,4.5536,4.5536,0,0,0-.4531,2.0839v6.9131Z"/><path class="cls-9" d="M524.0346,119.3709l1.89-3.7539h2.874v.207l-2.5888,3.5469Zm.0517,14.9912V121.3905h2.2v12.9716Z"/><path class="cls-9" d="M533.9242,134.699a5.3365,5.3365,0,0,1-2.3955-.5185,4.0361,4.0361,0,0,1-1.6435-1.4365,3.79,3.79,0,0,1-.5957-2.11,3.4883,3.4883,0,0,1,1.2294-2.77,5.8239,5.8239,0,0,1,3.4053-1.2422l4.9971-.3623v1.9668l-4.5567.3633a4.0756,4.0756,0,0,0-2.11.6084,1.6494,1.6494,0,0,0-.6865,1.4111,1.7436,1.7436,0,0,0,.7256,1.4239,2.9237,2.9237,0,0,0,1.8632.5693,4.2222,4.2222,0,0,0,2.1241-.544,4.1513,4.1513,0,0,0,1.5146-1.4492,3.7916,3.7916,0,0,0,.5567-2.02V126.491a3.3714,3.3714,0,0,0-.92-2.4336,3.2318,3.2318,0,0,0-2.4463-.958,3.5511,3.5511,0,0,0-2.0459.5821,2.9074,2.9074,0,0,0-1.165,1.6191h-.2842l-1.916-.6221a5.0233,5.0233,0,0,1,1.9932-2.6923,6.025,6.025,0,0,1,3.4433-.958,5.2336,5.2336,0,0,1,4.0782,1.5791,6.383,6.383,0,0,1,1.4375,4.4531v7.3017h-2.0713v-3.78l.7763.414a4.6644,4.6644,0,0,1-1.1006,1.9033,5.6819,5.6819,0,0,1-4.207,1.8Z"/></g></svg>